<mxfile host="app.diagrams.net" modified="2023-02-10T06:09:53.504Z" agent="5.0 (Windows NT 10.0; Win64; x64) AppleWebKit/537.36 (KHTML, like Gecko) Chrome/109.0.0.0 Safari/537.36" etag="kA_c25d2vfp-L_L6Z-eH" version="20.8.18" type="github">
  <diagram id="m7CQSRiD5rib78fRe5kV" name="第 1 页">
    <mxGraphModel dx="1434" dy="764" grid="1" gridSize="10" guides="1" tooltips="1" connect="1" arrows="1" fold="1" page="1" pageScale="1" pageWidth="1169" pageHeight="827" math="0" shadow="0">
      <root>
        <mxCell id="0" />
        <mxCell id="1" parent="0" />
        <mxCell id="j3NO1Yoqob3vaR6-bmzr-1" value="" style="shape=image;verticalLabelPosition=bottom;labelBackgroundColor=default;verticalAlign=top;aspect=fixed;imageAspect=0;image=data:image/png,iVBORw0KGgoAAAANSUhEUgAAAkMAAAItCAIAAAC1penmAAAACXBIWXMAAA7EAAAOxAGVKw4bAAAgAElEQVR4nOx9d3yV1f3/ee6+GUhYjrYuVERkqVRlSAEFRWttq6ASEMEwgiICAkXIIAlDpihREZSRhFU6LHWhIiEJINYiEDIAUaxiyCTr3mee3x/v7/P5HW4AAQMJeN5/5HXzzPOc8dmfz1E450xCQqIODMNwuVyMMcuyHA5HQzfn0oTYt5xzznnj7GrTNJ1OJ+dcURTGGP46HA7Lss7qObjF6XSapokj+K0oikiK8S8dDLkLx+ntOO5yuQzDwEGPx6NpGh7lcrlM08RzxHfherFVYntC3oh/FUVxOp2GYVDDQloitp8x9nOYC70CswIPPN31kpNJSNSFrututxurF6sIJKBx0tmLHaqqer1exhjnXNd1l8vVOPtZ0zSPxwPazTknWedsUZc0h8w0p9MZcotlWZZl0evAOcBCHA5HCKPVdd3pdKIPwd6oPzGx6VtYnYlNH4Wn0ULgnDudTowU5xy8k36ITwYjPGehhISbs+pnyckkJE6HkIXd0M25BEEd25h1X3H0oaycG+XENxqGAV6lKIrItwKBgN/v55zjFcSlTNME18FspFuox4gtUTuJtzFbvwHHgpoVwinFy0idokEhDkq8DWySWBeucTqdiqKQUHJuwBepqup0Ol0uV4iqehpITiYhcRKIpkWycpybAC5xGoA4kt4AinxSpaTBAasa1CCv16vrOrPNaD8HZGZkjOGrqU9cLhcoO/E2XExsDHqS+CjwPFKkGGNgnOLU5ZxrmgZ+U1cXFB8bouThuMjtQhQvURYh5npuwFvcbjf6+SfRSCUgCYmGBbwIsJNAkhX9ChL1BbIdgQJCBm+EbIwx5nK5oHZATzpzdSEEuq5DQyKeQQgGg2AtMLEyxsDS6F40QPyXMRYIBJhti/N4PJZlud1uTF28BWZAzjmuVBQFlzHGRD7kdDo1TYNIAf6Ba2A/dDgcpEfienoFYyxkaYCNna0TEYCGh7ec+YqTnExC4uRwu90RERFgY5BbPR6PIlGvcDqdJLkbhuF2uxVFEdWURgKQVOI0Pp9P1/VzsIWCzeDDq6urn332WeoKh8Ph9/thUvP5fOAoKSkpTqczISGhurq6urp60qRJeXl5aI+maQkJCceOHfP7/WVlZf369cNEBVN0uVwul8vr9Tqdzn79+pWXl2dlZUVFReFd4eHhuPizzz5TFMWyrLi4uOzsbI/H88477/z4449ut1vTtOeee05RFJfL5Xa7+/btW1xcDA6naVp5efnvf//7nJwcsDfS+QzDQMjJuVnjSQfFvz6fj4wip4fkZBISJwHEyaqqKgizhmHAwsMl6hUUVqdpGlQHTdMaoU4GSu31emFdDAaD0HvO9jmw9eHGJk2avPrqq+gBbs8x/Jubmzt27NhAIDBlypSqqiqfz6eqakRExLBhwz788ENmK4hgGKqqNm3a9KOPPqL5mZKScuDAAcMwoP99+OGHzZo169GjRzAY3Lp1a0pKCia2YRidO3eOj4/nnEPr4px37dp18eLFtbW1mqb5fL7Dhw+bpnn06NHrr7/e7XbDMXb48OF77rnngw8+6NatG3gwGORdd9115MgRRfC3nUP/MMYQIckYCwaDUH9/+sZzeJmExCUPrCjQVrL+n5u1ROI0oI6lgIVztkqdb6iqqthB5+Q0OofngAkxxqDVkYGOIt0DgYDT6QwLC4PdlfxemqbdfPPNiqLk5eWB5RuG4fF4vF6vqqojR44k9e6ll1668cYbFUWB/vfAAw+UlJSYphkMBjMzM2NiYr7++uuFCxciFjEsLKympkaxrXlt2rS58847v//++71799bU1DRv3hwczul0QiFbvXr1zTff/PDDDz/zzDPJycngvnl5ebfddttzzz13zTXXoA3nzMyYbc/Eb3L4nR5nzcnAKmHKZBdwbZ/UYEpinXikcS4DAE1VVRU/+C8g3AZjxE70bF9EIJGTCWRXHD6ab/hBGgYO4l+YXLgdORJyiv7isSEPZHVWGa0+elTIBfD8M8ZAeuiyurOORoedOEB1R038V9d18qDQLbRC6w70Ty5JMtPhR+OMYESIhCKkZJzbc8gFBX6WkZHh8XjActxud1JSEoW5YxRgkKQAigcffPD99983DMPr9dJM8Hq9b775Jue8uro6NjZ227ZtXHDFvffeey1atHA6nRs3brznnntatmx54403tmjRIjMz0+FwBAIBr9erKAoUTcbYww8/XF5ePnXq1NmzZ0dGRjLGmjRpYhjG5ZdfPmrUqD//+c+c8+Tk5LfeeqtXr14wPy5atCgnJ+fJJ58kdUo5Vz8is/1/hDOZD2c9Yygck0L+z/YJ5wbKXSBzBGOMTO3MXr2gO43QMw/SBukGxmtm04tLEuxE4SMkG/TiBaLsxG+BKM2FOckYQwAeJiRFNIiubFxJ3ngKrYYXHV1HTybPAZ5J6UGKkDlLIiYivPEoSonDjZTWGgwGmR38hmZQZDnnHLfggXgOEW7MW7fbHWIFYvbcpvhy2NCo/RdmdBo/wJYYYzSIuq6/8847NTU1nPP8/PzIyMiQMHRd1ykKX9f1m266afz48W63u6yszO12+/1+xlhSUhL8XpdddllqamqPHj3cbrfT6XS73Zh7Y8aM+eabb9atW9ezZ0+QzaeeemrevHnQxqDz+Xy+xMRERVFmz5592223bdmyJSoqChPM4/G8+eabhmEsWrRo4sSJILMOh+OTTz7hnAeDwRdeeOGOO+7AxBg7dmxFRQWrj8DOM8e5eCxDYmkYY6qq1mejTgFu6/WKkNihaRpFpiL2hgnux8YDcoEqioJGgjpcqmCC0KPY4V6N0P9xtiB7Iz5TpNRgJ5qmQUxWFAXRaBT0SKUQKLBYsQtGaJqm2KwC7I1CyzBb8C5Mcn6i3w6PItnI5XLRLczWh5AAhLOWZfl8PopSYwJVBXAluCDCrykzCcxJtMfQ6/BGDDq+mkLdGqFk2VBA36IbGWOcc7/fj5hDxpiqquhMDBBJBhgL4oKmaWqaVlJSEhYWFhYWxhiLj4/Xdb2ysnLjxo24Cx4yXdeXLl36+eefv/baa9dee+0//vEPznlaWlpmZqZlWTNnzjx+/DiZOoPBYHx8/L59+2DYHDVqFLggqK7L5crIyHC73ampqbt37/7tb3/LOY+Li/N4POHh4TfffHN+fv6tt966f//+1NTUpk2bsgtrjT9rTuZwOEQ7L+boz0mFO0MQdWAnmhA9Hg81htnB0+e7MecAWv+MMRLKFEU5z6pRg4G+GvRd1EUuasBZIlrDuJ1Vishpj8cjamk+n4/Z5hHi8W63m9uZqoyxYDBId0Hnw8MhotHicjgc0KUYY5DWAUx4zjnNMRQrgvRAKwKTjZgQRCvciBeRaIXjEE9JKKQ6SSLbw0FQYZJxdV3HVweDQWrD+RmNixLUh1gpJNcyxlwuV1hYGLnNQGxdLhckA4dQnsrj8XzxxRdXXHEFs40fDofj3//+9yOPPAJtjKZHTEwM5KSCgoJOnTo5HI7o6OhevXq53e7o6OhAIECTAYGCYWFhiPUYM2bMvHnzOOeg8zExMddccw1kmiZNmjz66KNo/9KlS5ctW8Y5DwaDTz/9tJgBdiFtMGc9w0iUgKTATlFbpd5BiwfdR7JkSFaEGMHZqIAWkv3zL3/5CwKBGmdrfz64HSgBJUbX9cTExIZuVD0AfAVOi7KysunTp6empuIUeIaYvmqaZlxc3KRJkxYtWjRs2LCoqKjk5OTHH3/81ltvhY6VlJT0/PPPR0VFFRUVDR48+OOPP8ZziBaALtx7771r1qwpLCzs1asXCB+9ZceOHbfffjtjbObMmb179+7atWtaWtqhQ4fi4+Nx9vDhw4MGDWKMpaSkoD14ciAQiIuLGzZsWNu2beHM/8tf/jJ8+PAbbrgB65pMiLW1tePGjRs+fPhtt91GhY7oLJUvOnjwYHJy8vz58y+//HLOuaIo4GdUq+KCjVEjB9XpIHXnySefHDx4MOZPcnIyY8w0Ta/XC1EAJC4QCISFhcGIN3To0Pz8/Pnz5z/22GNUNSo/P/+zzz6bMWPG9OnTuRBtkZaWht9t2rTZs2ePaZrr1q278sore/XqxRg7duwYiTK4KxgMer3enJwcr9fbvHnz9PT0QYMGJSYmdu3atUePHrhMVdWMjIzJkyeDfLlcrqeeeoox1qFDh4ceeoi+DrPlwuBcdLIQP8GFhMjGTNOEAAvPGRUHa7RrBiwfs2rOnDnMFpMvSUBx55zX1NSYpjlz5kxVVfnFz7Yxx6CFREVFvfrqq/heGHw458FgkHNeWFg4ceLEmpqaxMREyCsOh8Pn8z3xxBNgVwiaoHiwyy+//P3334dSVV1dvWDBgkOHDnHOKysruR1F3bVrV1VVt27dmpiYaBgGDIw33HDDnDlzVFWFZ8UwjCeeeKJfv3733Xff0aNHGWMejyc/P79z5849evSIi4vDKzRN8/v9jzzyyGuvvYZ/Z8+e/ac//alt27Zut9swjM8++wwxCIqiREVFvfXWW3fddVd4eDjshz6fb/v27VVVVSNGjGjatCmEsw4dOqSnp19xxRUgEYqizJgxA53WaJdkg4AkHkVR4MtcsWIF5zwQCBiG8dJLL0ExqK2tjYiIwOTJysq65pprPB7Po48+OnTo0NLS0nHjxr366quKomRkZDDGCgsL33nnnUcffTQuLo5Mghi+YcOGQWnDAsSUQ00sxlirVq3i4+MRPAI52+Vyvf3225s3b7799tshAymKctNNNw0ePBjGFcaY0+kcPnw4Hrh27VroZKZpPvPMM8y2q19oBnEORCoQCODHhUyvAbvCOuQC4UBvQkemixth3g/oDuccJIw0lQZt1HkERodA0QQXEU66OjCOmqbRB9Ig0hBrmpaXlzdu3DhMzqqqqoSEhOPHj+PsggUL9u7dyzmvrq6eOXNmeXk58pOGDx9O1iRaniBGyGxVVbW6unratGk1NTV79+5dsGAB5/yHH36YMWNGIBB4+eWX4X6nNcI537Jly6pVq/CbDsKrT3YUsnziX6fTOWzYsI8//jg9PR3XY+mJaU+rVq3asWNHVVXVjBkziouL8XAiC+L1dNfZ9nMjx89pM80ThNJgIhFZw+8DBw7MnTsXF+zfv79v375fffUVLli3bh1jLCcnxzCM48ePP/vss9u3b09NTa2oqMjMzExISAihfqtWrcrOzubCBEhPT8dYd+zYEVNR1/Xk5ORdu3apqpqVlYU5s23bNqfT2bFjR1gdZsyYgdtVVT1w4ED79u3ZiR5Wl8t166235ufnw87M64MOn3k/n/V4pKamdurUiZbZeeazJyBk7Xm93htvvPGtt94Sm0fBjY0T5MX9OSvhYgHiBfhF+72najOtT8y0FStWUJg+FrxlWYWFhVOmTKmurgaXSk5O/vHHH3F9Xl7eokWLDMNQVTUhIaGkpIQeaFlWbW1tTEwMoqi5ENkBrFmzJjs7G/ECGRkZmZmZlZWVcXFxtbW1CQkJWVlZRUVF/fv3pyVDhAZ+tXvvvbeoqEhsPD+RhnJ7ilqWlZOTQ4tOtN47HI6srCzTNFVVTUxM/Oc//4lTa9aswY3Hjh3r27fv/fffX/ddZ9XPjRk/v83ioNPB2tpapIUxxlavXo2DJCpVVVXFxsbCeEjscN++fRMmTEAGcXZ2tjgVFTt1JCsri3Oenp6OcYyNjYXlgHMOEcrlct13330//PADnhwMBmNiYh544IHS0lIau61btzKbn+Xl5UGQInqLr5g/f35+fv7P7BkRZ97Pp7wO7RPFB875G2+8ceutt2ZlZYUcB0I0DHGFEEU7zcNPCrqGnygV4kdmZmb79u2RSPGTj7pgwIfTBKVJI05Zxpj4aad5DkAXh8hukPqJZ5A0pKpqyJXi7aRYhLwIP6jB9FKip3Xp3Rn2SWOmViEDQd94Gk5Geg+4C2TYYDB48ODBhQsXcs4LCwtfeOEFmApUVY2Pjy8rKwuZnD/88MPMmTNramrgHREJEMU00sFRo0Z9//33DzzwgMhX7r///v379ycnJ0O927ZtG41RXRNFdXV1cnJycXFxeXl5nz59yIfRqVOngoKC9PT01atXl5eXT5s2DQ/BNEB+0meffYZH0dzAqRkzZhw7diwzMzMpKYlznpmZqShK+/btc3NzT9W9ddHY5kZ9rd+zBdZyyErnJ0oz9IMKglCqAyHkiEiWcZdYTIQLRKPuNXXvDbmAn2eSe+Zz45T2a8oXYXalSF3XlyxZkpqa2q1bNzH+gv6G1A5Hhzrs/HA8DbY1islGjrDD3pjAsmOU0YNMqPpct4Wc8x49erz66quvvfYaxSvC9Mwbzh/D7WxZigGDP5yC9yhIyXnajSG4nehD/WAJ0Zv0lyLQYHynyG9UCORCKhK1jaISaLxwFrcj45LZ1a/perSfxh3elEsjHJF0ffMM0tUphI/Z8TvkwPd6vYjCx6mwsDCMIHwPpr1pE41CIBDweDwIwn7ppZdAod59910sBKwUy7JWr16dk5OzZMmSli1bvvfee5ZlrVq1ClL2K6+8Eh4eLhImxS7WriiKmIBvWZbf70cBWcbYDTfcQAL4008/jeA0rEq3211VVeVwOLxe76pVq3r06PHEE09kZGSAE3u93mHDhkGWRXT+oUOHxowZM3369IyMjO7du9fU1PTv3x9RcMwmHedv7Ood9bV+zxaWXeWEZqO4WnEEYwr5RjyIhmHi0ZInWoo0CbGpITE4eBq3WRrRaiYk0jCbtNLtlErYSILsTjnJwO2ZHabIGHO73Xv37u3Ro4dl51qiqgqzk11g84V6iypqtKgUe2sACnkioknMEoHInHME9eGZzM5FZYw57K16nPbOp6Zp9uzZc+/evehxBJvW7ww7W5BGj38553Dph0RX/mRgOj7fYRelpqeRH5VqQ5h2WW4KhEHMGLMnH/6C8RBVFXvJshODxBBwWipEhZlNE0FqxRC7ixc0x5id53v6+UOOenJrg5FALHM4HGFhYegWKFtOpxM2RhI1SPLYtm3blVdeSauDc758+fKHH344IiIC4SE4NWTIEPT/t99+iyjqoUOHdu/e3el0/vGPfywsLESBBmYHEG3YsAGN9Pl8eAjCjJ1O55dffonRPHz4cMuWLZEk9Pbbb6PULGYXLkbAm6Ion3zySXJy8lVXXRUfH9+nT5/27dtPnz69e/fuIOU1NTU33njjV199tX37dsuydu7cGRYWNmfOnNatW3fq1Ck3N/eiS4evr/V7ziCqS2ZhSD8gCBgmuhLEFrkZYtFeGIENw0DsK+RaKmgJKo2HkKyMNyLdkNpA+Rt4F0aT25tZo23swkbbnwqn5GQi22d2W+nIunXr1q9f7/f7wc8SExORYefxePDxa9euRS9jmSl20WtFUX7/+9+XlJQ4HI633367qKiIMSbWhHY4HL1790bYFVBRUdGvXz9RDKRTJFwg94UUlAYE5jfkI/wGV2ZCBSB8Jv17UtBUhqRWUFAwceJE6EmGYSxZsuTw4cOWZX311Vfr168HiSSRKiMjIyUlhaizqqpiHIFlWcePH+/Xr19OTg7m8e7du2+55ZZ9+/bhGlAxFEtFU4mqYq7/85//RMsvZJTteQLRC2LntLZPCm6XuKUV4fP5Bg0apCiK3+9v27btsWPHwDagkzHGIiIi8NiqqqrnnntuzZo1jLGDBw/OmTPn0KFDzF5chw8f/vLLL5OSkiorKxGaiJasXr0a43L99df/5z//sSxr2bJl27ZtM00zNzf3tttug9RIyuIf//hHLlj1SWOrqqq68847sVKuvfba4uJiXBMdHU3UkPY2jI6Otizru++++93vfvfqq6/27t374MGD77zzTrdu3SIjI9E/CNc+dOjQlClT3nvvvTvuuOPOO+80TfOFF17Yt2/fnj17brnlFnRRg6/KM0d9rd+zhZgrVlFRMWnSpK+//hpSI+d88uTJeXl5DnsP6IKCgrlz50KSGDFiRGRkJAmpDoejX79+iK13uVwlJSVjxozJy8vr378/reiwsLAHHnigrKwM7z18+PDcuXPRjOrq6vj4+OrqambnufMT67bs2rVr/fr1TEh4NxtHvuBPK/7Uv7B1mKap6/rOnTu//PJLDHNYWFhSUlKLFi3Qm+PGjauqqvJ4PGlpaYZh1NbWFhQULFq0CENSVVXVuXNn9EvPnj3nzp1bW1vrcrkiIyMPHDjAOS8tLW3Tpk1kZKSu64qi5OXl9enTZ/PmzT169CCmqChK586dEabssDe+M4WadQ1o9YIWBY5O6iaoCVrObQu488SthkKA5UTCUZs2bbp06fK3v/0NE5T2GaqqqmK2EQDsStO0xx9//Oqrr96wYQMeRdZCZle1admy5UcffXTPPfdAvOjSpUthYWHHjh0VRZk5c2Z0dDSIILz6EyZM+O9//yv60h555BGqKHG++/N8w7STgh128QUxHKsuFNuiC2am67qmaevXr8eCNwwDLnG4xxRFQeWFrKys5s2bt2rV6vHHH3/88cePHTsWGxu7atUqRVFWrlzpcDgOHjyYmpr6yCOPTJ8+PTw83O/3k9wQHR2NteOwC9w47Z1QNE1r1qxZXFwclgZpe6KCTpPQ6/X6/X5Ik0eOHGnVqhUmZHp6Ogyk+HzM1bS0NIfD0bNnzy+//HLjxo2rV6/u2LHjkSNHBg8e3KdPn4MHD+LbvV7vzTffHBERUV5eHhkZ+cADDzidzkWLFiFh7vPPPydLwAUazp+N+lq/5wzOeUlJyTXXXPOb3/zG4XB4PJ4DBw5cccUVbdu2ZXaxqzZt2lx99dVffPGFw+FYunQpefI0TQsGgx9++GHLli3RttTU1OHDh7dt23bTpk3cdnUbhvH+++9HRUXhjZR2zRgDPd+3b9+AAQPA6hhjSM3Gj0OHDiFIlQnp+Sf1/lxgnG7FwtFF4id5vHbu3Nm8efO5c+fClK+qalxc3NGjR9GbixcvjoyMhNULlgpReIH9Hcu+TZs23bt3P3LkyH/+85+qqqpf//rX5DYLBoNOp3Pt2rXt2rXr16/f8OHDExMTYVo8dOjQb3/728mTJ7du3VqkpIq9LTdrUE7GBE3FMIyFCxcGAgESdUFiIBmdfvg551S+hHMeDAafeOKJPXv2ZGdn33777ZMmTWrXrh3kL8jUn332GcYLdPbPf/7z7t27EUfEhHKlU6ZM4bYTGyEAR48eRbQSyOXUqVMZY9u2bQMl9Xq98+bN69KlC6Wn5OTk0AdeApwMlLe2tpYJdggqv1QXJJXjXrfbPWTIENRUFU3BnPNf/epXfr/f7XaXlJQYhpGfn6/repcuXTZu3Hj55ZfHx8ffcccdzz///H/+85+cnJyPPvooLi4uPDw8OTk5GAzW1tZithiGsXbtWmZPb5ozd955p6Io99xzT0FBAZk3FUWhgVPs3UFx3O12ezye9957D3bR6667jhbsU0895fF4Bg0a9OSTT4Kf+Xy+6OhoGCFdLlfPnj2XLl3q9XpdLle3bt0+/vjjcePGzZ07Nzc3lyxXuq5/+umn77//PhqJJt15552k7F5EqJf1ew5QFEVV1R07dtx0003PPfecx+O57bbbCgsLd+7cOWHCBLThjjvuKCgoME2zf//+mzZtEqu5Yo2j4CfalpSU9Otf//rOO++E4QqqCCl/jLH09HSE2pJgpGmarutt27adPXv26NGji4qKduzYoShKeHg4vjo6Onr06NEwRYAg/Pe//zUaQ1klfmpQtIwolVRWVo4cOXLNmjXHjh27//77MepOpxMsnfIJIGkSRyEGoyjKfffdB+UXyMrKuv/++5GVwjkPBALDhw9njI0YMQLBPKCw27dvx6NGjhxZXV0t5isoikK5LLxxJGlRPI/L5fL7/dhkSAw3Un4qJ9qqExYoxg0uXLgQ+SVbt25dvnw5XUPb0VZWVt53330zZswQI9lAH7dv3y6G82AEobfl5OTgOVu2bJk1axY9FpzPsqy1a9du377dsKu6nTlOP9MaEIFAIDIy0ufzTZo0qbq6mgtBWSdtM008TEu4DOlsdXU1CvYoioIoajGvLhgMjhw5MikpSQz3ys3NnT59OjKgEUXNTkwldrlcGJe3334bFGf06NF4gqZpgUBgxIgRTqezX79+ZWVleKZlQwwSrqmpmT17dklJybFjx0aMGFFSUrJjxw7GWO/evUtKSvLz81ErZNasWYFAYNWqVQ6HIyMjY9u2bWjGiBEjxIyxYDCYmpq6efPmxx9//ODBg5xzWE2JxzudTsSLh4TG1UUjnBs/f/2eAzCRPvnkk3Xr1nHOg8HghAkTMjMzk5OTSbJZuHBhXl4eNS8hIUEk5kRvZ82atWbNmtWrV1uW9eqrrxYUFIizlHS4oqKiQYMGbdy4ESH1OJWcnPzDDz9AIhG7IhgM5ufnjx49et68ecePH6cHirS33nHmc+OU19GwWUJMKmMMEuKqVavKysri4+MDgYCu6wkJCaWlpdjStKCggHO+Zs2atLQ0sMDCwsL58+cTMU1OTi4pKUlKSmKMJSYm0sPJMcDtxJqRI0cy23SWkJCAU4WFhbfeeitWy8iRIyFN41RINm6DICTC9ZVXXoFm43a7p0+fXlJSgmvIb3yaR1lC1HtCQoLD4UhLS8M3zp07F8bYrKystLQ0eiNdn5mZOWHChEmTJkEto77VdX3btm0gsiB2VGk0PT0dEXGWZeXk5EBYM00zMzMTqUKc85UrV27ZsoWad+bd0gipFWHevHler9fn87lcrokTJ9bW1lL460mvJy4ekhMthjXzEweX5ImQa2hQQu4KERRg4aBHiWIc+cPod8gqEJewOGTihBGZjchlzToB1vR2LkyAkLkndogoSJ0KjWpu1OP6PQfoup6Tk4MVffz48cmTJ0+ePDkrK4vGbuHChbm5uTNnzlQUBSTRNM3S0tJBgwbl5+eLswvTIC0tbdWqVSGF4iC8Ys+Ul8sAACAASURBVIPNjIyMCRMmzJw5MyYmhi4gB/nKlSu5neRz+PDhAQMGlJaW5ufnv/jiixD7xIl3PlAPnKwuoJMuW7Zs48aNK1eurKiouO+++0gWgBR5++235+bmmqa5YsUKEvBzc3ORZMM5r6qqmjlzJnSy3NzcBQsWBIPBESNGUP9CrAAX5ALfInEDL2rfvj2l4DE7qA+3QJNrKIj0Bb+bNWvGbLOqz+ebMmXK8ePHf3KEaHLQatmyZcuaNWvA0uBBEWcn5iU6QVXVZ555Zvv27du2bSMJgEBSNon/NHwYMl3Xt2/fDiED169duxYPRxXtkI89KTDFaSyYHfd4Bl14oWEYRlRUFOmpkMErKipgLcQ1P6lYnB604InoiwYPOluXN9RlVHWVLX4i/RX5oqjHn7RhdRcLJe+LDPukrwtpKj9Xyn5Jrt9zAF4K4xPsJR06dCgoKEhISMCiM01z7ty5UBXy8vJQ3pdznpaWBuaXlJSEpHU8av/+/Y8++iiKyHB7pqWnpxN1xUQ6cOAApTmXlpYOGDAAUjKg63pNTc2YMWNiYmKWLFkyfPhwTdNQ9h5VYEIkpPrFmffzWad6DB8+vEWLFm63+7LLLvvwww8554FAICEhoaioKBgMdu/e3efzORwOt9vdtWtXRL+0a9du0qRJMC1GRkZ+8skniB9BmIbX633xxRdfeeUVaKmIxrnuuusg9WiaNnLkSIgY69evpzEYNWqUZVf1hieAdqsjA26DAIZWeODBcsrLy+EtwJYNL7/88pAhQ5BwcxpTO0W9U9QQomDi4+NN05w0aRIm965du5CWiyo1eOOXX37p8Xhuvvnm22+/Hem6zA4055wrirJ27VpMYkDXdVVV161bh8A2yivCBP3f//7XsmVLLoQFM8ZgX1JO7Y+ExwVOOxojKuXXqODz+bDa4cENBoNz58595plnEGFBX+S0aySeFcCfxF1aTDt4WlEUxEOLMRpMyPCjWGqEJnIh1UmxjXgYPjEAh0QcLggQcFcbwq6eELQp2Jhe6na74eGmgUY4ACI2ketJWZ5c8H+LmU9njkt1/Z4DMDcMw6BYuX79+lmWFR8f/+mnn+bk5KBhph21gN7+8ccfDx8+/MgjjzDGYmJi0tLSqqurFUXJzc0dNGhQbW0tFHrsT00ppHiXZVkVFRXPPvtsZWUlvqW0tDQvL+/zzz9ndozYzJkz77nnntGjR6empsbGxvbp02fNmjU33XTT3r17MV6w0jU4zmV/MuSEmaY5ffr0nJyc6upqh8MRERGhKMqiRYuuvvpqwzCOHDmSnZ2N4S8oKHj55Ze5LXZRQWWYm1Fip2nTprAOL1iwoEePHl27dqW9vd966y232x0eHj5gwIChQ4diwi1ZskSxMye4rf/i+Q0r+FPIH7dFnmbNmsEcgTyhyZMnr1+/HlWuTxMjxwSKwxhzuVw1NTWMMchQDoejQ4cOpmnW1NTAd2LaKV8lJSVTp06Njo5u2rSp3+9/8MEHV65cyex0MdM0PR7P448/Dgcy7VSLUHLk9oLOYh6rqvrpp59GRkZa9h4Ilh3r7/P5zNPmkRjCHoykLDbg0JwUmDnYHQPE2u12T5o0afny5eguZrN/dk5ZB6CMNTU1jhMT9WAVh38ew4dgXfQ/3PIUeEL5J7QRIAVAO+3Nq+jJlAOk2KEf3F5roMggZw67VDneRYEA/MQ8emJOHo8Hax+vM+0tYCjO5dyCOy7h9XtWoKVk2RshgcFDzX3xxRe3bt0KDw6yGpCbq2nazp07Bw4ciE0yf/3rX7/xxhsLFixQFGXLli0LFy68+uqrwcAw1tCzFVsMOn78+JgxY2JjY/FpDodj/fr1s2bNOnToUHFxMW6Ji4vLyclp166dy+UqKirasmXLH/7wB/TVI488YprmE088oTSC2NSzHgnFTrNljCUnJ3/88cctW7a89tprfT4fvhyB4IFA4MYbb2R2PhPkF1rSlp0iDmtVt27dEPntcDiuueaaQYMGcTs/Wtf1p59+OhAIBIPB9evXw27LOY+JiYE4yYVtD2mQGnAxYP5xO8Jt4cKFlZWVTZo0cbvdo0ePrqioSElJqSt9nxRgNmADzI7//vbbb0eOHDlkyJDw8HBQN/QtUZzXXnstJiYG3nvTNLt37x4ZGblixQo8EIRj1apVWKsgoBA4UlNTicx16dIlLi7O4XC8++67rVq1+uCDD8LDw1euXBkdHX333XfjGpLNT9N+Zqd4M1uKbKhxORUURZk3bx42LVQUZeLEiT/++OPMmTObNGkC0k/1ETDZzna9aJp2/Pjxxx57DPK+YusczZs3x5E1a9ZA7ykvL8fGK7W1tc8///zhw4eh0Yq5gKgkAPk6Jibmiy++AG8jJoQBnTx58r59+zABampqpk2bhqAMzjmm0xtvvIEYa1VVY2NjsdacTudDDz1UWlrqsCP4i4uL+/bti4J7EJUQ4eKw8wHQObQ50TlQNH7prt+zApYGuA4mXiAQwJJXFMXv948bNy4iIqKyspJkUHiqXn/99Ztuusnn8/Xp0wdmrWbNmn311VexsbEdO3ZEOCITBGIxY3Lx4sVjxoy55ZZb8EVZWVlff/31gw8++Lvf/e6NN95gtlQ0a9asjz76aNKkSVVVVSkpKWPGjPn6668VRXn55Zc3bNjAG0kA85mPMVnzdu7cuXr1alDAhISE+fPn33///cOHD0fPWpa1devW2NhYKFWaph06dOiVV17BQ2pqapKTkysqKgzD2Llz56pVqwzD+PTTTxljHTt2XL58OWNs1qxZFIaQl5d366231pWFb7vtNlRx5vY2uNROirppKCA0CJ8QHh7u8/lefPFFlEJHmgHnnASCUz2EzuL6ffv23XfffQMHDty/fz8X6q1ZdsgG3jts2DDkM9GTdV2vrq4eOXLkO++8gyMUBRrChzweDyI+0P59+/a1a9cuJSWF2wEjKSkpjDGquknuk9MAhI/EzPPnGf45CA8Pd7lcU6dOpQgxbtdSAWn4+dGw5EayhAqZnPOMjAwIZ7qur169OjMz0zCMmpqav/zlLwUFBceOHSNX9KpVq/bt2wcBBVo4QIpXp06d4Dk+cODA/Pnz6aUHDx6keCsajkOHDk2YMKGmpub48ePjx48/ePAg5klMTAzK/pqmWVBQcMcdd4TUIvB4PB06dED8PT6NYjix3s+hcy7J9XvOIDe22+1GNACtmrKysmHDhh07diw3N7dDhw6MMSxqikUkbRINKy4ujo2NpYhW0y54jYAvavy+ffsWLVpUUFDwpz/9qaSkBB8eFxc3Z84czvnKlSuxJdPzzz+PCaZpmqqq48eP379//6pVq6hG/vnAmXOos+ZknPPNmzcvX74cYRq7du3Cqby8vDvvvJMxFhcXl5KSIlYZzs3NnTdvXkFBAXp/1KhRmBaGYaiqOmbMmH79+tHeEJzzzMxMh8OBEN6DBw/CMkln0dEvv/wyaDrJpNz2FTceE5ZlWS+//DICrGk60jZdpyfrdBbduHjx4oMHD8KJyIQQG2YH0CckJEyfPn3Dhg1QsERaAJ/W6NGjV6xYYZrmli1bMjIyLDu6iUDV/GbPno1hgmOAigWbpqlp2ogRI1CO/fTfLvIAmjmNEzNnzsTWUKJYwAUnk3mymMAzBDhHUlISFeEVhYy0tDQMiqZpS5cu1TQtKyuLWNQrr7wSFxenaVpiYuLOnTv37ds3adIkRAvT8ynKY+HChfv378/MzGS2Nt+pU6fCwkLE0+OZnTt3xqrhnL/77rv5+fk7d+4cNWoUpijytYuLiy3LQkj9c889N2rUKKxEznl+fn7Hjh1pmxiR8Z8zLtX1ew7vgqiXk5MD/qSq6rhx4/bu3Xv8+PHevXtjEGfOnMk5B+PhnCcnJ7vd7pBtgBhjycnJuq6Xl5ePGDGiqKgIoRy9e/d2Op2dOnXat28fXgoNHntJ9+rVCwNKpGPGjBlTp07l9oxFwCSzXfijRo0SC+rXY1eIOI+cTIzqQe+DbpLEXfcvIN4IhIS3iaIQPzGbjduRXRSWIz5H/FrDrgR/5t9Vvwip+i82RmROlB5+mkeJpPOkX0SSvnhQ5PcYHX5id4kwhLLW1onRbnSL+ANNqhuGflKIRcSZXcLuNNc3EmAmm3bOkEhkzznNY8aMGdiohR6OJZORkYFiY7t3787Ly3v77bdnzJih6/r48eP37NlTVlaWkpKyY8eOyZMnV1RU4FE0QLQQxMHNycnJyMhQVbW2tnbixIlbt25NTk6uqanB2QULFhw4cAC1Y3Bxnz59KLatpqYGW4qMGDFCTE3LycmBIXT06NGVlZV1FzW39ws8t/65VNfvWSFk9fGTTTa6hqpLo7W4UqQG4qSlNtNvXFmX/RAnI/J+0tsppScYDJ4PrVTEmXOyc/RYIiIA1m1Ycql2CzmQme3qF4UFxa7Wxe2oPJhKUMON/DSgI8z2fzIh6At2KsWuhIaH8xOrvIvmlwsM1NUVS0VQY9ByZvsOWR37ngjTjh7EvxQawE4s182ELFrqWGa736msEWYnO7EGMbc3wHTape7Fp5HPgxxdil2Hjar8nb7eGuJHmDBM5xDbdgGA5iFsAZ2GaYYVgqmObjyHiA+seYfD0bNnT7g3EKMBj8WgQYNQhvvvf/97u3btNmzYMGDAgIceemjx4sUwtluW9fHHHw8dOvSyyy6jephYd4jWge8TOjrqTlmWhWLchmH8+9//7t27N1WUBu2bP3++y+VKSEi4++67P/roI2z6zBgLCwuDr3TRokUvvfQSBXR8+OGHlmUFAoHnnnuuV69eWOmjRo2CIwdkEfEj51yH89Jbv2cLxQ5kZfZCxnYTzJ6ZzPbUki+N1qMYuUM1KKgbUWiKolste38SCoOk5/v9/hCfJU4ZJxbuolAUeG1PH/Z14XAaLmcJOTS6vc0K/j1pZskFgCWAGiCGfpDS1gghil2svq0TjQ0hGb4UhXUR4fSr48yh63pycvLWrVvrysVr167NyMjgnBuG8c4772zfvp1zXltbO2XKlL1795aWliYkJBw9ejQ+Ph46mWlvMcxt9wZ+k/SdnZ1NIsjtt9+ObKTt27fjdQsWLICrY8+ePYsXL4YSxuycQtyFzCTOeW5uLvbUJVKOazp27FhYWFgvPQPUVz9fSNR7m0UFiJyadCTEx2wJu9DRjaI1RZxpIR5N8fa69i2rTqqi+LuulnaenIWEM+/nU+pkYM5OpxOCCUSVW265Zdu2bYaw88VP1qmrL1h2YSoCquh+/vnn1113HbODc+oxLrZ+gf5E1BmOOBrHvj7nCQixo30fuK2C/9LAOcfaCQsLwxEIW5gGjz322GOPPaaq6v/+978DBw5ceeWVb775Jvz2iENxOp1er3fIkCHY7d7hcPz973/Hjprh4eEUV+nxeLAcDMNYsWIF59yyrG7duimKEh8f/9577+3atcuwdyBjjEVERKiqioi4RYsWoUm6ro8YMeLqq69mtkkAUcSqqq5atWrNmjVQ6QYPHmxdbKUUGz/EsE9K+eBC0VQxTUIRdqFT7G3DcARnsdZghIR5xrIsqG50DSYhhh4XwxKGtAqRsNPKVezdu6iRiGI9hzzLesdP032yICmKMn78+DFjxiD4TbG3d7PsqrXnFSKLgr7s9/tzcnKGDRs2fvx4jDTZPM9LV/08OOwSEmSgIAvqpQqKwmf25/8CKSCIiMPhoM38EA1I/Oybb755/fXXs7KyZs6cGRsb26lTp549e7766qvXX3/9uHHjHA6Hz+fTNC0vLw8pAdnZ2VdccQXkbuxnD3I2YcIETdP8fj9jjHNeW1uLUCDO+V/+8pcPPvigqqqKc+7z+VRVVVXV4/FkZmZWVlZeccUVb7/9tqIoKSkpd999N9I9GWOmaWZkZMCU9NRTTyFtyO/3Iz1R4nzAMIzq6mrs7FNZWYlqc2AtmqbNnj27tLTUMAzUiaZqAzA2wmoNiYfsk8nJyTt37gR/CgaDCxcuLCwsdNgFpplQMreysvK5556rqKhQVRXZ8cxevIFA4JlnnsFDnPZ2RX6/HxV0iUc2LE63ZzQtQsYYCg0MHTr0ueeei42NVexK26hIhn/PK+CQw48mTZpgMJ5++unx48cjnA8yBRrTWEy3ArhtoVbsnWcbrfpYX4BFkbzHrBFrzOcPJGOhKoRp52I6bb9yUVFRRUUFtJ933333t7/9bVZW1sSJExE9f/jw4R49erRt27ZVq1aMsS+++GLJkiWlpaVOp9OyrKeeeopEvddeew0WFDAzYpYgdvHx8W63+4cfftA0DftULV++fNu2bZ06dRo4cCDKGrRu3Xro0KGirQWbfBqGsW7dupUrVyKmIyYm5hcokZxv6PZ+nhEREaZpBgKBJk2axMTEfPDBB4wxJEFDgne73d27d+eco+IPSkFyzsvKyiZOnNi8eXMxAXHSpEmff/45bqyurg4Gg9dffz3ZIbOyssjz2qJFi9dffz0qKioiIsLpdELQIQ/cNddcU15eDkMi6oZUV1djw1Va3Q2LU1IWqEFEdtE1TqczJiZmz549XDDZk8n1vEJVVVTK4XZCA+e8oKDgmWeeQT/Cl87OIGO3QUCBcKKqbjSG3RDOD0C1KR6BJlJDt6thcN1115GhhoqtQFjcunVr7969GWOZmZkulys5OXnDhg0+n69169aapl133XXZ2dm6rkdHR5eUlCxevPizzz5LSEhIT0837T3VuLD3t9vtHjBggMPh8Pv9n332mdPewx6rpqKiomnTpoyx4uLiyZMnT5s2DXv0zJgxIzU1NSYmJj4+nixFpmmuWLECjHDAgAHDhw+HBLls2bLGsLPiJQbiGZWVleSYvP766xVFQZK7x+MhOyHO/vDDD6WlpQg4ZIzt3r27srLy2muvZYxpmpaQkKAoSmRk5Lhx48LCwh588MHVq1djKzsUaYqNjTUMA/H6nPOioqJnn3322LFjuq4Hg8FVq1Y57ZpkhmH8+OOPUVFRoLGoK+bxeHbs2EHVGxqiz07AKWckt51S4kEYJaD0QNhE0RR2/rcE83g89C7DMPADzRBfTacaG0TJgDHm9Xpnz55dU1NzqRIFijXldiwl1PqGbteFBqbonXfeOWDAgD179hAZgmTjcDiGDBkyefLkxMREHFm5cuUPP/wQHx9vWRb2ZNd1HWFmb7zxxtixY++6664PPvggMTHxqaeeUhTlhRdeQA87HI6UlJSuXbump6c/+eSTqqoi+ay6uvqRRx755JNPGGMzZ8684oorNE3r1q1b586dR40a9c0333z//fdQ+GJiYnbt2uXz+eLi4hISEnw+35AhQ8aPH48Go5SX0+l85ZVXGoMMfokhGAz6fD5uBxKHhYWpqur1evv16/fhhx+2a9cuEAggQNRhV2S97LLLDh48uHXr1oEDBzLGtmzZ0rt3b1A/j8cTHx/ft2/fwsLCoUOH6rp+4MCBJ598cvny5UOGDPnuu+/S09OnTJmCXePhQPX7/dXV1bgdb4FbFJbGK6+88vjx402aNGGMaZrm8XhUVUVyW4N22/+HcpqmkGmR21VkmB1JIro9QLPOtxrE7Thd2vWO/qJnGWOBQMDv94utbYTAlJ02bRrm5aVKFEzThIMHJcd0XU9MTLy4OJminG51nBUse5fhkJVCIdHMlnXoODtZmEzI3MbTTGFjaDJLYJmEvCVE5iMp0BKqEjM7B4ZuoWUuLrp66RagHvv5guH8tbm2tnbBggUjR45s1qwZuJrDrqe6bNmyUaNGNW3aFANdWFiYmJjYqlUrFN958cUXU1NTGWNr16597LHHHA7H1q1bjx079vDDD3u93jVr1tTW1jZv3vyhhx7avn37sWPHHnroof/85z/dunVz2pH0zhND6rdv337XXXelpKSAWBGlwiome9KYMWPmzZtHmR71i7Po59MEWYhps/zErD0uxHSe153W6oIiQUPSbOlfs1FGt59J5uOlBPF7rVPkZTdynH51nBWoN8hrKCafioHUIbPXFCrqhmz+Iiai8JOltHOh8pMpBG2L5bLEHyFp72KOLT8xraJ+B7Qe+/mCod7bTF2KrUVQ84jGVNO0wsJC7L1CV2ZlZcXFxWVkZGRnZ3PODcMIBoOTJk2irTgRGMIY69y5c35+fnFxMXYkX7FiBfL0s7KyaPOmH3/8EdZF3Juenp6ZmYl3FRcXJyQkoBpZdnY2ShWqqvriiy9iJ/T67QoRZ97Pp7NvOu3gFvwbYgwlI9554sanAsmDIQI+/dsYjLZ1IYbwAY3TClpfEL+3MavIp4Fy4g73P8epSb2h2PUB6AcT+gcZ2eKNokWaatiH3IUVWjelndllq5gwEIqiiDGl4g+qAC4+NuQtIff+fMCZKvbzL9OZqthpyKQl4zh6w+12f/7555dffjkd55wfOnSobdu2ffv2XblyZXFxsdPp3LBhQ5MmTVq3bo3h/uabb7CzIOKJmjdvHhERsXPnzh07dtx6661IxBYjIWBAJnsbneWcZ2dnR0REuFyubt26YVMbr9f7/vvv8xOjyhsQjaIREhKNDaZdugKiqGVXn5GoXzidTvhpmGCDbehGNQxo4xWn0+l2u2tqamJjY//2t7+ZpllYWDhnzhxs58TtkjR79uy5/fbbmzdv/sILL8ybN2/Tpk07d+4cO3Ysicgulws7C8LvpSjKHXfc0bNnzx49ejRt2hRlg+Li4hCF1KJFi6VLl2KLBkVRhgwZgsnPOff5fD169Dh69CjnfMeOHatXrw4EAjU1NY888gi3Ff2G7DjGmORkEhInBRJLkCsJzaYxLNdLD9A5LKHGNPtFqmXcLuRhGEZOTk7Lli0jIiKGDBny2GOPFRUVjR8//s0332SMrVmzBnEJGzZsiIqKuuGGGwzD+M1vflNTU7NkyZJp06ZFRkbigcePH//yyy+vvvrqYDBYWVnZokULy7IOHz4MjxeqbWmalpSUBKGttLR05MiRpaWlZIhu3rz5kiVLKioq/vjHP8bFxbVo0cLhcNx1113R0dF+vz88PDw5OXngwIFHjhxpDGqZFDMlJE4Cir1kdiSF5GTnA6Jp9BerjTFbclIU5ciRI6qq5ubmXn/99W63Oz09fciQIZ988sndd9/dvn37CRMmXH311S1atNi0aROCSDdu3BgdHb158+YOHToMHjy4S5cuCQkJjLE9e/ZERka2bt26qKjou+++M00zJSWluLj46NGjU6dO9fv9Dz/8cO/evZEBgghGl8ulqiqZN3ft2tWyZcuoqKjNmzeTEfLzzz//9ttvBw4cSHZFbmfKNmT3SZ1MQuJUQOYAE3ZPlsys3kHxltASsAHYL5ClcTsMu0OHDp988kmbNm0sy4qJiTlw4IBpmii8Eh4e/sILL/zzn/9cv3792LFjjx8/3qVLF+Rp/O53v7vssss2bdrUv39/RVESEhI2bdoUHR2dkJBw1VVX/frXv3799dcty1q8eHGrVq2WLVu2Z8+eWbNmQQlGCb1WrVo1b9782muvhbPW6/XOmTOnffv2I0aMcDgcSL5yuVxdu3Z94okncAECXEeMGNEY1sXFF/8qIXFhULeyHPE2iXqEoijBYLAB69+fA+o9Cr9uKgUXch4olRbaD2p2INSODAYhWhFxF/E4LqO0JSbkdeAgvR1XwtKIkBx6DhfSMELyQOodZ97PkpNJSJwSSP4TU/Jl3Ee9w7K3FGe2rEBVARstzlM+GbKhuV3h12lXZ6XqwHW7pba2FsWpKbea7mX2poAejweMSmRCNJlDmKXIQTE0Yj7i/4W8CznEdOP5gORkEhI/C3WF3F+m1et8g2R/6tvG4HT5SdQ7J8PTiHnwE9PPKXWd+JnI2EKYHDEhytagLg0pdoFuFxU+VicFnoYmRIwTmVw99kMIJCeTkJCQqE9Ywi4qVDm38TNdApQ2JvCkximciUremXOyi2YYJCQkJBoQYGOo8oWSsxcRGzMMA2yM/F6sUQaLogo2ym0jGYNyM04PqZNJSEhI/ARCAjGAi4h4IjOaKoaADTeGmMO6QOAJcmAUe6/5nywrczENhoSEhERDgQrDnzRWsJEDm4RAvxE9Z40QnHOwsbr160+DRvoxEhISEo0KcN4QG+ONY4fJMwR2CgwJzW+cagzsn4gDYvYepD8JyckkJCQkfgK0MwCz67+I++A0fqDxVKoDBxth+6E1Io8N5lwYG3/yRmldlJCQkDgLwMB4hlavxgMxr79xRi0SyAQKBnwm+WpSJ5OQkJD4CUAbw64IFPrR0I06O1iWRfWaGy0bQyMRnILyOmeYdi11MgkJCYlLHxdXsOXZQupkEhISEhIXNyQnk5CQkJC4uCE5mYSEhITExQ3JySQkJCQkLm5ITiYhISEhcXFDcjIJCQkJiYsbkpNJSEhISFzckJxMQkJCouFBNZmoOiLSv8QkMJxCPSfxSsp6BlCrEDWfxNvxG3um0HG6kSqAiLfQ2ZBcNOxGTW+nF9XW1tI19MALgEs5V05CQkLiokDIVtHijs+MMZS9OGlteNo2E0846b9geB6PBzVKqAo+PUrXdUVRcCNuCXkL+BltPC1u8I0Cibhe3MyTitlfGEhOJiEhIdFYgJ3DxGpSxHsMw1AUBafwm9gbq8Ph6F9N0zweD2OMtgnFKfwV+ZbITcWzdYs0hmy8QrtpsxMrOoq7P59vSOuihISERAMDpXKxixiMciG7xliWhb1OGGOmabpcLtq62rIs8BLRLEmWPTAY/AseQ2ofYwx6GBWygvKHI3gL7lJVlUya+IvG4C6wMdLbYHXknF8wNsakTiYhISHReABliMx9pJCRriOaB+l3yM6ZZFQ0TdPtduMs2JWu6y6Xi7Q34qBer7fuu6D5YcMw8cngatiqTdxKW1VVr9fLbG2MjI0XAJKTSUhISDQwwCF0XYemJZr1aFM0MtaJ1jxwi5Pu0kIGRlgCcTDE+xVyl+hmw0uJvRGXYoLF8qT/yfdYQAAAIABJREFUAhd4W2ppXZSQkJBoYICjuN1umOzKy8tnzJih6zq4EVgCtCvGGBSs0tLSp59+GoGI4kYzCxYsyM3NNQxj+/btYHg+n8/hcHg8HqfT+c477zA71nHjxo0ZGRnLli3DA91ut9frVRRl9erVtCn2K6+8UlBQYJqm1+vNzMxcs2aNrusi31JVFf/W1NQkJCSUlZUZhoGIjzPZIbO+IDmZhISERAODVCXajTorK8vv98MdpShKx44d9+/fT9Y/xphhGJGRkZqmkfsKDxk0aNC7775rGEbXrl1hBgRHrKmpsSzr6aefRlBJfn7+F1988Yc//OGZZ56BG0zTNAQ3Dh48mHOOgA4yISJG0TCM+fPnp6Wl0ebOMEsyxgKBQFFREVSxutGP5xuSk0lISEg0PMAPKLawR48egUDANE3DMDjnX375Zdu2bXfs2AH/maIoV1111auvvtqyZUtEf7hcruzsbMbY5Zdffs899/z1r39lgl3RsiyPxwOlze125+XlJSUlTZ48OTw8nDZlFjcwq6ioGDBgwKFDh8D2KF3M4XBMmTLlu+++W716dW1t7ZgxY8DtFEX51a9+9cYbb7Rs2dLn80GPfPbZZ1VVxQMpYISdnzwz6SeTkJCQaHhomvbss8++9dZbjDGPxwOzIWNMUZT27dtv2LDhpptuYoL3q6SkJCEhITk5OTIyEtwIfAtnCwsLH3300b179+JRTqcTjKRTp06vvfbaqlWrXn755aKior/+9a9Tp07Fi+AJIydcenr64cOHfT7f73//+zZt2jDGdu7cefjw4QEDBhiGQQZG8ofNmDGDMXbfffd16dLF5XKJEf+ixnmetquWOpmEhIREA8MwDNM0mzZt+vXXX5umCXMfYFnWk08+icsoNB/xhKqqgmEgSMTpdObn53fq1KlTp06WZe3evZtz/uabbyYlJWmahqft2LGjW7dub775pq7rc+fO7du3b/v27cFsmjZtCgWrc+fO+fn5ffr0KS4uLi0t3bx5My646667nnjiCafT6ff777333oqKCmYrWDNmzLj22mvj4uI2b978+eefo3nQzMT0gPMHyckkJCQkGhig+4iSF1OyGGO6rsNel5OT43K5KJOsefPmy5Yta9WqFWI6wsLCOnXq5PF4du/ePWTIEKg+5eXl27ZtGzNmTGFh4eTJk6urq6F1cc7feuutXr16dezYce/evThy5MiR4cOHl5WV7d69++abb77iiivmz59/xRVX3HvvvUhZW7du3axZs+CZ++CDD5o2bcoY27Vrl6Iot95669/+9rfs7Ozp06d/+umn/fv3Ly4uNk0TmiXZLcXIlPqF5GQSEhISDQxoLVVVVW3btlUUBTGEUGg8Hs+KFSssy+rUqRNKKeLv999/P3r06IqKCgRrVFVV7d69+1e/+hWzM6MdDse///3vZ555pkmTJjfffPMtt9zyr3/9izFmmmZSUtLUqVORbYakMWaHRCLmEMGNa9euXb58ORqjKMpXX3318ccfl5eXM8ZcLld+fn7Hjh0//fRTzvmf/vSnN998c+XKlaWlpVOnTl29evWwYcP69+9fW1sr5gzgM89HJIir3p8oISEhIXFWcDgcbrf7jTfeeP3114noi5UYgcLCwuXLl0+fPj0iIsLn80E90jTNsqyXX3553LhxTZo0QZChz+crKiqqqam5++678/PzH3vssfz8/NatW3fp0kVV1aZNm65fv15VVeSokfsKbAwv3bhx4zfffDN06FDYMA8dOmRZ1ksvvbR169aHH37Y6/XeeOONu3fvJuPh1q1be/Xq1aJFC8ZY06ZN//WvfxEPIwce1cGq/w6s9ydKSEhISJwVLMuqqqqKiYk5fvx4QkLCzp07VVWdOHHiN998U1FRMWvWrGPHjsFJhph4xDT6/X7OOZVVBGPDD03TPvzww7Fjx3o8nnnz5u3atUvX9XfffXfTpk3t2rUbM2ZMIBBADhmzzX1UaNHlchUWFn755Zfjx4+HqVNRlPnz5z/00EN33313VlbWkSNHGGMOh+PQoUNTpkz56KOP5syZ84c//ME0TcR9FBYWRkdHQ1/EByLeRIz+qGdwCQkJCYmGxrRp03Jycjjn27Zti4uL45ynpaWtXr2ac56bm7tw4ULLsvLy8jp27CgWDib069evuLiYc56cnMwYu//++8vLy1GVUXwLhfXj4ShVhVPHjh0bM2ZMUVER/sW9r7zySn5+fmJiIi42TfPrr7/u06dPXl5eUVHRwIEDCwsLc3JyEhMT6flZWVmzZs3C2YMHD1KwyXmF1MkkJCQkGhj5+fktWrS4++67GWM33HBDWVlZSUnJb3/726+++krTtOuvv97hcBQWFt588827d+82TZMcZtDSNE3r2rWroigFBQV+v980zdTU1HvuuQdFQxQBt912W35+PrOdVTiYlpamKMqVV155+eWXwzzIGEOWWFlZWYcOHa677rro6GjGGOf8uuuuS01NHTt2bFlZ2dq1a6+//vpmzZpt2LDB7XYriuJ0Ort37969e/cWLVqsXbu2devWF6aOsMwnk5CQkGh4iJERgUDA7/dTFURmu82oMCMXdl1hdioY1WlUhL3NuL1jixh2odil7rnttaLCj2JNLLwaZRXJlyaWfxQLM4Yc57bF8sL0nuRkEhISEg0PYglciIkAFwEDO2nEhMjt6j6QAi7AhCjyoi6zCWF1IeX2uV2hn/xqir1FJ/IHQvbnPGlN4fMKaV2UkJCQaGCIxXZJSWKMgR+QkRDmRFzGOSf+wRjTdR23wO9FTCsYDIKNaZom1qNiNkMSL4YnjApccc6hdaF4I6lrFK8Ii6KmadhERrHL86PZF7KCsNTJJCQkJBoYYCpwgBEboE3CQjZuxm9ROROPiAZDznnI/mTsRGshXUyMgHhbiKontgfFhUO2txbtk/8XhSF3dZGQkJD45YBsgGBjUKTAXVDDEJchuEMsXVhbW8vsbZ2JjaGyhsvlgjHQMAzYJ3VdJ05J7wXDI9Nl3Zfquh4IBNAecDjaLM3pdOJdIZwPbEzqZBISEhK/IJCGxIQoCZRSpH/JTUW3cM5hXayrAJGtT9M07JBJOhlMlKSrMca4vZd0iHssxK8W4smDbieqhghU4ZzTXtIXDJKTSUhISDQ8YJ0L4Rns1LZE/A6J2uCcU3AHXRNiXaSDYogjPU1kinXrjNArQiJBFEWBTsYv7LZkBMnJJCQkJC59hHCySwzSTyYhISEhcXFDcjIJCQkJiYsbkpNJSEhISFzckJxMQkJCQuLihuRkEhISEhIXNyQnk5CQkJC4uCE5mYSEhITExQ3JySQkJCQkLm5ITiYhISEhcXFDcjIJCQkJiYsbkpNJSEhISFzckJxMQkJCQuLihuRkEhISEhIXNyQnk5CQkJC4uCE5mYSEhITExQ1HyI412E60oVpzaQNdbVkWthVXVbWhWyQhIXGpwTRN+kE0B0ewTyZ+Y2fnBmnh+YCCnUPFzUYlzhPqblIu7usqISEh8TOBjafBzMQ9oxljPp9PVVXst2lZ1iVGef6PqmJvbDp6KfHqRgLTNBVFcTgcwWAQspKu65fYZJKQkGhYgI0pigLaYhiGZVkOhwMEB0QeZ3Gqodtbb/j/1kXoCpxzdESDtuoSBKYOY8zn80FucLvdDd0oCQmJSw1OpxMEXNf1xYsXR0VFLVy40Ol0gp/Nnz8/IiJi3rx5LpdLtA9d7FDIcqooijQznj9AMmKMcc4Nw8DEooMSEhISPx+apjmdTqfTCdpSXl5+1VVXcc6bNWt29OjRli1b6rpeU1NTVFR02WWXMVuBuQTggMnr///vcFwy39ao4HA4NE1jjOm67na7HQ6HaZqyqyUkJOoRHo8HbAyWw6ioqDFjxjidzqNHj7rd7uLi4srKygkTJkRFRV1ipF4pLCz0eDzQDxhjUMsaulWXIDwez5VXXgmtHyZcxpjL5WrodklISFw64Jyrqurz+ZgtNJeXl//qV78KBAJer1dVVZfLVVVV5XQ6LzHvhqtt27YtW7aMiIgwDANaAoJbGrphlxq+/fZb9CriFWHL5pxLl6SEhER9QVEUn88HWdntdluWFRUV9fzzzy9cuFBVVb/f//zzz3u9XhCfkFDqixoKYwyB+D//WQgAFX8wxkCsVVX1er10HDZcCudDKITL5UJLFEURw9PF33Sj0+kU/9IpDCHeglfXPQ5RBXldHo9HbKf4nPrlMWjJpcq3LMtKTk42DMPr9VKIlET9Ag5sXdcTExNJ3JRdfWFAvQ3qcRGxAV3XNU1r1qyZYRhut/t///tfixYt2IlUuvEA3XsOnVxvI4FXGobBOSeGQbqdx+OxLMvlcum6zmw3I4XTuFwul8uFJ1CcKD2Wov5wHCkRdA0xOWKNxCyR5Y134biu65Zlud1uwzAURfF4PAhOpafpuo6vkATizIFOTkpKcjgcuq57PB4MhET9AisoKSmJ2bmJipylFwrU1W63O0QEb+Rwu90+n++FF15wOBwTJkwAGwPVbYSOJBBnt9utaZoicIGfvLEedDJ6DT0EoQ1QdxCqB5ssKUOk9IBzMMacTqemaWB4otaFDD648eoGVZLWhX/pRjEmkNgSeJh4O5xVYJ94Ox2s9+hN5dLVyYLBIFILMEYYMmmgrl/QPEffoqtD0kAlzh8gOoC8iFpC45znYjg6jlRXV0dHR69duxZREQifVhqfIwk8QpzVZ6g7njUnC5EEMcB0PGR1EUcxTdM0TehAoHQh5S3QXHwGjgSDQdhzqYWKbdul3zgrPkrXdZfLpdiBFXQxtYcxFmI8pN+gyOLBeqzBcQlzMmZr5FQaR+xziXoELOSqqpJVXOKCQSQaISSoEUJUMELEfcuyfD5fMBhshI0ngZgxBjZxhry23qyLzz//vNvtRrady+UCw/f5fIqieDwen883Z86c6urqxMTEioqKQCAwZcqU/Px8wzAMwwgGg7Nnzy4pKQEby8vLW7Bggc/nsyxL1/WDBw9OnDgxEAgwxqDU0wBkZ2evWbOGNADOeTAYnD59el5eHud82bJlFRUVjLHa2tpRo0a53W5E7Nx///1lZWVEdsvKyvr375+Zmenz+aCQkRon8+p+EjCwkEgBJZtkDon6AigR7FqitaNhR/+XA6oXQVUNA4EA59xsrIB7xTRN0FhMIRzknNfU1KiqStc0HsABBGYWDAbR1TDynR5nzclC2DgZ8efPn2/aRZgMw4CTrLq6Oj8//9lnny0tLZ0+fbrb7QY78fl8Tz/99IcffgjOh76GxsYE+wkYT+vWrVu0aPGPf/wD0ZWMMcMwVq5cmZGRAQc4lIDS0tLk5GTTNAOBAPhojx49Zs+ebVmWqqrNmzfft28f57yoqOiGG26AEVbX9UOHDvXp0+f999/v1auXw+GAFuj3+9u3b79///6z7ZxfIODgpIFzuVxYNmfvBpI4HdDbyBYSO79hRv2XB9iWamtr0f+KoiCEraHnxUnAbLLssKEoCoizoijgCpRM1pANPQVM01RsrzCKb52JBaIedDK83uv14l+QNsaYZVlYeJS7ACkAguQtt9yiqmpeXh50OLfbXVtbq6rqyJEj27VrN3HixAcffDAmJgZW3ZdeemnIkCFutzssLGzbtm01NTXr1q2Ljo6+++67n3rqKY/H079///LycjLfoQGtW7fu2bNnfn7+/v37i4uLf/Ob32Asg8Gg3+9njK1du7Zdu3b33ntvbGzstGnTwPPy8/PbtWs3bdq0G2+88ed3ziUPWsz0m4rlSNQjKJzKsizIqoqiIFhJ4gJAURRVVcPCwphQUb7RShK8jkUOqxJcAdpP44z4YLayBG8F/Hln0s76jF1MS0sDUQP3SklJ4ZwjF4+KMXO7riPn/A9/+MPmzZuhvVmW5fV6fT7fm2+++dVXXy1YsOD999+/+uqrP/30U4j8qqpyzpcuXcoY27Rp09SpUznnWVlZq1evNgzj73//e/PmzZ1OJxIAMdXcbnffvn2rqqpSUlJSUlIwC8PCwtxud1RU1IgRIwYMGKBp2ty5c5csWdK3b1+Px+NyuRYvXpydnT1gwABE0dRX/1yqwOBifCHESAp7PgDSA1kVhnfWiCnppQcQKDHOmQmWxkYFRYjjIHuJaZcVBm+AZtk4swjQvTCbKYpiGMaZtLPevkRRFJfL9fbbb4Mt7d+/v0mTJjiIplCfUrXmG264YezYsdDGRLOJYke4Tp8+vU2bNk888URhYeHatWvvv//+3//+9507d87Ozu7Ro4fL5erevfvgwYMVRQkPD3/nnXdM0wwPD1dV1e12z5w5U1GUOXPm3HXXXZs2bYqKisLDvV7v66+/zjlftGjR888/jxYqivLpp59qmsY5Hzt2bLdu3RwOh9PpjI2N1XXdPGOv42lAVVQIprCNEE41ThHpJwHzhSI4wKGCkxxAjE107VCX4qtxHH/FdUgH0V34Kx4XbwnZfqmuIMLt6ip1BxSNNE2T7qJi4eJIsRPpF72d255aAtojfl3ILeK/EJPFrxY77aR9Lt5et5HnhpB3cWELqxDphI6LPjw6UvfrxFvEnfnEOY+FRvfSXeK76n6muPmWeAqvFu896TeeIdDhmNjEyUQPvfiX28GlYjtDlgPNw5CGnWp+hvQhO3HOnPQWLsS7UdFXEGTxmXXfSC2pOx/YyegVrAV0mThkzPZy1V0L4mXiu9BgcgafobhWb5wsGAwahtGkSROKFa6trWWMuVwuTdMQTEGDAaZF9cGOHTumKAru5Zx7vd6lS5d27dp1ypQpgwcPXrJkSevWrQcNGpSWljZw4MDc3NzU1FQEg+Tk5KSnp4NmDRo0yOfzaZoGN+ZLL72Un58fERFRXV09duxYv98PkQTmyrS0NLfb/cYbbxw6dKhNmzYOhyMxMREs7ZZbbvnqq686dOiQl5e3dOlSItM/s3/oq2nAsAw457BZU5ynruuXhk5D+elY/4FAQLGz+phAlfDV0O0oF5DZMZDQRTjnmC1iH8JSjVsU2xtPawPv0jSNVjukPPJzYKrQ9cgTgquP2ToQqmXCHYtdeHANSBUCZdnJItkUOyVfpCOUbSmawfEEiMloKu5FfihdKTqPLcvSNA22XGotbq/frYIgU2JB0WjiFH0RruFC3id6Q9QaxSqjpmnCE0GBxHgs+pl6Ek+m1cEYQ8Y9vo7GAheYduYohFF0EaWoMpvoE1v9+YKp2EXibik0XuLQU1cgSIRmGl0szkMMtEhwTNNUVRUfIiaxIR9A3LYX9BNdze1gci5k0OMI8Qaiw5S8Re40dCO+yBTi4Cw7LUpMFyaPEmNM0zQMGYVpIACCZC+8nS5D48n4ec4DUW+cDBlFtbW11OOYr5qm+f3+QCAAVcztdnu93mAwSCnSDodj3759l19+OUjDqFGjWrduPXDgwOzs7P79+3/00UfNmzdHIEbLli1dLtd1112n63psbKzD8f/Y++74qqqs7X1uS6WEJuo4FmAUpUXUQTqCBMERHQtSBAmEJKAoLaAI6UQQCUXpLaTQ1NFXHFFBIIWujmI64KAOhrSbkNzces7+/njes77NDfgqhBJnP3/kd+/NKbusvfra29C3b98xY8YoihISElJTU+NwOFAWBmoAiQcGBkZGRr799tvgC9XV1WFhYXfccQfYa3V19UsvvQQqX7t27c6dOx0OB+f8xRdfZHpddkPZ4GKaH61VEA1S/kCOyItpkDdeRxC/IF+Hn58fRgArGVMvapqgfng/8BB8pmWGVYqZRRQWSwgSAjwCDA4vImIAp8OKomUJnYYYjZdqTG1AjSMmRRSlBoOBdooRb0SX4Yegf+Et4gY3TEiRBatium6H57hcLvJvUwuJH1HfuX7QHf5iZ4TL9oorQtIpfnE4HPBP0KtFYwg9go7CdHcL9VE0kUlioami4YVMLorfMF0LIWGA+cWiAH+kuVD0Uhk8n+p8vFRPBOPRWqrSaShQw0DVyG4XmTLapmkawvNMDwIBip6agVAcE2w+SBGj0QgGSHshwVFEA8UYwwWiQgzpKGrhZBsx4eR6PMpisVAmCK01aiopf/gK1o0EdSI20hjERzHdAIXWKDJSKt6F6YIUiivhtA0ZJ3M4HGFhYRjQDh06OJ1OcCL6CxmGyNm0adM2btyoqmpxcXF8fPyZM2cwZGvWrCkoKGjevLnZbO7bty+6+vrrrx88eNDtdn/66adt2rRxOBy33XZbeXn5Z599lpqa6nA4evfuDVoPDAzE3BCJHzx4sKamJjAw8IMPPmCMLV26tG/fvj179sQEBAYGrl69Gm0OCwt79tln/f39FUXZvHlzw5b3EkEAin4EAeYPnxHhIyWoUcNoNJaVlQ0ZMgR69P79+xljK1asyMvLe+utt3744QdNKHVfsmRJfn4+Cafi4uLp06dr+qYwIPrU1NRDhw6J+1VmZWXt2LEDixkzTnuHvvfee4MHD66trWW6OMQIr1mzxmazYYTDw8MVRYHwe/zxxysqKmg1lpWVDR48+MCBA/gKESuuNJfLFRUVdeLECbBIh8Mxc+bMH374gemK+ZEjR1JSUiBsfvjhh5kzZxKTevPNN/fv34/eHTp0KDY2FqxKVVWbzRYfH19dXW0wGCwWS/3d1Ahg+vgMTgoZhlG98vgZsT9UWGqaVlFRERMTY7PZKGGY5DEaoKpqeXn5lClTqqqq0BLSVBRFsVqtcXFxJIfwY0xMTFVVFaWoKXogp7y8fPDgwdu2bcOgkezJzc3ds2cPnnnw4EF0H//dunUr9BWsrJ07d4aHhyM1hjQGYruie/MKQa45io8giklb6JGyAjFDdqEiHIbJ9Wx+ypsjejMajTibl+n1VRhAo9FIvRBdFFCGYMN5aWmQMRQhIy8IHgtKU/SDvWhy8UbSlpiu5JFeTsRG/gDML4gfaquPj4+o2MHDAf4MoxYdvxINoyHjZBaLBcIJYzFr1iwMlsVigfSqqqo6fvz4LbfcYjabn3vuufHjx9fV1U2dOnX16tUGgyE9PR3uIIvF4nA4NL30geksnhxTeKDBYAgMDFT1yomgoKDXX3+dXZgXnpqaumfPnoceeig0NBS60p133jlixAhMJGPM7Xa/+OKLnHOn05mampqWlgaFMTQ0FPYvdfAKpRpoGqEXAPyR1ChRJ/oD1LFhxvv06eNyubZs2bJmzZq0tDT47qA4p6amHj9+3OFwlJeXu1wuZIpi4f3000/BwcGkSUDkjB07tk+fPmBeWKWPPPIIpjI8PJzUVaPRWFxc/PHHHz/66KMrVqxggnXl8XgGDBiQmJgIBhcUFFRYWGi322tra2+55RZMkKZpp0+fHjp06Jdffjlw4EBilE2aNAkODs7Ly8MM/vzzz23atOncuTMafPr06dtvv/3mm29mOs/q1avXmTNnDh06ZDAYbr311qeeemrx4sWMsQ0bNtx11139+/cnAxSejLCwMJPJ1KxZs5iYmKCgIHQzPT2d6boOCTD0lIL25Kolfi06di4D9bkJuTGPHDmC4Le/v7/RaOzatWtubi7kEG3rQ9YhmaE5OTmKorRs2TI6OtrPz8+gHzNrMBhiY2NbtWqlKEpmZqZR2Ltu9erVISEhu3bt+umnn9AGsJT77rvv+PHjR44cwapfsGABVnp6ejpZZpzzuLi4ESNGbNiwAVopIguKokRHR0NkksC4cpAzsKqq6pFHHsGLjhw5wjlfunRpQUHBihUr8vPzyUtkMpnefffd4uJipvOEoqKi119/nWTekSNHFEVp2rQp+VoDAwNzcnKYrgZBwVqzZg1KbG0229SpUxVF8fX1tVgsgwYNqq2tpQ6eP38eOhk8XlCPmB7dTE9Px4YaIHKDwXDPPfecOnUK1mFMTExtbS1aTptIZWRk7Nixg+meFcaYqqqpqanQvdBg+kCmcGpqakJCAibCYDD4+/v7+vrCjkTLDQbD/Pnzr3QyQCVXCEgdTd+viIK3hYWFS5YsAe8uLCwcNGjQ999/j8u2bdvGGDtw4ADnvLa2Njw8/Msvv8Rly5Ytg5ePc+52uxMTE/fu3UsvOn/+fFJS0i+//JKdnT1nzpxu3bpNnjy5pqbG7Xbb7fa5c+eiMhqZjZzzI0eOMMbuv//+lStXMsbi4+M55y6Xy+VyFRYWdu3alYiSRFdwcHBubq5YUXiFowS3Az7Dm4/WvvPOO+IYQtul0WssIDEg/nju3Lno6GiHw7F58+Z169Y9++yzM2fORNl7Zmbm/PnzHQ5HYmIiSRqz2bxq1aouXboY9MgZY2zfvn14WmpqanZ2NtcpjXOemZmZlpZGDcCH7777LiQkBLWDcXFxIAAqDuWcf/DBB3l5ednZ2eHh4TU1NZzz0tLSyZMnl5WVaZq2detWxtjLL78cERExb9483FJQUNC1a9ctW7bga1ZWFrH7+++/Py8vD3eBfoKDg7/77jvOOYyYPXv2kNRhurrKGNu8eTPnPDs7e8iQIR9++CGeDJussrKS1hG8LlynGS4EP6hHDodj7969Tz31FKRsA0ynDvGBZ8+ejY6Orquro/HHv3Jyci6aCIcfsbo551VVVbGxsRhwPLmuri4uLg57FNADIZ8w8nl5eSNHjiwpKSGrxePxlJaWrl271m63T5o0CfTgcrlSU1PT09M1TSsvL//b3/7WuXPnjRs3du3atbCwkOsMZNCgQRUVFXjOlY8SE/avwoeSkpLExESn05mWlvbMM8/s2LFjwYIFp06dWrRoUXFxcXp6enZ2tqqqFRUV0dHRNpuN66W3R44c2bJlCz0HCQfHjh2LjY2l1+Euu90+b9489LqwsDAqKsrtdtfU1LzyyisnT5602+2VlZWTJ08+e/Ys7vruu+86deoEcU4hMUVROnXqhJGhy5YtW0ZfDx48uHHjRofD8cYbb5SVlWVnZ1PAyEtwgJhzcnK4sABtNtu0adOKiorE8REZKec8Pz9/1qxZ58+fp5cSkF3PAAAgAElEQVTisvp8j8b5t8xIw0gygqaXZ0dERKDDYAGwdTjnsFjDw8NjYmLwC/6Vn58/Z84cSOZt27YdPnwYt5N3G18TEhLwfM55Zmbmtm3b8Nnlcr3yyiuMsYiICLvdruql7BMnTgwJCQGf4pyrqnrw4EHG2MKFCznnJ0+eXLRoEY0jDeXixYtpMuqLscsYMcYYmBEmta6ubuHChWazuUmTJlRI3rATcS1RX5Kpqmq1WgcOHAi97MCBA4mJiffffz8GPCQkhBbA5s2b8Rk4e/ZseHi41WoVn6+q6pYtW0SRgA8kqDBxhYWF3bt3z87ORksw+9u3b8fII5KhadqhQ4ceeeQR8DVcBrNv0qRJxFg1TYP/ymg0RkZGnj9/nojk4MGDeC8OLdy/f39iYiJ4k8vlSk5OLi4u5sIaJpGzcOHC4uJitM1ut2/fvv255557+umnX3rppf79+9c3xA8fPsz1+hN6FFx29MsXX3zx4IMP+vj43HzzzfxChfKyp5I+OJ3OyMhIcDE4fqltnTp1KioqqqurE++trKycNGkS5o5ELz6cO3fu0Ucfpf3nwBYHDx5cVVWFh2BqEhIS4A5Bx7Ozs4cPH15eXk5jiAdOmTIlJSWFHp6ZmYlWHTp0CMPlcrkwrWC40Ieoa1euKYocFrZ1eXl5XFxcXV3d1q1bV69ePXLkyKioqPz8/OTk5MzMzNjYWFg5Yob2mjVrHnroIRpSk8kEfV1V1fnz5587dy4/P/+tt97inFut1ujoaLfbnZCQsHfvXrT/gw8+yM/PP3z4cGRkJMawtLQ0MjKyvLycc56enm40GufMmTN27Ni4uDj0PS8vr3Pnztu2bYPSjHelpaWhlgnX7N+/f8eOHVardfHixeXl5cS38SE9PR1KmPgjpoC0NNGsh8HNOT979uzw4cO9/kUfBg0aJOo0Fx3n/3NGGkySEbV5aW1Qprgufrjef/xXlHD4AOoUV5R4l/hBNF/o4V46V/3bRTXB65le11wKlzFiip7Z4Xa7Fy1aFBAQEBgY6Ovrm5yczOsNVKMTafUlGSIrSUlJK1euzMrK4px7PJ7Fixfn5eUtX768sLCQGPqaNWu++eab5OTkurq68PBwg771AP5GRERAkd++fTvCS3i+x+M5fPhwamoq/ZKenv7oo4+WlZXB3QFhA308IiKitrY2ISGBMRYXFycSAIBf6urqwLiB6OhozrnL5crLy+vevTt+jIyM/Pzzz6Gc1dTUvPbaa7NmzUIHkZmWnJz81VdfoSMpKSkUPGaCn7Nz584nT55MTU2NiYmJi4ujEbPb7bGxsSRiRWokgmR6nPyTTz7p0aMHNO7AwEAYdkRIVzKV9FK73T5z5kzo7wjD0DXJycnwfIh3nTt3LjIy8ty5c16sALZIfHw8qeEej8fpdCYkJJSWluKX0tLSkJCQtLQ0TdPKysomTpxYU1OjadqJEyfuv//+nJyc3Nzcrl27wllC3RT7q2kaGYhwfhYUFHDOnU4nanIw+KLadNmoz2ErKipCQkLwaoiu4ODggoKCJUuWPProo/TSLVu2iEZMaWlpREREWVkZ/aJpWmpqKl2flpaWk5Nz7ty52NhYh8Mxf/58uC6BzMzMkJAQkjc2my0sLIwxBh8VXUbOyfDwcEwBzTJ28oO8VxRl//79R48e3bx5s91uT0xMLCkpcTgcpM1gAEXjbPLkyRCi2dnZZJmIz09NTT148CBiz3BXFhcXL1myBBSSmJh44MCB0tLSKVOm/PLLL79lnC+FhqysNOhb0VPsh6iHMhqwRzCV0DIh6YWymxC7FiW2+FXTM6b4hbmqYmyckjtJB2RC0iC+UqouMrnJoyU63PklTse5jMgk51xV1XfeeScxMbGmpgZFb/7+/rAjuV5QbDabz58/T3lfWKtQl0QDXBM2TBOdn5p+lo3I+K42KFyMXmA84eufM2cOCh4458eOHdu0adOwYcOsVmvHjh03bdo0duzYr776Ck5zuNdXr159zz33hISEdOzYkenJ5eiXy+Xq37+/WIitKMqWLVvw3qSkJIfD8fnnn2t6nJwiZzNnzvzqq6+eeeaZjIyM4cOHf/bZZ263e+rUqWvXrhVJIi0tbfTo0StXrnzppZdGjx79r3/9KykpKTY2lukU2LVr1507d7Zr1+7w4cNjx44dO3aswWDo0qVLenr6+++/ryhKr169EPgMDAxctWrVxIkT8/LyLBbL2rVr16xZoyjKsmXLQkJC7rnnHrwU6UtlZWUVFRWjRo364osvOOdGozE6OhpvjIiISE5ORo6lOJW7du1asGDBiRMnUOiiKEqzZs1atGixb98+GJEU2P/t0PTTjjS9BNhgMDz44INMWIC0Qpke0Tx48GCvXr3oGjxq9erV6Iiqqt27d8/IyGjfvj1s2Xnz5okvHTZsWGRkpMfjOX369NSpU5OTk++++25N36YOO3p36tQpKytr2rRp/fr1+/rrr5cuXWqxWLKzswcMGKDqtQeMsccee2zTpk09evTweDwJCQnz5s07ceIEhpoSHxYuXDhr1qzLWxRqvUM2AC4cx9GrV6/hw4d37979wQcf7NOnT2BgIFIzFi9e3KVLF8aY3W632WzNmjVbuHDhq6++OmPGjJUrV3LO165dC10wMjIyKioqIyNj9+7dBr10YdCgQStWrFD0FDYI5rlz5yYmJs6ePXv37t2qvtG5v7//2rVrV69e7fF4Xn311VWrVmF8FixYgOcXFBT069fvX//6F+c8LCxs+fLlx44d+9Of/oRUkeXLl7dp06a8vByRbIS6fXx8Vq5cmZycjN25MjIyFEV54YUXmM5gmS5sKPPgq6++OnXq1PPPP2/UC40QD6Nc05SUlOnTp4NsoAVq9Q4q+b1oSEmGtoIdI+xssVhoe3t8xWdRCBkMBnFESBkHQ+T6CZn0HFXfypP+anoON10DgqOwJyXJML3YhcQVXq3pScMkfVEqdCVZofURGhq6detWKkJyu921tbW08yTTPag+Pj4U7EVqA7xqaBuiqfQ75e9SzFbEZUjc3wvOucVigW/NIOSaM8a+/fbbTz/9tH379j169Bg0aFCvXr2eeOIJk8kUGBhYXFyckpKSmZlZUlIyduxY8MFXX331o48++uc//zlt2jQ8wWKx7NmzB4keY8aMGTVqFOd827Zt7du37969u+jsioqKMplMKEzx4vsWi6VHjx7//Oc/GWNVVVW+vr5Ine3SpUt4eDiW+pQpU/785z8zxlRVNZvNo0eP/uabbxhjqampZrP5+eef93g8y5YtIzpJTU0dM2aM1Wp98803DQbDvHnz4uPj3W53//79kU7COa+trRV1Mixpo16Rpmna5MmTDx8+/MUXX7Rs2bJXr15vvPFGnz59cH1lZeUbb7wRFxeHOcUtVJ+wYcOGo0ePgipIfYGQgD5EBQ+/HbQWsKAQ3v/4449rampQcEnZd7i4a9euTzzxxIMPPkhD7Xa7HQ7HnDlzYmJiWrdurenlgCDm1q1bf/zxx0ajsbKy8p133omKikKNKXrUvn37f/7zn6B5rvtRQdWccz8/vzVr1pCO4nQ6+/Tps3DhwqFDh6Jtx44dW7duXVBQEJgACKx9+/ZWq3Xu3LlxcXGtWrUqLi7+5JNPFD0//vcubaNQvsZ0PRgDgllo0aLFvHnzMjIykFmWk5OzZcuWgQMHWq3WHj16rF+/ftSoUd988w3Em5+fn8lkWrFixe233/7000/fdtttWL8Q3rt27dI0LT09vWPHjvfff//p06dpZWGIXnvttWeffXbnzp2c8ylTpqxatYoJnDA9Pf3ZZ59duXLljBkznnzyyfz8/Ndff33evHmqnhHduXPnjz766E9/+pOmaV988cXAgQM551artby8vH379jabDXUv4J8xMTGoteX6oTaMsbFjxzLGYAYkJCTMnTuXiivoaDGMGBktXK+GdLlc48ePR5YKNuOldJj6isJvR0NKMrQYzSI9ncoA8dWjb82n6qfVMd1WA5mSNMIwKXqWJ4kxTCflmyr6hiAGgwHX4HcIQvwV9VM0BuvBx8eHjDAaRJKI4iEvDQJk76xfvx5U4nQ6mzVrdu7cOdFCZf/XqShkjrArS1ptKFBrMQtiabPVamWMqaqalZX17bffPvDAA+vXrw8KCvJ4PA6HA+YOMlzy8/M//vjjqKgoxtjQoUPxkKysrLS0tIceeig+Pp7ymmiHAkVRsGYYY/Hx8XPnznW5XGLJLSbdS++pqamx2+1IfmvevPl77733/PPPJyYmPvzww3369MErVFXNyMiYPXs2usY5HzlypMlk6tix4+OPP871DDTOeZMmTbheIDVr1qyFCxd26dLFz88PTN/X19fj8ezYsQMCGNQ1bdo0lDxHRkYuX76cQvE+Pj59+/YVBxYFDOJJ60QkH3300Zdffjlz5sy8vDykYpeUlCArGBJIPB3pMiaUVAFFUVatWrV69WrxAtF/wDkvKipauXJlUlKSn5+f1Wp1OByowKurq1u5cuWkSZNKSkqee+65EydOkP3EdB8vut+hQ4ePPvqoQ4cOsGih20GAoehYLMrWNM3tdm/YsGHkyJGxsbFJSUkVFRWLFi1at24dMYqamhraNNVoNJJpEhMTQz4h9fcXuuAhGF6mFykTA8nJydmzZ0+HDh369es3ePDgvn37DhkyJCAgoEWLFocOHfrwww8PHz78ww8/jB8/HgQ8c+ZMOMyjoqIUvfzg0KFDAQEB48aNO3HiBOkiwcHBy5YtY0LuPpYb2NeUKVPat28/bdo0znldXV1UVBSKZcEDJ0yY8OqrrzLGUlJSfHx8RowYoSjK0qVLYQNlZWXV1dVt3759wIABRqNx48aNiqLU1tZiW0EkysfExMTExDDGHA7Hhx9+aDab8/LyZsyY4e/vv3Xr1pycHOidVN3MGPvPf/5z6623Mj2llnL3sZr8/Py47iT39/dH9Pry1AsRDVlPxgS+duzYse3btxNPwayUlJQMHz4cep+Pjw88s+ihxWIZNmxYaWkpXByqnt8ZHx9vtVopcxQXo84aX6urq8PDw+mEBapPBIM4derUW2+9hRbabLa4uDi4j1HcxvRsZqzerKyszZs3M1360iEvDQKDwXDbbbetXr36559/DgsLw8i4XK6lS5fSNbS1h5eI4kL+JBlbdI2XF5Ecx+SFu6pAYxCkFCt/4WQjIRcZGZmbm9uuXbuWLVv6+vqazebKysrQ0NDIyEhFUe69997Zs2crirJmzZqXX345PT0deYkrVqzw8fGhHEJN05KSkmbMmJGYmIhFiHl/4403xNIrRdiYQDRbFUUJDAxMTU09cOBAnz59nnvuOTDldu3aoRKD6fJv7NixiFlu3749JSUFaa6YNdigdXV1WPPQ24xGo6+v7/z58y0Wy48//qjoGzdwzn/++WdkecDJU1RUBBJduXKlQa+FZ4zV1NQgvwPdtFqtt99+uybsggEeSsPep0+fr7/++n/+538efPDBFi1amEwmZPlDA7u8ejKR2iGrysvLJ0+eXFpaGh8ff+jQofLy8tdff/3kyZO1tbWLFy+2Wq2Knk9v0Ddz8vHxgXrh7+9fV1dns9nuueee7777Doy1oKBgzpw5M2bMeOutt2pqajwej91uz8vLa9euHQaW9kwxmUzV1dWQOkzfIkfTtKqqqtDQ0L59+7Zu3ToxMXHkyJEvvfTSmjVrmjRpQgPVpEkTRMgqKyvHjx8PZ35ubm5QUBDGkGLqvx0UwwYDwShRwY+ql3m53e7MzMyhQ4f27du3uro6KCjI5XL5+/tHR0f36NHj+eefd7vdhYWFCxcurKure+qppz755BPcvnfv3kmTJnXr1q1z586HDx92u93btm2D5+3rr7/u1KkTaJjKmcEDMzMzbTZbq1attmzZoihKcnLyAw880LNnT8gGk8m0efNmUH54ePjIkSONRqOfn9/atWudTqfL5SoqKpo/f/7KlSuPHj06fvz4UaNGwZ2I40SYUMHGGFu6dKnL5Xr66acHDRrUtGlTmFDLly/HkAYEBOClDodjz549qAFHyQ3YKaIeIP5NmzZBZXnjjTc45yjquEJm1WCSLCcnB9aPn5+f2Wzu2bMn/KQGfav7lJSUtm3bfvLJJyAFu92+ZMmS3NxcCvzs3r27TZs2ml6sB5upQ4cO7777LtE3uHNeXh453Fq0aLFu3TqMrI+PT0BAAIU3mV7lxvXIoclkKigoGDFihJiKxvSS+3PnzonOSdbQ55OB6Nu2bfvuu+/+/PPPUVFRLpcrOjra6XQqwnaFRK8E0W3I63n5ySdDerTomWzA9l+qU9iNzKjXS4LEwbmqq6v37dvXq1evefPm7dix429/+xuomXN+9uzZli1brlixgnNeXFy8bNkyj8fz4osvTp06NSMjo3///tATae7i4+MNBkOvXr26du06YMCAzMzMBx544Mcff0QzyGSHLgWSExuJ5/zyyy+zZs2aM2dOVlaWxWJZtGjRypUrw8LCkBiGi1VVxfpH1eOECRNAXevXr4e54HA4JkyYoChKq1at4Agy6FFVeNhatmzJGHO73ePHj7/pppvatWsH0g0ICFCEfb6xNPCvwMDAHj16YOL8/PyCgoJOnz4N2SxOIgXA8JzBgwcfPnx469at99xzz+rVq0tKSphey3yFcLlcJpNpw4YNY8aMad26dd++fffu3duqVSvw2cDAwCeffHLTpk2aptXW1mZlZSHxpEWLFqtWrWrTpg0Ky2BhQLChkuHtt99++eWXmzdv/sgjjwwYMCA+Pl40N1W9CBfjQB2hzBen0+nr6/v555/ffPPNM2fOvOWWWzp37gwz6OTJk0xXdmtra++55x60Z/369U2aNDGZTMHBweXl5UwItP8uYMpUoRbNo59eBH5FsQmz2Tx58uSffvrplltuadmyJea3oqJi3LhxyP2577775s+fbzabN2zYMGHChG3btuXk5Gzfvn3p0qV4OOadxInH42nWrNm8efM0TfP394dOY7FYNmzYkJmZGRwcjL1nFUW54447xo8fT4FGl8s1evRoMLp169ZlZGQg9SYiIsLHx8disYC2CwoKZs2aNXv2bAzLQw899OKLL7r1s5uNRmN+fn5wcPDx48cR73z44Ye/+OKL4ODgBx54QNEL84ODg6Ojo41G444dO+64447PPvtMUZTU1NRnn322Z8+eMGYMBkOTJk0YY2PHjsWEwudZV1dH1ZBXBK2BMuWQ/2qz2ZYsWbJ27dply5atW7dOTLs6f/78hAkTIITItUgICQkpLS1FRJEKzpkgTnB9QkLC/v37kSej6tsKlJSUgNw3btx49OhRznlGRga2XkxOToYLC2Lj3LlzJ0+eHDlyZHV1dVZW1kVJlj7s37+/QUaGX5iEQ6mbNTU1ZHB4lVzUx0X/JaZ7iL9QPkhDtf/XQaoitQE5UcHBwUVFRTabbcKECZRztXPnTkzutm3b0NS8vLxFixZxPeXJ5XLl5+ffd999MFMSExMVRUE2l8fjee+99w4cOKCqam1tLdKuYmJiVCFdVtO0zZs3b9q0Cb+ICrjH44F1FRISYrVaKWEVCfdIVjx58uTbb79Nt2CrGq4XunLODxw4sHXrVs55bW3tnDlzTp48WVJSMnjwYFAOZXBt3rwZ7Vf1FLtFixbBH4gLXC7X4cOHFyxYgATLQ4cO4XdVVcvKylDiBlNAnF+RkMR+4dSIK8x9xe1QNU6ePJmUlITfz507N3ny5JKSkhMnTsyaNQtDmpycjEoV9EgcZ7fbbbPZEhMTS0tLUbI5efLk6upqznlZWdncuXOxsRwW4L333nvq1ClVSES0Wq0TJ05EDieVWNBIojQ4LS3N5XLh1bW1tVOmTOnSpUtubi7GWayXwu0FBQXLly+/8hWh6ft0UE/R7Ozs7BkzZoSHh5vN5qioqJCQECToLl68OD8/v7i4GJor5/ybb74BgdXV1Z06derRRx9ljKGoQBNytVB2whjDWYn4b2xsLCb6wIED2HIWNUX333//unXrFEWJiYmhSSwoKOjevTuJXjBVi8WCCgoMbHp6enBwMNwGmpBM7nQ64Q+Ljo6eNGlSbW0tJG5cXFynTp1OnTrldDonTJjAGEtMTMQbkeKPKim73a5pWmJiImMsOzvb7XZXV1cPGzaMXXiAg6IfnDJ48GDKYhVxUWq/KBpMkuEhcXFxcL9mZWWlp6eD5hISEjQhtZdzfv78+YkTJx48eNDrdvrgdDptNtuMGTPy8/NdLtf58+edTicxyqysLCobrKysHDduHIje7XZv3bo1KyvL4/GcO3fuhRde+OCDD5YuXco5hx9DzPqlpwH5+fnh4eHJycnYJ+bKB8QLmBKRi3GBcYgLjOpA60sp3kBl2g0ITc+ZJJoTRbIoYMj45vr6F/PguZ7FLnZN1ZPjxXepQg4nFwQ8PVD8F91bv2q4PtMnpkkvEr/iLxU/4RaUVYjPQbkrtd+rSV6jkZWVhSz8mJiYQ4cOaZqWmZkJBQ71jl7jSSYvF6oINCGv9bILE+leon96lNPp9KJP6mP9MReXFQ0+/YjSKy4sBABSkIQZJstrhVKBmhcBeHWZlCG8xWsqRVH9e8dH/Mr03aG4bohHRER069YtLy8PChZKwm022/vvvw+unZKSgg6eOnUKfIbrax/C/tChQ263OyMjAyoRVYlxzmtra0NDQw0Gw5AhQ86fP0859xMnThw0aFBVVRX1C4IN4iQvL2/x4sXUWSptXLJkCUoe8/LyRowYQcwT1xQVFQUHBzPGpkyZQjVeCJhBLHFBvcNLIbFeeuklKCs0F2DjL730UmZmZllZGYKjtMk7DeYvv/wSERFxhVn4DSbJUKxzUcsGH+Lj47FbDLtwE0IyKk0m08SJE7GJgNVqHTlyJClW+fn5gwcPhkbsdrux/554O8l5g8FAAjIlJSUqKiouLg41Fl5AvRHnXFXVoqKiESNGWK3W/Pz86dOng6V6LaQrBDkARQWTX7hCGmmJNJYK8kvxC7VflB8kcryKjUS2QhyHOJ0oRbxEuDh04meRl/F6MkzkZeKVXnWNYhf4hezSy3qmV9OLvCQ0XSy+rr489rpFrI8Ue1d/weK/dH39t/9GiGJb/EXswkUbT+8VxTnXjwuo3yq3flKSOKEXpXx0ShTVlxoxmiaaFC/tmV84fb8XXk9DCIDX0029yLX+c+rrNPSXSpXr0xU+0AX1HyiOp6bvTXHRjtRfdKJKJF5DbatPGNQSr8H0ajm/cPC9hqX+dNSfmusgyTjnlZWV8+bNQ0I2daCurk4s9uScO53O999/H59FUxql4Ha7/aWXXhLNYUL37t0LCws9Hk9OTg75cCoqKsLCwkitSElJgdaAr8XFxeQpKisrGzFiREFBAdGKy+VCMWxYWNiaNWvCwsJsNlthYWHnzp0zMjJ4gwqzBhznGxDaxXarkmhwyHG+QfDbOazEleC3j3ODZQTAv3T8+HHsMUoVUU2bNoWfFJd5PJ6dO3ciGZQSnxRFCQ0NJcsM214UFRVNnjy5trYWu2jX1tbu378/IyOjqqpKVVWkODO9LFfTkyQp1MkYq6mpmTJlSk1NDQpIf/nll6KiouPHjyN4q2na22+/3bNnz8jIyLVr14aFhfXv3//DDz/8y1/+8u233yKsip0hJSQkJCRuZDSYJEN1Rc+ePRHTIrWxuroaWzPgsoKCgqysLCRfcs6x573H4yFfH/ZOZoyVlpa2atUKyZ2aplkslsDAQOwUbjQaX3vtNUjBNm3arF69unXr1sgTGTNmDBKy//Of/0ybNi0yMjIoKMjf39/tdu/atSspKam4uLi0tBTiMyoq6uuvv+7cuTNjzGq17tu3D/vNcM5HjhzpdDrHjBnTUOMjISEhIXGV0JA2maIoWVlZgYGBgYGBVMGDtHjYZIWFhSkpKSNGjIiJicEF2OcfuypAgKHCxmazpaamYkMaph+3yhjLzMzEER60J15FRcXEiRMrKyspyNSkSZOlS5du3rx5woQJ9957LxyYBw8ePHPmTN++fQcNGoSjZ5A8mZiY+Pnnn8+ePbuqqiohIWHq1KkFBQWapi1ZsiQjI8P9hzi7WUJCQuKPjYasN2rVqtVnn32GsLCYaPTxxx+3bduWc75v377XX3/d19c3OjoagUSK06L+FBXT1dXVTz/9dJ8+ff76179S9bufnx+E5V133dWzZ8/58+fDgON6thUu0zQtNzf35ptvnjt3bu/evRljiqIUFBRs2LBhwYIFFovl4Ycfdrlcixcv5pwjGIYztGpra2+66ab09PQ///nPc+fOxbbNqDaVkJCQkLjR0SAB5Li4OPGZVJdK+1RB9nDO9+7dSyXAdL3JZEI9zfz58x9//PGSkhJ6Mo4uoyvFraxhb8XGxtJGU4qidOvW7ZtvvtH0Uwy6du06ZMiQs2fPit3EFizIO1JV9c033xQLaadOnVpdXe2VKHyFaKhxvjEhMxGuDeQ43yBgMuPjmuC3j/P/bqvTAPXVwr5wmr5HBudcVVVxswlV2ORQEzYYtNvt2OCEMYYNDzXheHXa3AwX4MBor/04yGGo6XsuKPo2xNRCVd9bXdE3dcXOArTngqpv1ao09MHNYEANMs43ILi+N+4ftYM3COQ43yBQhL3/Ja4efvs4N6Qk0/QdV8XNZAF+4Q654halsKtot3v8lySKuCOt12Op2aLEqi/AuF7LJfaRBCqJUrGpTDgCpqFYhpRkElcOOc43CKQkuzb4fZIMl3r0U1QU/SyGq9vG3wmuHwrALmb83fgQp0SU1te3VVcOLhzEwzmHOvLH6NqNCUU/9+TytgmWuGyI/iQpya4SvHij8Tcftve/Z3Gh/Av33OA8iDrZgAbTNQDcnl7GIrsxTma5Qnj0ozWZcKqhxFUCFE2MtpRn1wyicgaVmtw217VdfzTA5SCyEVU/hPnXoSj6BvNM2FnqBtSpEZtXfwsAACAASURBVOWGuMYhVeKm4Dc+RCXO4XDgaJvGJYwvBbEXdXV1/v7+17c9f2DQUNtstoCAgOvdnP8uwFzAicH45Qbkk40dXk5BfP0tXEVhjN1+++20UwaExEVPD7m+sFgsqqo6HA5/f3+cxosDqRuLJPjhhx/EIfXKPWm8UPUT6A36EdXIl2ksXt/GAlU/fpdSqESWKnG1wYXzRfELktRuND7Z2IFBpuOUTSbTbwwhKT/99BPXt63E+fF0GNjVb/bvAM4P9Pf3r6mpueeee86cOYPTaa93u34rzGZzmzZtsAxw9NofiRMhcoNDhG80yvnDQFzS0q94HaEK591LXCXQoeS/0XelYF8MJA0yxgwGAz3imjT4t4JSPBhjFouFzqK80dp5KZC9/Mdj9F4cFiaa5LNXCaIMk/LsmgEn/vj4+NBCBqn/8ZbzdQcNLPH23zLI/5saTlnvN/LckKwVi8Bu2NZeClDoYAE3xvZ7gVJeEciUjPXqAdRCpSN/JJu+UcAreCPH/+pBzGD0yuG4FAxYG/gCNnRjbjaIdA/6SpXX169Fvw9c3+bDaDTS8WyNXYwxxuDIhrMF9IOtMiUaHFSsiTVLR0BIXAOQro+vnHPRMyTRUACfhJVCesNvipM1ImEAyOJQCQkJCQkRMmgpISEhIdG4ISWZhISEhETjhpRkEhISEhKNG1KSSUhISEg0bkhJJiEhISHRuCElmYSEhIRE44aUZBISEhISjRtSkklISEhING5ISSYhISEh0bghJZmEhISEROOGlGQSEhISEo0bUpJJSEhISDRuSEkmISEhIdG4ISWZhISEhETjhpRkEhISEhKNG1KSSUhISEg0bkhJJiEhISHRuCElmYSEhIRE44aUZBISEhISjRtSkklISEhING5ISSYhISEh0bghJZmEhISEROOGlGQSEhISEo0bUpJJSEhISDRuSEkmISEhIdG4ISWZhISEhETjhpRkEhISEhKNG1KSSUhISEg0bkhJJiEhISHRuCElmYSEhIRE44aUZBISEhISjRtSkklISEhING5ISSYhISEh0bghJZmEhISEROOGlGQSEhISEo0bUpJJSEhISDRuSEkmISEhIdG4ISWZhISEhETjhpRkEhISEhKNG1KSSUhISEg0bkhJJiEhISHRuCElmYSEhIRE44aUZBISEhISjRtSkklISEhING5ISSYhISEh0bghJZmEhISEROOGlGQSEhISEo0bjUaSaZrGGPN4PIqicM7xt/5lqqqqqnrNWychISEhcd3QaCSZwWBgjJlMJk3TjEajw+FQFIUxxnXgMqPRaDAYpDCTkJCQ+O9Bo5FkJKs0TdM0zdfX1+12M8YUHSTP8PV6tlVCQkJC4hri4j66GxOcc1VVTSYTuRbdbrfZbIazkTGmqqqiKLDeJCQkJCT+S9CYJJnH4zGZTIwxo9Hodrthe2maxjk3GAzkbGSMSZtMQkJC4r8HjcZ8gRhD3oemaQaDwe1244PRaGSCDGtEsllCQkJC4srRaCQZxJXBYICgUlXVYrEYDAaXy8UYUxRFZnlISEhI/Hei0Uiy06dPt2/f/tixY/AcGo3GI0eOdOzY8ccff0TqB4XHpE0mISEh8V8F0/VuwG+FzWY7c+ZM7969H3/8ccbYsGHDMjMzbTYbbDKmp+Pf4BEyuEPx93q35Q8LIgOQhBzwqwRVVY1GI3n1PR6P0Wi8wRfgNQOlp9H4YLiud7v+sGhMUaWRI0du27aNMdakSZOamhpFUZ5++ult27ZhOaHOjOnS4no39iJQVZVzjqQVkDXlsEg0FBwOh6+vL30FMUgmcjVAmcNM5lhdGjQ+GK7r3Zw/LBTkUNz4UBTlxIkTPXr0cDqdqqqazWZN07777rt7772XMaaqKtIXvVShGwcwDhhjDofDbDYbjUbJXq8SMLBOp9PHxwc5rjcgPTR2uN1ui8VCwkzTNFkA4wUxrRoD5XK5pDC7Smg0NhnY01NPPfXhhx+ipGzYsGH/+Mc/vHwaN7KD0eVymUwmg8FAptiN3NpGCtE6x/BKjeHqAQIMNCwdDF4QlzkpshJXCY3GJgN7ysvLe/DBBx0Oh8FgOHHixF/+8hdkM6KwTNM08t3daHRDkRt88Krplrga4Jx7PB6z2XwD0kNjh+guI0fIDevYv/bAUIh6tuiMlWhwNBqbjDHmdDrNZvNzzz33/vvvP/PMM9u3b29cy8bhcFgsFhK3MsBwNcA5d7lcPj4+oikmzbKrBNEmk2LMCzQg0ia7Bmg0kozI4ttvvx02bNiuXbu6deuGrfEZY7THB3zTNyDbEs0vyVivHrzMXJyNYLFYrmOT/pAgL64UYP8nKO2I2JREg0Pp37//9W7DbwKWDZJ9sXI8Ho+Pjw/t+gEBBjfj9W7sRaCqamZmpsvlAleVatpVAqwEYrIDBw60WCx2u12qDg0LzrnZbHY6nbTo9u/fL73lBAxF//79Ef5QVZXyj6530/6YUBhjmZmZ8OHCfQde0GAvUBQ8EMYf8W7aMlFRFOyjyBijJHW3243zWUwmk9PpNJlMRqPRbrcbDAZfX1+bzebr6ws/EnnqaUd8SDKDwYAdQHx8fFwul1g3jSQrcfura4ABAwY07MBKXApQgYnesrKyEEO96MWohcCVyHikWg6TySQmm1GGHt0F0sWToUiBpE0mk8fjIU2FgrgGg8HHx8fpdBIZmM1mcDdN03x8fOrq6kD/tF5o+aAxnHNkDOJdoGSn0+nr62swGBwOh9h4Wl/Q/3x9fe12u8VioTWCBFqmLxasQYQV6UVMT7vFX4fDAfURrBlDZzQa+/Xr53a7ZcaHCMRoDxw4gEEmVtYgD1dVNSAgwGazgcZAkET2RD80j0QS7MKYPUioPp8EXZnNZpPJRJvcMiGLinOOBiiKgrRMX19fh8MB4qfgNOKpSB6mwGoD7imIpdG7d2/Fx8enqqoKJThU6tiwuxeKuWRMX5zirvZ0AbvQ2+7xeFwul7+/Pza5B7w2vBeXJRKv6TmYPJARbqmfGyLmFzVUfy8K1OdKSXa1QZ5bWL0+Pj7V1dX+/v6Xml86uJUWHpGEWNoBEhWrgHENBfbBp0B+YiqE14yL5W6UmQ0zHeSBdcHquaDBDrwcp+JqFRcRYwy5BkyoySXVzUurY0LKBv2INUL2Fq0d3Cj+AoWyZcuW58+flz4GEZqmNW3atKKiwmKxKL96PvBlQKRYmjIKyzFBXNH1Xm1jOlO6FJ/ElWIZHAiJXgQ9T+waZBi9pX4YBVcScTbIONjt9qZNm17QW+okSeAGARQ3URkR1z/WtiiQqAYIF3sNBy1LkmdeTQVrIPZEl3mtYXEsroGvn5Trq/oWCa+k0P+Td4BaxAJqL3rz4vLsQnqDTiauXlqrMHRoNRFHuCixiSnstEE2LDbaI5vpxE8szCurBRFBsCQS514y2GusaDtT8Xd6rCgsVVVFX0hAih1RFMXpdMKJ8iuj/d8Dj8cDO5vI72owGS/tR9M00LP4IpAWuRBEemaCjVWfT4o0CR8DCBivEP/rRaXoshfhiVTdsIPA6JRKTdNI2IhqWoO8g1RFDBbTl42oIXrNsddQiltjOJ1OKDjiK7BcKU7G9BVILkrygdB/yVtCqW7SJvsjgXg9GQ2XWj8kY2hlglpwI1gA1gWtf1rJWNvQasnrKD4cq4nsMPpAr/BKAYC0gGcGPgb41cULRJcgHuJyuYxGIy7z4hRe5lR9HiQ+VsyWwqKjd9WXT9Rlrhf/NpbcsWsJMpdF11yDPBkuZSZwS1GtgRylRCeRq5PZJHr/LsonWb0dc+gt9LtXj0R3F7twjwJ2oYbUUEId3Pv/uz6pQVcprU7sA/kJ8ZXp699mswUEBNDa8zJUxcmgsSPPzEW1SPIU06jh4WS04V/XJpNQ2mTXDKIP5P/ksKIdJlIjgQu7xni519jF1guCDdDA6Mmi50e7sHCbX6xsgF1I8LiLQshYF2AQ9XVqprsWxcgWrQJRNaZXeFmWXmo7u3Cd1jfvSCmUxdEEDMVVXfXiBiuiL0GcBSIPyuDF5MJhQNewenwSD1f05CnR8BDd70SWSr0tCLxsQXY16zT+vyTDd6LXBtxVBbvaXHRtiNaoKKXqVwJ5KQKAqGCKl9VfTpTPQlE0fBb9qNIm+8NAtEsUPTr9K0tIEbaoIP2G6T4TSAiiQLEiUHQYkmlyUcXIKzQLBgHnobjQKC9XjEJ50YyX6PUSfuTSueg6Eq0uCq6IS0C8CwF/t9sNQUjDIjZMjOGL2QQSXE844heebt+Azxeng+aXCcRz0bjMryhh9fmkaBjgF7q9vliit1NMl1gxEqnAqEE8DSXS0EKDKIQ14dTKBqy/sVgsyG+x2+0RERFkkPn6+uIDtANFUSwWS0xMjMPhSExMrKysdDgcM2fOPH36NGPMaDTW1dUtWbKksrLS7XZXVVUNGTLE399fURQoDnA5+vn5GY3GIUOGVFRUZGdnQxfAf41GY2BgYFZWFmPM7XYvW7YsOzubkmK1GzJxX+LyQAojvooe/PpAgOfw4cPwUcBNB8r08fEJDAxMTU1ljLlcroiIiCZNmphMpoCAAFzTtGlT3DJlyhQ4G1evXl1TU6Oqqs1mCwsLIw9nSEiIzWZjjMFheP78+SeffDI7O5scCdRyMf1M07S6urq4uLjy8nLGGOecIltimmVZWVlkZGR5eTmxG7g0z54926lTJzQAnMVkMplMJiy9Bx98sLi4GBfHxsYePHgQ94oMcefOnd988w2OmyC+Se4ykZnSextwHhs1aChEkdaA41NdXR0SEgIq3b9/v9FoXLJkyalTp955551vv/2WfN0ej2f58uUFBQWkwZw5c2bmzJk1NTWIv1yKT8LTuGDBgqysLEVRVq9eXVpayhjzeDyTJk3CexVFeeSRR6qrq0mTKy0tffzxx48fP+50Opm+EqEMKXpo6dfX4+8FpUEZ6AWgeIqZKQ0ETdMCAgJUVW3SpMnq1avdbjcWg91up1VRUFAwa9asmpqamJgYTDnn3NfXNzQ0dPfu3ZRMjPRlk8nUvHnz3bt3O51OXJmcnJyXlwcvjdPp3LNnT8uWLXv37s05379/f1xcHPwedru9S5cu8fHxYDSYDFq0DdXfS6GhZk7i10FKn9dq+ZV5QTb5pk2bKOAKqKr62Wef+fr6aprm5+e3evVqp9OpaVptbS3sPNCwqqqrVq2CGjto0KCEhATIm1atWp04cYJzXl5e3qFDB6xtHx+foqKi/v377969u0+fPtDGIMC6dOlSVFREvkfYZwEBAXfddde7776LXlBKZFZWVkBAAOi2bdu2a9asad26tY+PDxb2wYMHfX19z58/HxoaCk9RWFhYdnY2FFabzaaqat++fcF94A4tLy+HUujj49O5c+f8/HwYZB6PB2oiusyEXQgUPYOgvr9RggnZg1wI4TcUP9E0rVevXk6nc9OmTevXr09LSwPpgt9u3rw5JyeHMVZRUWGz2W677TZFUcDYf/rpp65duzZp0gThm0vxyQULFqCoAxyyX79+ycnJoPxmzZqdPHnS6XSWl5f/5S9/obSDkydPPvbYY5988knPnj0DAwMVPQzco0eP/Px8omqilgYBjbbBixAbPPtI0bUDfmEOWH2xzPWkL0S5VVW955573G53YWEhGoawvKqqTqdz8uTJWLSKokybNu2+++7DZ7PZHBISYrVaGWM2m23//v2TJ0/+/vvvV6xYgYocTa/OIRnWgJ29PJBKTqYhea7pGk0vWsLFdCUiHOI1qAFiF/OXgpTrf6WnqcK52+B6XhfUf86l2oNr0BhNr16nhuEz/Oxcz3SiX3AZFTOJr/b6irfgjfgXZdax3wODwTBu3DivRWI2m/v164dNPtmFiUIXHRlN09q3b9+3b98ff/zxq6++qqqquuOOO/AvbB7NGNu6devdd9/92GOPRUZGzp8/H7IwNze3c+fOc+fObdeuncFgSE9PV3Q3g8lkeuGFF2JiYogvKIry5ptvKooCnUzTtLKysvDwcLgxOOcpKSlML83E9YsWLVq3bt0jjzyiKIrRaHzggQe+/vprs9kMr2lJSYnFYvnb3/5WWloaHx9//vz53NzcnTt3Hj16VBx2MlW9bAul3hb4IhVhrr3ohy4geiYxKY4q3SjOr9fIqxeeFE8P9LrLa7JANlw/fb7+AhRvpKXn9aL6PSLCFmG4avt6oLOapvXv33/Xrl2lpaVowC+//PLjjz8+8MADcXFxbdu2ff311yFXNm/e3K1bt379+o0bN85sNpvNZkzxRfkkZcxBebr77rsffPDBkpKS48eP22y2W265henZfOj71q1bO3ToMGTIkLCwsJiYGKScFBUVde7cecaMGR07dsSIQVu6GqNx1fm4oiiqqrpcLqyiLVu2gPSxMBISEohrg3ARjaCCg6eeeurTTz+FhMOPJpPJbDYvW7aMc15XVxcWFnbkyBGy8KBHBwUFMcY++uijwYMHBwUFderUKSgoKCsrC8ovuCcV8VztEfh1aEKuKrUN/1L01GcmeCcobZrqeRUhIRPRF8YYHKe4htY8HW6Cv4jHEtegMSdXM7WHPOP1n3Op9qCgErEBMdkB02TQyzkpKQMdpKFgjEFx+RW6Jy+8l4/u9wLEmZqaStYY2ul0Oo8ePYookRgwEHm3ODJozNChQ0tKSmJiYpKSkmCoBQQE+Pr6tm7dOjQ09Omnn+acJyQkLF269LHHHkP316xZk52dPWLECKjAo0ePxrw4HI7p06fD3wDlGs2bPXu2pml2u52Ebl1dHddDI4jkcc79/PxqamrCw8Pnzp07ZcqU8vJyTdPS0tKmTZsWHBysaRqssXXr1t1+++2KohQUFMybN8/X1zchIcFisdTU1Fy2Ukt0pejhA1FWwTXKdKuO6flyJA/E4QU/xQMp0kxBGsrYZLoqjDA/0ZKiV69StgIcvJRKDX8yeVBVVSX1S1yVv0KHFLMkwqivRDY4TCZTdnZ206ZNQ0ND27Vrd/fdd+/duxdDl5iYOGjQIJPJNH/+/IyMjIMHD4JsJk6cuG/fvgkTJpw9exa+sQceeIBdgk+6XC4/Pz+Hw4HBNBgMTz755C+//JKUlDR//nw/Pz+DwdCsWTO3292mTZvJkyeDsGNjY9euXTtw4EAoYQsXLjx27NjTTz/NBL2B1VOpGwRXXZJhmpGagV+2bt0KZvH999/Du0KhchCuj48Pxb1vvfXW6dOnezwekFezZs1UVU1KSgoICFAUpUmTJhs2bPjrX/8KBVbRHb6TJk368ccfN27c2KNHD2imY8eOXbx48c8//wwhCkWMAuzXgPIuBcqldrvdqpA7znQhh+VHCw+fNSHVlRYkleiThwrXkCXBhEJgpqvtYDRcOAKUZJiXmL/ocy7VHrwd3Jbp2XQGofhBpGlFz77DZXgmE5K/ScbQw8V4NQnRy5tHbILwwgsvkGAAOZnN5oceesjlcjkcjilTphChErGJ14eFhUVHRyuKkpiY2Ldv3927dzdv3hwi39fX95133lFVdc2aNXiOr6+v2Wz+4osvwC4nTpwIg0lRlIiIiLq6OqPRWFlZOWbMmBdeeKFjx46app07d+6ZZ54pKCjAcFkslrfeegu3tGjRYtu2bS1btjQajT4+PiNHjoS9VVNTExQUtHLlSs75K6+80rt3b6PRWFRUNHbsWBxUazQaq6urjxw5wjmvqan58MMPf/jhhy+//PKuu+6y2+3NmjW7jPHEvICuoMLSj0TVjDFKy2YCdyPSEvUnFI/DT+Ol98AbhmtEFbC+4k/ryGQyIQGNdCbIOdr6hKwQNBi7Y5BkrU+HpMyJTqarZHaIcDgcffr0SU5OPnDgwIABA2JjY59//nmsnZUrVz7wwANGo9Fms1mtVrPZvGLFCpvNFh4e3qJFi7S0NDgbFUV56aWXLsUnfXx84F2EZgNPQJ8+fT7++OO2bdtS1da7777LOX/zzTenTp1qNpvBz3NycuDTnj179sMPPwxeHR4eTpHdq5HgetUlGeVBkfoMdYAxRmFAULyvr68qbPwBMwuWk8lkqqioCAwMhNL62muvIST2wQcfwPFKZL1t27ajR4+uXbv2z3/+86effso5T09PP3DgAOc8KSkpMDCQhKKvry9UMxIS1wVYP/BZk9PDy2cFvsB0ewjLEmtM07cZZLpQxPCSkQSSItElbpVEugVWI4YFI4y0PYDpVtpFn/Mr7VEUxc/Pjwm1g0zfBUfRk+PJvMN7iUhITQbqT5BR2GOTBPblTYGmaQgaURAXeiiY49ixY/38/FasWCGSWVlZ2bx582BnYPrWrVsXGxtbVFQUFBRks9kiIyNpAMFYcdz5unXrTp48ee+99yqKgqiwoihdunT5+uuvu3fvnpeXt3btWsZYaGho27Zt33vvvW7dusEJce+993766aejR48uLCxEU2fPno23V1ZWjhs3rry83OFwuN3utLQ0VS84Ky8vnzZtmslkSkxMPHbsmKqqEJkvv/yy1Wo1GAy7d+/u3bu3x+PZtWtXbW1tq1atSktL77zzTphN4hT8RpB9DKLC+iVbn+t1L0yvyyapQLW9ml4+gaWt6sfqij5wyv/EEiYXAilGoksQjSELnnwVNEpGfTcGegJMRsYY+WDxtT4dKnqhHtOrta6NWnzTTTfNmzfvpptuwrLNzMzcsmWLwWBwOBzt2rXbsWMHY+z7779v2rRpUFCQx+MJCAhYs2bNokWLvvvuOzLu33nnnUvxSU3PTjAYDK+99lpxcbGvr29NTc2UKVMg7KGQ+fj4bNmypWnTpmvXrv32229x7vHcuXMxqnffffeJEyc6duxYUFCwbt06+GnY1bEcrrokQ6PJlUd1OeiSQc9vxqZzYGfghn5+flDVQVvHjh1r3bo102nL7Xbv2LFj+PDhkHy42GQyPf/88+fPn2eMFRcXP/zww4qijBkzpl+/fkajceTIkT/99JPZbEaKTm1tLRk919HHCFrBsGCPUfITivaiohd24C54Eb18XPAWQgyQSgtOquplfNCFiUEwPSmc6bIEN0KsQjjhl0s951LtoX8hJVcVaiFxL/oCo420YxKBNputfgKtFx+hgWKMORyO+hf8FnDOq6qqkpKSkII1Y8aMoqKi8vLy6Ohoh8NRV1c3c+bM4uJijFVWVtbWrVtBn2azuba2dtu2bRkZGSQCETAPCAiYMWPGwoULMXpVVVWRkZF/+tOf8BC73R4aGqqqqsPhSE9PT0lJwXSMHDkSY+Lv779+/fq6urrCwsLp06dXVlaWlJTEx8c7HI7s7Ox//OMf5eXl2McB04Fxg8BT9N2GGGN+fn5NmzZduHChw+Fo0qQJXB2LFy+uqKhYt24d3BsWi+Xhhx92OBwnT54cPHjwK6+88p///Kddu3YQHpedw0xzrWkaMrOY4HkmxVwTTpqmXXsgTqgey6AXQtDkwuYjEUj2FhUwsQszBqlyTtODuJQ4w3RHKNJbmC5Q0XFS9epnD4lfaakqeo7o5Q3a70JmZmZCQoKqqv379x8yZMiBAweGDh3qdDoDAgIKCgrOnDmTlZWVm5s7bty4Dh06TJ8+XVGUXbt2ffnll3fffTeMJEVRjhw5cik+SS5TCvF6PJ4mTZq8/PLLixcvhi5bVVU1YcKEu+66i+naamhoKBTB1NTUrVu3ulwul8s1btw4Pz8/0Ko48g2LayHJRO+2y+UaP3485HmHDh2sVquml0I3a9bM5XKBw8KlEx4evnPnTpPJVFhYuGDBgrNnz1Lc6IcffsjJyUlMTIQSZLPZwE3ee+89f39/xtgdd9xx/PhxzvnGjRsPHTqkquq//vWvTp06eTye2tpasF0SYJetzl85KDOCJBbxfXAospYMQhQNyhe7sBaQbBqRQbAL82tIZhiFQmDo+GSBMd3x6HVG5UWfc6n2QD45HA6qlxLVaoSmVFWF0QZ9RfQ5oEYecp0eKI4bJAd9xYZnl7FC4J3r1avXkiVLsNLA+5Cq/uGHH3br1q1Dhw4ul6uoqGjXrl1PPvkk6Rn+/v5///vff/jhh6+++ooEfEBAQHZ2dklJye23347Y29KlS3v16tWzZ09yZG3cuBEa1ejRo0NDQ3EvvO5gBFBuSkpKgoKCmjRpgtCXqqo+Pj7Tp09v06aN2+2Ojo728fExGo2tW7dOS0tr3rw5njNu3DgwIJvNZjQa/fz8TCbT22+/DXm5bt065BLDmP773/8eEBDg7+8/b9684cOHT5gwweVytWrVivY1/r3jyYRKNXSHipOYkOMDDQadIk8ymVCoFiDtxG63EwGAIcKsJ2uJbmH6WibypvgcBJ5IwLieKh/I/WC32+Pj461Wq1jO8StmGR5FY3VtbDLEawwGQ3Z29uDBgwcNGmS1Wm+++WY4GF977bU+ffqEhoa63e78/HzInscff/yjjz7CYt+3b9/LL78cHBx8KT4JrYgqLFFJmZWVVV1d3apVq+3btxuNxqVLlw4YMKB3795Mz4bfvHkzFtGLL744evRojG1GRgasC5qvq8FvrwUHx8qHbm6xWLZs2YJFxTmfN28eavGcTic26vZ4PHv37r355pv9/f3Hjx//zDPPWK3WqVOnrl692uPxbN++nTGWn5+/cePGJ554AmYsPP5+fn5ms/mZZ54h1zljDAsJziJFUYKCgubOnRsUFESVeux6J31gaUGycs6tVmtcXBwEG0kjKMhM12orKirGjx8Ph4ZRr3L997//3a1bN0RQQIXwv0E+GY3GTp06FRYWiubX6dOnR40aVVlZqei7WWM0rFbr0KFDwRZJfbvUcy7VHsbYhg0bXC5XZmZmSkqK1WpdvHhxWVnZrFmzCgoKLBYLOc0XL17873//+8yZM/fddx+1GR155ZVXxEwBLx4hRgHF7bp/F6Al9OrVq3nz5sXFxXAMeDwel8u1d+/ef//736NHj2aMKYqybt26iRMn+vn5LjAPTQAAIABJREFUQYUHSVsslmnTpr3//vunT592u90Oh2PDhg27d+/u16/fc889h+bdddddo0aNIg7LOZ84cSIslZSUFFoO48aNQy8wOE6nMz09vV+/fkzIaDAYDEePHo2MjHQ6nXFxcchfKC0tHT16dFVVFZhOXV1d27Zt165dC+ZSUlIyZMgQX19fo9F49OjRm266CfYcVECK50N9/uCDD4YPH24wGObPn9+7d+/Ls3HJtYjbz507t2DBArfbTbsiud1uaDBoodFoLC0tnTBhArlJKAxTVFT0ySefQBbu379f0SsWfH1909LSKEfJYDCkpKSEhoZSsI3p1VRk2NXW1s6aNSs/Px+K76RJkw4dOkQ0AAE5adIkk8nk7++flJTUokULUJTZbI6IiPgVOqQQ9bXkJOg7jiuaPn16QUHBHXfc0bRpU2RqWK3WsLCwF1980Wg0duzYcc6cOSaTadWqVS+//HJ6enpOTs62bdsWLlyIDEZ2MT45Z84c7DtDg7Bp06asrKyePXuOHj3a7Xb7+vreeeedzz77LNPVcU3TxowZAwJYv3795s2bYcbAP09jpQr5yQ2Iqy7JSN+Bgv/ss8+OHDmS6Z0HEfj6+rZr1w5B15KSEhhhbre7R48e27dvb9GiRXR0dM+ePadPn75///7Dhw/n5ORMnz69devWMTExXEddXZ3b7c7IyBDTBBhjbrd7wIABJpMJ9TpgJdA14FgQ8+WuPYhZENFkZ2dDjwZD79q1a15eHsXJmG7mw36lG9u1a/fdd9+Bp3s8HtFthb/ff//93XffzYRSfGTNImbLGIPij+XRp08fm80Ghk7hios+51LtYYw98cQTy5Yts9vtVVVV8+fPHzt2rMViadGixa233sr0Ki6m5z06HI6IiAhNTzODLgmxcdHZEY1RRVFwMtFljD/cSkaj8ZVXXrnzzjv9/f3BDU0m08CBA2fPng3bMSkp6emnn27Xrh2M1B9//NFut8PKDAgImDBhAjQtq9U6Y8aMhISEzMxMRVEWL168du3aUaNGJSQkUE8tFguJmQkTJowePRoO4U2bNtGGeC6Xa9iwYX379u3Vqxf1FyuIMXbrrbcOHDjwjTfegBUO4QcLBr8cPXq0RYsWHo9n8+bNt9xyy+eff441Aj+SwWAICAj44osvDAYD3GjIMk1OTu7atWvHjh1peC9jXXA9+1/TNwQ3m82ZmZkWiwXuTUUvyhbDZiaTCefdkJ8cP7Zv3/7o0aNHjhyBqzM+Ph7MMTU11aBvCcYYi4uLGz9+fGpqKlkSYL5JSUlMZzVnz55VFOWVV14xm82BgYHr16/v1asX6UzHjh1zOBzNmjUrKCjQNK22tpYYy/fff9+8efNL0SHGPDc3l74q12QLSvj3jhw58vDDD0dFRW3btu2pp56iFNDS0tIWLVog2Sc3N3fhwoVOp3PChAmzZs3avHlz7969+/btC4OeXYJPQnOljpSVlc2ZM2fOnDkHDx40Go1LlixZvnz5qFGj3nrrLdEVlJGRgSEdP348nA0Gg2HTpk1I66fxuVo+MExY/ZplrmfGA/QL8TWKo4DZiZeJgMrj9RZoRhEREWhDenq61112u33y5MmxsbH0fJfLdfLkyTlz5iBiiep0Vs+LfeTIEY/Hk5aWxhgzm82TJk0C0+Gc19bW4o1Dhw5F+YXYKa/P5AlBm6Gw0O/E2et3mQpmxX/ROFNB90WHtKKi4o033kBhEHoNcUv6I7vQNsdnFL1S8zjn6enpUPZFFBQUdOnShe6lcSPjpmvXroWFhb/88ktCQoLdbkfUZ+bMmUgEp0nknJ88ebJr1664XREOLmCM4SFlZWXIMqdGTpo0ae3atdR4k8mUnp7euXNnfI2KisIDxY2mJk2aBD1dfLs4Kfjxxx9/DAoKCg4O/uSTT7zmkeku0EvB4/HEx8cTAxU7QkpGZGQkWJvH44mNjcWVGRkZmCCRpLlOY4MHD7ZarUjC5Jzv27dPURQw4lOnTlGkge5yu91LlizBOMfGxj722GNlZWWaXgzgcrkiIyPF6aYFiNtjYmJoQo1GI0qbi4qK3nrrLXFANL14FtOam5vLOc/KykpLS0tMTNy4cSORUHR0NGOsW7duxcXFoHwaf8qxol9UoZqKRpsuKy8vj4+PBznR7263G7uKkFHFhKR8RVEOHTqE0FdFRQW0hHHjxiEpjnOenp4Oz21ZWdmQIUO6deu2Zs2a4OBgpMN4PJ7o6Ohhw4adO3eORikhIQHb+lAbxBWKyp+JEyd6kTSUy/DwcMqSEKkLOH36dKtWrYYMGXLkyBFxjcBjLw7FZYCoXXwyUoqCg4Nzc3OdTmdYWFhmZib+hS1pGGNY/pqmnTp16q233hLbkJeX17lz5+zsbLreYDBMnDiR5Hdtbe2UKVMYY4899lh5eTmeg+xH8RfOeXZ2NmMMVdWFhYXJycn1pUBycnJBQYEYS+YXrmIv3nUZ+F9WSPdjzXCBt4rcli4TRR29nhi92CBqvaZp4M71OyM+GU5zaoz4BBInYuepheI8EYOoT6/0HLoGERqS1l5Cy+uZlKvm9SLxFrHL4i1Y6nQZ/RfmyMSJE2kxE69XFKVLly5YnOJ7y8rKpkyZAkaJB6IL4uhhqYsdF4eovLw8LCysoqJCnAVAVdWKior4+HgsXWRDVFZWitMEg2nWrFkoY6qqqnrxxReJvpcuXZqXl4fXFRYWooz34MGDFRUVgwcPBjNKTU3dsmULXp2cnHzy5Mn8/PwlS5aIPaWRVFUVn6m6BS3B+ONFUFCaNm360EMPffTRRzTp5Eb7dZBgoIs1TaPPJJDEqff6BeND08HriV66UuwCkVx9iA9xOBykOYmPgiopLh/xq6ZHpPiFsy/Siaif4RpxnWp6vga/cDrEhuFHRVGw7QDnvK6uzuVyTZ06VdSTSPG6//77IUHF9lRUVERERJSUlFxUJ7bZbJMnT05LS6OWHDhwABoPQjv4EawWL8rJySFGAUXwkUceqaioOHLkCOkolEUCP1hVVdXrr79+6tQp0BsNUWFhYVRUFNEG3KSqng+Ja8aMGYMc9GefffbQoUM0eib9fNS6urrLlmei0kadEpkP/Rd8QJy++kKiPh8Wn08X4PmiOKBn8gtNl/q6iwjxR7htuE6o9JDLFmAExtj/xq6hVSHEwvWkIMopIi8QqAT796hC0a6qJ8JhvkW9m5iyWEFiEIoNVSEDDSYt3ES0VWtdXR293UtrNginEtAY0Vm3Rv0cVUXP76ImiYo/THL0moLATHCtcM7p2Cf6hesVAkzP3PMKXFPv6MleJ1zDLYaWt27d+vvvv8eQEqlpmjZq1Ch6I4lDk8nkdDo9eoUWPigX5ndxznft2gUFStP9PJqwfcYdd9xBCUUevV4Nc4HDhRG8bdmy5WuvvdaiRQs4cxRFQeEkTRaehnAa0wvj0J7Dhw+/+eabPXr0WLly5Z49ew4fPty7d+9Tp04pinLmzJl27dpxXWBQKStakpSUdOjQIZNeuI1Xo9CQjuyCm44IAwHX2trao0ePjhkzpk+fPvv27ePCNuHsEiCVwovnUtQNjhHDhfvmIdSk6dsP0gLxOlGF6wE8pidqa3oCqpjtBjoh/kjzhe1FOOdivQrT/bpIKtP0ve2JrtAwKpPAptte/hxyHNFm6giC4l00XETkvN6mPOKqR7Mpmuvn54dBoz3kQM8Q/6NGjeJCcryq1y9S8IxCnnl5effff3/Hjh1/+umnpUuXImCpqqrRaOzbty/83h6PBxtY+Pn5PfTQQ1FRURj2PXv2ULT4k08+iY+PR2JwcHAwv9DbwTlHjozJZCovL2/Xrp3RaGzatKlRL1/r2LFjVVWV6PmkqhgirQULFnDO7Xb7zp07Q0JCHn/88a+//prpx0Z7PJ7/x96Xx/lU7/+/z/mssxpZ63FVZCeSQoMIWSrdq0gYIoyxJ6Iw22dmRJSSmyXJDLMQ2m/l3sJspvVWjFkQlYpZmfnsn8855/fH857X9+2j+rUM0/B+/jGPz3yWs7zP+/1+7c8XKGGRuvJ7gYVAZ2d6QSFtUHz6MZYzRf7I1YlQKGOMWn5relEdn2Km6Rk6OH4APTQUL36N0FbG9AormjlMXzs0bwPi/QHpY+zPpSwYJY4yWdGJDGi9BTiO6Dsk6iimyjgXOdM978qF/Zb8XEmHpHM8Ep+9T6eEwHeI+R65iOzCrjYItuM1OVXoImlDoTf5E2lci1VJT7IycPzfJMLpQTLOWsLgYBcLaOGhckTROCaJLr/fP3ToUKZT1oaFhaHwUJKkd955h+5d4ZprIKwKg6Z///4q18tNVdVXXnmFBrxz587p6emoUqJmH126dBkyZMh11133wQcf3HXXXYzz4DudzszMzGXLlkk6RaHZbF64cCEIkNxud1BQUHR0NIoZ165dO3PmzGuuuYYxlpycjNv0+/3/+te/nnnmGZqIxA3Ys2fPe+6559SpU4cOHdq8efMnn3wSEhICOrHZs2fv3bu3pqZGkqQuXbpAOPl8vs6dO2/dunXLli2PPfYYNlnMaZPJtH///mXLlmEoNJ1CFw/O5XJZrVYsckVRGjVqVFFRIctybW1tfn7+sGHDRo4cyX6BGo1AOTX8mypXjYTXfq7TILswO1TlSO4xOLR2JD2VBlEiP1dXp+m1KFhiCJUpXP270WikTu54yi6XC3u9gaP5powhWlyYS3Q6WrA+rg0bKVgGnYOKFjLtBk6nMzg4mExbWuMkzpFc4NPbf4waNYoGZNeuXYiK0WaiqiqCebhZBHgkrvUSY2zr1q20aXbv3n3nzp2ff/75Sy+95Pf7Dx8+3KtXL1I4/H7/3XffvXv37r59+54/f3716tXLli0rKiqCHMIwBgUFPfHEE4mJiUVFRQ8//PDx48fNZvPXX3+NqmFeg8/IyBg7dqzVao2IiCguLm7Xrh0/Zw4fPpyRkYHDIqOBWEJknavI6/Vec8014Nitra19//339+3bd//999M+g0NR4sPvAiYYVBNkAyE7gzZAPEHqGUs7Nt0jr74T1T2v5ZN2xecwk0ZOUwIXQIk2dCj6Dl/wYNCrCUmbVPVUKdK/0c+IttM/Ez8z0jNTL8rMpkvk32FcygBaHzGOSwliH7Yd42jIcdHEo0MDR6tRvajJBal7/MMAAtqSkeAxcMVhpPMyTuzxhU2QbaT/YiXjdlS9YIgGwel0Yhaqem4VnhZfcKPpjHy8bUQDwhiz2WxkYZw/fz4sLEzReUbsdjvSKMg0wc9vueUWhAF4q+LMmTM2m23lypXh4eGa3t2KPqVmVG3atOnTp8/p06cfeeSR3NzcpUuXGvR2w2fOnBk/fvxTTz3F9OlO6QZYmYhqWK1W+A+hTMD2aty4sSzLXbt2/fDDD0NDQ4OCgiorK9evXx8bG4tpsHr1aoPB0KpVqwULFuTm5h44cGD58uW4NqfTefLkyX//+981NTVWq/Wzzz7r16/fzTffXFpa+tNPP40aNerrr7/2+XwpKSn33HPPrbfeioe+bNmysLAwsHfzRUi06vCYpk6dCgNUkqTw8PD27ds/8sgjr7/+usR1l/gV8M12Va5vCyQoabtkwcuyDNFiuLDLOf41mUy0FcKgN+i5srx5RwuEfoIXRq5eigxf2gdhwIFJICDYyas7mp59TmKY1lGAZKIFpXE9X4KDgzWdTYMsQtpuFEUJCgqCtocxj4qKMuqlrx6Pp7y8vGPHjowrc8TZu3XrNmLEiN69e2NKYx1VVlbGx8fbbLbGjRvzWrWiKC6XKzg4+Kabblq5cuWoUaNuuukmxlhOTk5aWhpmrMlkCgoKKiws7Ny5c21t7RNPPLFy5cpGjRp9/fXXBw4cUFW1U6dO7dq1S0pKCgoK6tq1q6b7V2mfhSRwuVxlZWXdu3eHJeHnislQJmU0Gv/+979j2OkjSZLsdnt4eDiMMLPZ7PV6w8LCmjdvft999+3du5dx9TO/olH9EjS9PABrHMpfwM5j4IgzMJ6ff/55YWHh5MmTMea81o7jBAhC6ulKoojGHzoW7YSani4H6w3CjCQQTT/yh5FqTseROUYhKLIYf/nPt4rEZZGXX1VVsA8wjjaNFtXTTz+taVpxcfHevXs1HVDx4uPjyW2tadpXX3319ttvO53O2NjYqqqqjIyMgwcP5ufnp6Sk8MGk//73vwiQxMXF0cKm0UFYEjbNxREF8reqqpqVlUUmNlmNgMlkSkxMVLmQhqZp6enpO3bswDGxX/v9/sLCwrfeequmpsZms1VWVqalpeXn52dnZ6ekpPB3WlxcDNIHBMb5c0mSlJOTQ6EI8hfRbObvPSAKijcv9k1rurO+trZW07Tq6uqpU6dWVVWhdCExMfH8+fP84Kiqirujd+Lj4z/++GPygEdHR/O1EKqqZmRkZGVl4aQlJSV4Ioqi5OXloQATx6G2A263e/Xq1YgS5+TkJCYmIlxMl33ixAnYYTTLDxw4oGnagQMHLBbLwYMHyem0Zs2a4uLinTt3PvfccyNGjCAdSJZlpEjwnn3tQu+8oofQXnvtteDgYKSl9erV6/3338edosZD+1UEBFlVLnCo6c4xp9O5fPnympqampqap556qrS0FN+vra1NTk5GjJCyci4uKMa6gL2Ls8TFxZWXl2ua9uyzzx45cuTiS0pPT4+Li8O/GP+8vLzJkye73W5VVY8dO9a9e3eaeNgL8Do4OBisCvToDx06xE9+REDT09M/+ugj/vb5cAVWxMXDHvBN8ogyvVr04lHFDynAQ+8XFRU9+eSTONGZM2fQmAanTkhIqK6uxtdWr179xRdfvPLKK99//31MTMxPP/1UVFQ0fvx4RHlxxuXLl/Pqo6R72jF/FEWx2+3JyclnzpwpLi5GYhG5gmVZxsyntDI+M0XTFyw/SioXp8SLN998Mzw8nDEWFhbWqVOnXbt24VN+d9X+EGjT8Pv9ubm5sbGxeP/DDz+MiYmpra3lZ2leXh4/DrT7SZKEjTQnJ4cylQoLCxctWuRwOHAEm82Wk5ODh3Xw4EFKtfP5fHa7fdWqVT/99BNdz7Zt2y72hPHKYkZGRlJSktlspjdlPfmLVgdIdwPu9I+BMfY/zxjUW3hCYELm5ORggNLS0tLS0jBSOTk5mHkdOnQ4cuQIwqcal0qLOQRD5Oabb66pqcnJybFarVu3bmWM3XnnnSUlJYMGDSK7HuozLqVRo0ZFRUWYHGjytGLFCoPOkUgqLbuQJZ08JE6nE6ERu92OBaboMVKXyxUbG4tf+XUKAIWrpoR2Kcty586dz50798knn0iSlJqaajKZ+vTpU1ZWFhkZSWeEgolTREREHD9+nN9qQVtO40CjgSmC5429lbT48vLyWbNmVVVV2Ww29GJYvHjxqVOnkG1BFNdkNMPtrukxDOjUxgvpgMmExzjHxcXdfvvtUMcOHTr07bff3nfffbhl6KSHDx9u0aIFtLZPP/20ZcuWjLGqqqr169ejwAiKzk8//YRHYLFY5s2bN3Xq1NDQ0Hnz5o0bNy4kJITpWS2MsVatWk2YMGH79u0Qh7Nnz46MjNQ07fvvv6fJpunZ/4qiHD58+Kabburduzf2d6/XW1RUBGc9RW7w1Mg1Ta5dxtjChQs1TevatevevXsLCgqGDBmC8fH5fP9fa0zWE8xwMZLewQQ7AkwZGEwulyssLGzy5Mmvv/46btOoF/Ayxm655RZN0zwez5IlS3AXmqYhSzAiIgKymWg+zGaz2Ww+fvw4yKvYhb0CZFkeP3682WxGTq8sywkJCR9++CFMZ9z+I488gkGYM2fOwYMHSVr8+OOP999/Pw5lt9uNRmN5eTl5EXv37n369GnMEN4/SXsNYjmYYLQRazp1Mr1DRoas81ZLOoMDY+zHH3+cP38+LK2CggJFUZYtW3bs2DGPx7NmzZozZ85omoYZi0PhScFzReq5pmeHT5w4sV+/ftddd11KSsqjjz46f/78DRs2gBYST+faa689fPiwqqpnz56dO3duZWUlZlRoaCjTDU1NjwtOmjQJEwkSfdu2bViPWVlZmZmZu3fv/vzzz3Nzc41GI2onVFVduXJlQUEBYwyRS5gm2ECwqyxcuNDj8XTq1GnLli2HDx8GZ66q03lrHEfX74Wmk7oZDIZPP/0U4TpJkoYMGbJ169ZGjRrhyc6bNw/5FAkJCbT1AR6PJz4+HrOrX79+x48fx77duXPnUaNGrVu3zu/3b9u27cYbb+zXrx91zmKMOZ3O+fPnW63W8PDwJUuWXHfdddiEt27d+sgjj2C3we66ePHioqIiPhNw9OjR0PygGhYVFS1cuNDpdCqKQprlkiVLcI8QQOT/++Pgk3xwDpgajBOz9AJqjqZpZWVlYPRR9fhhfHw8nx+cmZnJOHtFkqQ9e/aMGDGC6SpkTExMbGwsXt91111z5syh75MiD4EK4Dop04Z0Z/y7ffv2zz77DGsjNzcXiaEBZlxcXBzjli5/rhUrVoBkhWK5+M4bb7wxbNgwGqv58+cvXboUr++9994pU6bwbky8IPJpjcs1IicPnxGHj9DODpe9YsUKj8eTkZGBJOPCwkIkthYVFUEHv9iVPGzYsPLycj5PRNO0jIyMgHoyPCb0zaNsZqC2tnbWrFmffPIJ9K8lS5YUFxcXFxd36dIlIyODDlJRUTF16lTkTNIcuPfee3HXt9xyy1dffcWPtqIoO3bswMjccsstn332WUxMzIwZM7777rsRI0aQtb169eo333xz/PjxxcXFw4YN429wxYoVdJ285RRgXquqev/991PVFK8yswtTRn8WAcpggOWh6vl4iYmJsAP8fv/69etLSkr8fj8qlCsqKmimVVRUzJo1q7y8HD/Pzc2dOXOmy+XCv0ePHn3uuefcbrfNZjt79mxCQgKpqLjxpKSk1NRUilXwE5VcDnFxcaWlpUjlT0pK4qdft27dvvzyyyeeeAKmM8xrVVXLy8uTk5NRI4h89PT09Pz8fMp6UC5M8eWNJx5IsqDxwabB6xk4SFJSEkj8QKrk8/l27NiRnp6uqurRo0fRyOLIkSO33nor41KHyJ4YPnw4HMUOhyMhIaGqqooqdhYvXjx9+nR4pOlSExISAuQxtqzExERcrd1ux+M7evTos88+y28duLDjx48vWrTIbrfv2LEjOzubvlBWVjZnzpwzZ84kJyfjji62rvx+/8CBA1977TXKcaWv0e76h20ywO12f/PNN+iQyZ+Xf16apkEPpsnAT6H8/Hw8rOrq6uTk5HfffZffQyhGAzK2gwcPDh8+HF43OHiTkpKqqqpoy9I0LTc3l7f/eL8dvC8//fTTvffeG7CdUrxt6NChlZWV/DT79UX662CojCYHK71rMBiw2Xm93qysrNTUVDwP9FyGeG/WrNmyZcso4sf04k1Z7349ZswYTdMyMjLGjBkzffp0j8fjdDqvv/762traioqK6OjopKQkm8129OjR559//qOPPmrVqlVJSYmqcxThDkGFoukprQrX4YzpXn5NVxhB0IB/wQZGoOyygoIC6A7bt29H9q3b7QbrhMlkioqK8vv9mZmZo0ePnjVrlt1ud7vdrVq1crvdZ86cmTVrVlxcXHJycklJyfPPP//GG2/07NmzsLBQubBcoXfv3kxPzaKxpfhcwEMtKSkJDg7Gbd50000//vhjTU3Nbbfd9tVXX3m93jZt2siyXFpa2rFjxy+//JJ3WmJeer3eyMhIiSNCVPWEApljt4IW/8033yQlJZWUlCDYXlBQgHELDw9v0aIF4lKnT5++9tprVVWdO3fu3r17x40b5/F4Zs6cKUnSdddd16JFi4iIiBMnTtx6662SJE2aNIkaVL7//vuoI5YkqWfPnu+9995tt912/PhxXHBBQcGGDRv69+//0ksvtWrVKisra8eOHVlZWd26dcvOzj527NjMmTObNWvWt29faMqqqhYXF1POHrvQj8HrDfj75ptv3n333QGfkvoVkNARgABvDH9wTc/LUPQUO7w/ePDg9957z6DTHGuc1i9J0rFjx/7973/j3/3790dGRtKNqHo8WFGUgoICm8124MABDNHKlStLSkqWL18+YcIEqK6ZmZkJCQlQe6OjozMzM+FlgtcRdK6xsbHTpk3DLvDqq68uWbKkffv2NFy7du1q2bIlNKH4+PiQkJDk5GRVZ3mmsJ96YXCXcaVdAYDrHq9lvW8D7Zh4p7S0NDg4uH///oyxrl27fv/99+fOncOU9vv9N910kyRJR48e7dKly+eff65xydmQBA6Hg2qWg4KCYmNji4qKQkJC+vfvryjKypUrN23a9Omnn65evbpHjx5FRUWYwIWFhRgEcs5/+eWXERERdLVE7p6ZmSlzPQ2ioqJUVb3xxhtXr15ttVpbtWo1ePBgWU+ua9GiRWRkZPPmzZctW3bnnXeyn2NaMhgM+/fvHz16NMkDdqFA/dlf/UbQpFqxYkX37t0NBgOISOCNgCk8fPhw6FiSJCUkJKgXVrsqioJMLjzoRo0aLVu2bMSIEZqevbl27VokTmuaNmbMmMzMzJdeeikiIuK9994bMWKE2WwGmVmTJk1wOshLVVWTkpJUvR6AVCJyPJrN5t69ezscjpKSEuIgjY+Pz87OrqioaNOmjcZxY7ILnZN/BJLeBMvPFc0kJyf/7HFlWU5MTERXMMbYtGnTPvroI8b5QPE1o9EYHR0NxpT33nvPZrO99dZbL7/88po1axYuXFhTU1NUVPTUU0/BFX7kyJG1a9cqigI91+fzkX6kXFgf87OlLfTMdu3a9fbbbw8cOJDEPo3O9OnT4fBNSUmBvqBpWmZmJjVaLSwsfO655xRFQT+n//znP4mJiW+88camTZtWrVr1+OOPV1ZWnjx5csGCBTU1NZqmHT16FDWnzz77LJTfwsLCJ5988vz58zg4r1/4dE7FX3IE84IQzlvelFT0cj3eRKAv8DXU/PEvPoLGhUIGMy4eAAAgAElEQVT56KB2keVKx+G9pvzrAMXz4vglnhQd5+JicPoVX2KiXajy/6xN8HvBOP/Y7wX/XLxeb2Ji4g8//KDpDxcDgto73iA+evTo6NGj0a7B4XBMmzYNExKByZKSkhdeeMHhcDz99NOLFi3asGED1Cmn07l06VIKbiGcEx8fr3Hx1LS0NFRka5pWWlpK5XelpaUoeAcplMvleuKJJwoLCysrKwcOHJiRkeF2u5csWVJYWHjo0KGsrKzExETES1D59Gd0YQLjvI60qakX1h5pP1deTcBKx1SBG4qf8Novm840hS4GjGZ8JzY2trq6urS0dNWqVfgUv0pLS8OQ0jH5M2LJ/NLK/f/iz0w/gs/nQ/Ik7Vf8JfFx9+zsbF5k8jthTk4ONjdZJ92Ijo7GlynRqWPHjidPnty2bVtSUhKCWHgKDocjJSWFqCRIN42Li8NzPHjwINQsuGFg6585cyYlJaW2traoqKhXr150PdnZ2efOnZs2bdrZs2f5aRDgFfhdYLpl/79sE00f+qeeesrpdK5cuRIanKZpeXl5gwcPrqioiIuLs1qtmzdvPnbsWPPmzfv06UO7T2JiIkrN3W73xo0bt2zZsnjx4kGDBmmadtttt3k8nvnz5w8YMOC7774rKyvr2LFjREQE8nxefvnlqVOnfvfddx06dLBarW3btl2zZg30qVmzZtXW1kIMEI8qiXFcPN6x2+1NmjT56KOPEBqFd87j8RQWFqKvAZzad911F/TQcePGRUVFQfnq2rWr0+mUZXnbtm3z58/HuMP1sWDBgoEDB549e/a7777r1atXWFgYrMPt27fPmjXrxx9/7NGjhyRJXbp0eeaZZxo3bixJ0qxZszRdSfmNugYZtcRHB2Wf/GMmveUSSWhYmcQrjx3Er/MR00m1C600Pk5LTnyE7viLodITRe9FQJm7Kpe9gheU5sd0ex1hD7JCEAlT9F4e/DKjmgfKiDPodW9/KovpTwNBODLIgPDwcOQWqnoOWFlZWWhoKKW8qqpqt9tvvvnmTp06ffrpp8HBwS+//HJNTc0TTzwRGRkJvdhut5vNZpfL9dRTT40dOxYDYrfbDQZD69atVVU9dOjQCy+8kJOTEx8f7+MI2h9++GGfz1dSUpKamqooit1uR++YZ555pqCgQFXVAQMGWCyWKVOmIM9z3759Q4cO9Xg877zzTkVFxQ033HDy5MkWLVoY9cZJeIhUAVkn0DTNoDdVkCSJ2DUlLh9d1dO+/VzHRXyKqYJGjvxVkXcBA0KzC8mTCAmTn5NxZHgUC7TZbBEREe3atVu0aBHTl4PX6504ceJDDz2k6SFwfEQxdVnPs6+r8fm9wMZVXV392muvYWuNiYnB+MAgNpvNYCyCEbl8+XJN1078OttcUlKSJEmhoaEbN27MyclBM5BNmzahXnvVqlVffPGFpmlFRUXXXXddTU1NkyZNFEU5c+bMyJEjTSZTSEjIsmXLrrvuOpx03rx5YN5RuT6IFOCExY+RB++wLMtjx46FAwmFd8gbJ7osHIr9ub5u/4tDQoxRPnFpaWmvXr2efPLJ5cuXY96///77WVlZ4eHhql4NCu2PcR2J6Mbw7BcsWPC3v/1t2bJlY8aMadmy5ezZsz0ezzXXXLN37968vLx27do5HI5FixbdcMMNUVFRr776qt/vLy0t9fv9R44ceeqppyoqKhRF2bBhQ1hY2P9dLtfiwcs18VMUBQU0eP/06dPwLkI2tGjRAjf45JNPlpWV4TGnpqaix6CmaUeOHEHtzqxZs/72t7+tXr167NixrVq1mjp1qslkioiI2L1794EDB2688Uan0xkdHd2+ffsHHnhg7dq1mqbhIKWlpfPmzcPMeOmll5AgIHMtaH8JfJCTFifT89+wSiWueTTTq9NoA6JqdMr8hojC+FD8VrvQllf1Djua3iuO6aEOppelq1wfGb9O6sqHNGhvIs57Wa/Sxb+qXv9u0EtGSHzy+i+NA+WCs/pmdubDV+QtwW1qesUMY+yLL75o2rQp08tFDAbD0aNHQWi5ffv2iooKxthrr70WFhbWqlUrHCc0NBQrXNO0xo0bnz9/vri4+OTJk+3atcOy79WrV1JS0pgxY8CXT54us9l86623jh079pFHHoHPZ8OGDdDAQkNDZVmOj48vKytDxxZVVUNDQ3v06OHxeI4cOXLvvfcuXLiwrKwMFR14RoqedVWHO7Wmhyf4eQUtnsQY7/6lp2zQS4BUPQfSoNMdqHr7MabPK3IXk0qHmUlClJ/ztACRm8MHtqlAQtLr7RS9+Yimlw9S0la9AEM0a9asa6+9ljFmtVo3btwY4HF59913mzZtimlps9lQTYRpExwcbDabUSHj8/mIXwayH7JE0zTsfhjzuXPn3nzzzYqitGzZ8vbbb0d0EI4BpJjGx8ej0SMG2ePxfPvtt23atCEhguFCuSc9Sqb7/xAk8ng85Kyih/tnlvz/NezAzoWH17Fjx//+979paWnp6emwt+Lj49evXz9y5Ei73Y78FqJvJyEsc/V0qqquWrUqODj4ueeeA8f5tGnTzGbz7bff/u2333777bc9evQICgpat27d0aNHg4ODy8rKzp8//84770iS1L17d3BRR0ZGHj58mLZO2A2yXjFGA4e/Z8+ebdasGS7m008/hcFn0PumQx5/8803Q4YM+eSTTxwOx9GjR5Ha5HK5OnfuvHDhQsbYihUrrrnmmqSkpI4dO0qSNH/+fJfL1bt375MnT5aXl3fv3t1qtW7ZsuXYsWONGze22+21tbWg6G7fvv3zzz9vtVp79ep15MgR7HQo4/31IA2ZlbRaaJ37uX6AiE+Q2OPDbxBgqg7GSQVy9fAHJO1J06OMTGetpegIlWrRzKNyJV6mklzESsAF8NsTRV+QEE/n0vQKLVnPBKMF4NfpDP5waKFOQLYsJhi0B1mWXS7X9OnTwZRaXFz8zDPPHD9+nOmUHE6ns6ioqE+fPk2bNp03b96aNWsOHjz48ccfL168GHaq3+//4YcfxowZs3//fmgSI0aM2LJly4svvti7d29N97HIstyvXz+Hw7Ft27aPP/64tLT08ccfVxTl4YcfxoNAUiJjzGKxbNq0idyP6EOGB33PPfeEhYU1a9YsLi7u/vvvnzx5cmVlZUREhN/vDwkJwV4m6Z0C6woGnclC4jhuyKxRucImpj9r3m3AGIP8lvT0AdrmsPxJ9aH1QuaUovMH0bnoknAEkBORyeXTe8PiaygbN+iFg7QM1T/Rp61OoKoq6FEwbikpKWSQWa1WWZaHDh3qdDoRn/b5fEgXJD8k/Kt33HEHDawkSVlZWSDCl2X58ccfx3ZnMBhiYmIwLLhls9ncv39/JNNLktSiRYtjx44ZdGYQWU/IzM7OhkNI0tN9qfwRuxBybqFsgTIeV04uH/an17tsMBggmfiQtc1mkyRp0qRJEydOxKM1Go3Dhw9//vnno6OjvV4vYgDQaFJSUhA9YrrChX1w9OjRDz744OnTp0HDPGXKFJPJ5HA4EGwgJyE2+qqqqkaNGoWFheXm5qLEQVGUkSNH8tWgcHZpekorOShUVa2qqjp+/HiLFi1kWd61a1ejRo06deqEvaOsrAxrwO/3t2/fPi8vb9u2beHh4SEhIZ07d4bRRgLggQceGDVqFNrvTp06ddy4cUaj0eVynT17FnY6rhkKxU8//dSkSZPQ0FBkHmLqTJgwAUtC5riLlF/OLpX0IkRMHQSlNT0ESo8ZiirvcAOJFz0+XJhBLzmnVU0TDpOPGLOYXhFp0Cth+eUqc8XmF0wXWSZbk2YL7wUio5m2JywM0s0VvZgdD0XR8939HAkL7S916PX6vaDdFiPp8XgKCgqaNGkSHh4+ZcqUCRMmnDlzZtGiRf/85z9NJlN6ejpjzGq1vv766zC/FEVp27btuXPnbDZbcnIyVorJZPr000//+9//vvzyy0OGDMHU/dvf/vbll1927NjxhhtuwDKEyMfWbDKZiP8aWwB28NDQUEVRysrKhg8fjl8dOnQIajupPpBVdrsdw7tnz56oqCjGWFxc3K233urxeFDw/uua1h8AalrIv0du54C4AEpH6OkzrribtCXe9YKKYNrvMKRQvjG3aSbztqbCEQO5XC7MT5QbYW+Fr5ifaWTSQSTQXK0vwMYiuhaTyVRUVIRrttvt58+fb926tdPprKysXLBgwXfffZecnIyQWMeOHdH949ixY4899hgUKSzY8vLy4uJiNBn/5z//WVRUhNjbyy+/LOlEHoj+5ubmYutTFKWqqgpNSxhjffr0iY2NNRgMr732WosWLXJyckwm044dO8aOHYuEMuyc2EPGjRuHTAU01XO5XJTuT4wz7M8JM5mmCON8AnFxcSkpKUOHDq2qqtq/f39CQkJlZWVsbCw65IaGhhqNxsaNG7/77rvh4eF33nlnWFiYphdvM31ttG3bdsuWLTDFXnnllYMHD2ZnZ6NFy4ABAxYtWoSbgTWwe/duWGn9+vULCQmBI/jtt9/2er0VFRVDhgwBzzQpXLx1YjAYCgsLmzVr1rhx48TExK1bt86dO5fpPvRTp05df/31it5aEElQsizHxcVJkgRqc7r9Tp06bdy4MSoqymq1btu27T//+c/HH38cERGxePHiIUOGLF682OFwYCVIkvTee+917tzZYrH0799f0ntJgIPfeGHr2F8J+Sg6Qxhv3NCjxTVDM+BpHv1+PygYSEhoenwCk5Uc0FiEZNIRrwEf/VJ0IgDyxpDaRUcOuGw6PtO5Fvk7Ynp1Ku0XcOzgdlS9aSSpwKAY0HQKOFKi6z0+QdpDeXm53+8vKipyOp19+/ZNT0+/9tprlyxZ0qdPn8cffzwvL+/AgQPHjx9/6623ZsyYYTQad+/ebbVax48fv3PnzkmTJiE8wBibNGnSvn370MrS7/fv2rVr4MCB69atGzhw4MCBA4uLi5luDsp6qRwp4DC84JxExQg6tiDsgRTW4ODgoKCgffv2YVlZLBbQKKxZs6Z79+5t27aFxxiaE+1QdTtuGDriRiJ6TJjdkh4SprA301n+VJ2dx6ATXTKOlMuvc0aQs53cjxJHrErSjmx9phtwKJLj/di+C3vYkseeXKP4Ms+hc5mB9QvHIBapQWdrg//D5XJhO9q4ceP48ePhZ1YUZdOmTWDe2r17d0FBwdy5c5ctW4anM2XKlNDQ0A4dOuBQOAKl1GLaG41GsNugTZ0syxaL5Zprrjl58iQyxRhjYD84ceJEQkLCsmXLvF7v999/bzabDxw4YDQaHQ7HF198ERoa2rlz5yeffBLbps1m69evX8uWLcvKyux2O+6R30z+FCjzB0slIyODMZaTk4O2loyxnTt3ajrjA2MMzW0PHDiAOnBNz2ZJSkrKycmhzKX4+PgePXpQOtbBgwdHjhyJQnFFUbKzs2NiYpYtW8YYW7duXUJCgsvl2r59O1Vk+3w++B4rKirOnTsXHR2dlZVFCW8aV1imadrq1asLCwtTUlJwSXSp8FWeOHECYU/cDtrVw2uamprKdF1g6dKlSHU9fPgwjv/xxx8PHz4cPQx9Pl9+fv706dNBV7h27dq4uDiXy7Vjxw7kgKk6szuovtULSfrZL+cu8jeicFlYF2ck+i+sIKGPKJzg5+j/+S8HJBPyR6OfaBdmbdHrgMvgP9IuSkJTuQxg/u60izIeAz7ljx/wnT8DVhfJYxqX4Od2u6Ojo/nGeJqmHT169Mknn1y2bFleXh4q/5BwBPj9frQrI3YblEnNnj0bx8Etnz9/fsaMGbGxsUgMppydAH5Rxtjs2bO//PJL6tgCS1fTH43b7X7iiSeOHz+uqmp2dvaOHTtsNlt6ejoNqc1mY4xBYdcueqB/DBePM+VC4/ICmGv8HGu7T28OBWDqErOGwrHO87OCXtP1B8wZKuWk7wd8jT8yXdXP/vYPj0+dTD9cVU5ODiYVT8Ak6eV3KAbX9Plp5IgWkalHCzMtLS0vL0/jpvSaNWsoC1/TNEVRDh06hGz+xMREnmWpqqpqxowZ4HBgjEVHR8Nuo4Orqnr+/PnZs2fn5uaePXs2KSmJujLxt1NdXR0dHV1VVcX/9s/gf5KMfytgRxOoK/yKJBOoc9DuVleSTCAAARqMpBOjCBBgPvLv+H9/YQlJ3+zs7KysLE3TVq9eTX1KFUUpLy+fPn06OrH9gUegcolX+OvxePLz80ES+/TTT0PsoZkc05kxFC5j/g/cVJ2DMfY/S5/ptegw+es32H5FAt6AenSXXSVQdf5vSpe6ONonUCdQdOZ+dmHnEQEA3j8KdWt/iEGYXdgEiiY2TXLarn0c/frvukhK/qLwDc+Xr3EtIOj7/K/+wB3VISDJDAaDkUKyxD0Pl7RY/AINEYjJoduLUe+WotVf5siVCtAkYrvAHoo87zrPH2mgwFAQaScGis+3+o3QdK47EmB4n8KElDFO9S2/6/gyV+GHJ4hKL3ZhoY6kN0yQ9U5elETGLuy3dfmBwOr/2WS4PuwCfwVhe4VB2GSXB8qFjSECUisF6hYB6RXCnUNQ9XoDTY8s/LGRoR8izRgkBpTGqXLte6QLe6H9Rmhcs0Z6k6w9VecIpERxpkdwfXpLxb/Cnva/gCEoIQK2ALH+6xYy1yZb4FKDMtFNJpPdbkfPtvq+qCsNGte9zGKxOByOP0udd2UBdXvU+OKPLX/6IV+Qx3+B7GCNKw/97VA4JltJJxplF2mEfD8zpps9/Pv1tb5gLIaEhPyfTcb0eliDTsJbL1d2pULYZJcNvI+LLycXqHOQTSDrvOH1fUV/Ifi5NqR/xlrVNA2H4llIYAETmw/fefjPXDMVQgQINqbXCvv1hsaMk2f1aItreutzmWopFJ0tgtVrHY+AwJ8Etg/GMdcIg+xSANSUql6LyXO7CMAvR5VS8h+lvKJaZsgtRefWwoCjvCGg3/fvgqa38dQuJI6SdJZXqkzHv5ROQWKsfjN9EMZTVdWoadqAAQOCgoJwP0QJIYSZQAMFkVKionPQoEEGnZVYoK4g6WxSqKPnt1QBppOYKIoyePBgGAnqH6KtQYYFpXVQjijK3jHmsJPUP0TCS9xAKN0jG8ug91MMCQmpra0FYZXL5QLnAyU6gneGJ/e6zKBgobR///56uYKrDbIs9+3bF2ue/ooI+aUAUYcoipKTk0M8CPV9XVcUNI6QBbtzv379xGTmoapqbm4u4xjp6nDHV1XVYrH069fvwIED5MC8ms1i6aq988sM6FCUZXSxG1rgUsDpdIJdUDgY6xbESwnpBeNAZOETMBRkp/Lxpzo5PqRXSEgI+FcpH+Sq3U9EjvLlA3hZkLqqcg1TBOoQfr0RHeM62ghcCvDJcr+UWXfVgoYiQHmt27OIIhOCsMkuE/4XluQKCYVNdnmg6G0B6vtCrihA/Ze5/qh/PnHuCkPAsKh6c9o6OThsYgTJ/o+x6SreTIxX881fTtCy560xMfiXAtQaBgMuttdLAZlrtUo7NU1yASTNEjfHpaB3UvTegdT+7WrWjIVNdpkgXdhvntVF8YfAr4CyhAHhhKlbYMdEHEg4FX8FlIJftxXEkt5/OcAgu2rnuZBklwkBuhKRUNTT5VyxILWU10/rlxfuisTPBnqvZpsgAD87FHU4D6neiwqqqNFonRy/wUF4Fy8TaIbxDQCFMlvnwHwOMMiExlDnoBoSEaH5dfCkiHU7D4nJl2iyr+Y8MpH6IiAgINDwQLyX7BeIgK8qXKW3LSAgINBwAQE2bNgw5C5KkgTW3Pq+rnqDsMkEBAQEGiQCusZczYRhQpIJCAgINEhAklFj5Ks5Wnn1WqMCAgICDRSUc065+MRbf3VC2GQCAgICDQ9+v99isVD7vau8BELYZAICAgIND6BZcbvd1M9F2GQCAgICAg0GYAuyWCzEu4i2YfV9XfUGIckEBAQEGiQEFz5BeBcFBAQEBBo2hCQTEBAQEGjYEJJMQEBAQKBhQ0gyAQEBAYGGDSHJBAQEBAQaNoQkExAQEBBo2BCSTEBAQECgYUNIMgEBAQGBhg0hyQQEBAQEGjaEJBMQEBAQaNgQkkxAQEBAoGFDSDIBAQEBgYYNIckEBAQEBBo2hCQTEBAQEGjYEJJMQEBAQKBhQ0gyAQEBAYGGDSHJBAQEBAQaNoQkExAQEBBo2BCSTEBAQECgYUNIMgEBAQGBhg0hyQQEBAQEGjaEJBMQEBAQaNgQkkxAQEBAoGFDSDIBAQGBvy5UHYwxTdPwpqIo9Cle0EdXJ4QkExAQEPiLwuPxyDo8Ho8kSWvWrLFYLBs2bIAwk2X5+eefN5lM69atI6l2FUK6yiW5gICAwF8Zfr+fMWY0GvFvTU1N06ZNGWONGzeuqqoKCgqCtPvpp58iIiLq80LrFcImExAQEPjrwmg0SpLEGNM0zev1hoeHP/7447IsV1RU+P3+2tpaSZKWLFkSFhZW31danxA2mYCAgMBfFIqiGAwGVVVl+X9Wh8/n8/v9ERERXq/XaDT6/X6r1Xrq1KkWLVrgy/V7wfUFYZMJCAgI/EVBYkzTNE3TXC6XyWQymUyPPfYYibEFCxa0aNECX67v6603CJtMQEBA4C8KVVUlSZIkSdM0+BgBp9MZERGhKArcjI0aNdI0TVXVq1aYCZtMQEBA4C8KWZZ5Meb3+2GcBQUFLViwwGg0PvbYY40aNWKMeb3eq1aMMWGTCQj8XiD72WAwUFgiQF8WELgMOHfuXHR09NatW4OCgq74eYi15vV6zWYzHzUkCEkmIPBHIEmSLMuo4IFUq+8rErjqAHPNaDSidJom5JUHUhwVRYG7NaBU3Fivlycg0MDAp4dBevl8PpPJVK8XJXD1AmYK08k+LjZWrgzwOZwej8disTDGeANU2GQCAr8PEF1QD7GoEJav7+sSuIqA5A5yJ/Iv6vvSLhUuzmfhfSFCkgkI/G5omibLMjLHGGM/67gXELikIHcizT2XyxUUFFS/V3WpAdEFyW00Gkl+CUkmIPBHgGoev99PNEICApcN2MopD8JgMFzZiYsX+/ARICSbTCiSAgK/A9D8NE0j3ZAx5vP56vmyBK4yqKoKMeb3+81mM8TYlZruwRgzmUz8ovN6vQE3K2wyAYHfB6jDSBtjV3Tqs8BfHJT7cDX4Bih3ETV2TE/dxKfCJhMQ+H2gSlWsIiHGLj9Ihwjo10X/wkoGizwp75RrSt/EO/iCoih0QLwOOKmqqvQmbxB4vV7++JcTEGOMY8q/ggG702Aw/Gxui5BkAgICDQk+nw/lRCgtgoDBNidJksfjYYwhpmIwGHw+HxIiKD2HD7fgV7IsE0GGJEk4/s8qKHyiIIk91OrSNVBXTIHLCSHJBAQEGgwcDsecOXOMRqPBYAgJCZEkyWAwGI1GtD6RJCk0NDQuLs7pdMbFxdXU1Kiq+tRTTxUWFkKX93q9NputvLwcIpDMKbPZ/NFHH2VmZiKzgIRfeXn54MGDcWQ6hSzLFotFluX77rvv7NmzjDEkslJFlzDTLz+EJBMQEGgwCA4O3rRpk8/nU1XV4/G43W5N05BEWlJSsmTJknPnztlsNlVVQ0JCIKimTZu2f/9+v9+vqqrb7aY0v0OHDkEWQhwOGTJk4sSJFouFhNaePXuaNWv24YcfwuRSVXXt2rVFRUWapuG8b7zxBkjokUcH+ScyD+oFV753VUBA4IoBbCl0OWF6oAg2kMfjoYgX/IqaplkslptuusnhcJw4caJDhw4WiwXiTdO0vn37er1elAa+8MILwcHB586da9as2YQJE0wmE87icDgee+yxbdu2+f1+nGXBggV0MSNGjNi+ffs111yDfyHtFEUB6YbA5YSwyQQEBBoSNE179dVX4S2Ery85OVlVVaPRaDabZVnGR0hPZ4y53e4HH3zwgw8+8Hq9siybzWYEusDM8vTTTxsMhh49enTv3v2666678cYbg4ODbTYbDCyr1fryyy+7XC6fzzdlypTs7GxNh6qq77zzTpMmTSho5/P5DAaDoC6rFwhJJiAg0JBgMBiCgoIyMjIgUY4dO4bMPavV6nQ6+WxGyBur1dqmTZt58+aZTKZz585B2Ljd7pSUFEmSli9frqrqgAEDevfuPXHixLvuuktV1fj4eFmWU1JSVqxYIUmSxWIxmUxbt27t378/SUq8mDZtmt/vh8fSbDZ7PB4ULNfrCF2NEJJMQECgIUHTNJ/PB2nh9/t9Pl9ISIgsy263m3frWa1WYnKSZRnuwbKyMpPJFB4ebrVaY2NjKysrk5KSzp8/T2aWpmk1NTWJiYkVFRXLli1bunSppmm1tbVvvvkmAnKqqsJvuX379ry8vC1bthC5Bqq7YJnVy8hczRCSTEBAoCEBMoxEFPIGmV49BipCKhSjhHjYbV9++WWTJk3wDhhpc3NzGzVqRI5KSZLCwsLy8/NxNMik3bt3//3vf5ckyWQyIT3EZDJNnDgR36FMRQTthHexXiAkmYCAQIMBkVmMHz8eSYZdunSpqqry+XyNGjVCSiHEm6ZpJpPJ5/PFxMTs2LGDMfbVV1+tW7fuu+++gwUmy7LT6YyMjPR4POjFDIek3W6HFxHisLS0ND8/Pzk5GUYb7Da73b5jxw4qTBaodwhJJiAg0GAAMSZJ0o4dOyBanE6nzWYzmUx2u52oLmpqag4ePNi4ceOgoKDx48dHRUWVl5cvX7589erVqqpmZmYinBYSEpKfn2/RYTAYZFkOCQnJyclB6KuwsHDTpk2jR4+OjY2FNQYxGRYWFhUVJfg2/zoQWfgCAgINBkiviIqKoqwKk8kEi8pkMrVq1QqhstraWkmSSktLW7dubTQas7Kyxo0bl5ub26dPnz59+ixYsKBt27Y9evQIDw9///33kcSIv3Ba4oCMsU8++WTJkiUnTpxISkpaunQpY0xRFDQTeeWVV0Q87K8DYZMJCAg0GKBmmTFmMBicTidjzOVyzZ8/PzQ0tLcAFfoAACAASURBVH379s2aNYMEuummm95999127dopihITE4Ny5sjISE3TzGbzjBkzsrKyVqxYgcCY1WqVZRlJ/AiGmUymoKCgFStWTJo0qXnz5n6/PzY2FtaY1WrFd2bPno04mcBfAYILX0DgdwMke+D9q+9ruRoBvyJMIsS3kBlPRdN4Lj6fjyTfxd1QcRAIM6/XS3Vm1O4Lh2U60SK+jEAdkdAL1BcQ6RRc+AICAg0PxHlPMoZxTPCyLIP/F+8j1ZDoEJnOYe/1et1uN+JeKP8ym834IY6Gvl8GgwHfx/skxhhjFouFp8YXqHcISSYgINBggBbJUMZ5oUVGGCXBUyCNbDKy1cxms9VqpQYu1C6E6aYbjDl2ITUwImSMKwMQFvlfB0KSCQgINBjAflIUJTc3d/fu3bzPMDU1de/evSTAiM9ekqTMzMzt27ejaAzBLU3TSktLx48fX11drarq+fPnZ8yYcf78eT59H8dxu91PPfXU0aNHDQYDhB9IHePi4iorK5ne8OyXupcJXB4ISSYgINBgYDAY8vLyLBbLnXfeOX78eOq0IknS1KlTH374YaPRmJGRgXcolub1eskIMxqNSE3s0KFDbGzsnDlz7Hb7c889t2XLloiICKQvwmjLy8tbu3ZtaWmppmlOp3P69OnffPPNQw89dOTIEcYYqtkoeAYTjfdkClxOiIwPAYHfDZHxUY9AikdBQcHp06cfeughkHrIsowKs4kTJ2qalp6ePnHiRDwjxhg9LBJmaWlpDz/8sCRJubm5r7/++vXXXz9//nzGWGJi4rBhw8LDwzdv3rxq1apTp049++yzZrPZYrGMGjWqX79+brf7iSeeGDlyZG5u7oIFCxo3boyr8nq9CMtR2XU9DtHVgICMDyHJBAR+N4Qkqy9AjBmNxkOHDkVGRsLAYoxBhGRlZT3wwAMIlVEA7MSJE6NGjbrhhhteeeUVpNQj3KVpWnJy8vfff79o0aK2bduePXv2kUceMRgMP/7445YtW3r27Alp5HQ6Y2NjZ8yY0b59ezq7w+FYv379o48+2rRpUxB/4KTIaaSAnMClg8hdFBAQaKhA9xbGmNvt3rVrl8PhQIDK5/OlpqZSUgbFz9xud0ZGxsSJEwcPHvz22297vV5KdExKSmrTps2mTZsqKioMBsPUqVOzsrLefffdL7744o033rBarXFxcTNmzAgJCXn++ec7dOgwZMiQN99884EHHjhz5gxCZcTWCDGGdmjUyUzgskITEBD4nSBWiPq+kKsRNpsNexdkFXx66L3CGDMajTNmzLDb7ZqmKYpis9ny8vJ27tyZnp6enZ0Nniow6GuaVlVVNXz4cHZhZMtqtQ4fPrysrAzfPH78+ODBg48dO4azl5eXx8TEnD59OiEhobKy0u/3K4oCwkYcE7+ql5G5qoCQJP0rbDIBAYGGBHQUKy8vHzNmTGlpqdfr9Xq9JSUl9957b1VVldfr3bhxY3BwsNfrffrpp1u3bn3HHXe43W5Zlvv06VNcXJyVlWUwGGCZuVyuvn37ut1uiCJFUfx+f3V1dd++fZF/bzAYUlNTDxw40K5du9zcXMZY06ZN//nPf4K/qlmzZnPmzPH5fFRqFsCOL3DZICSZgIBAgwGs4fz8/GbNms2bN69du3Y7duzYtWtX27ZtH3/88ebNm+fm5qJ989y5c1u3bg2GRnAzmkymhISEr7/+OiUlBZkgZrMZBWqKomRkZGRmZqIaGmdBzxe/3//YY499/fXXH3300YwZM0BV9c4778TGxpaVlW3YsAGuReQxGo1GlLvV9zhddahLBmEKpcJJjdkg1JM6B2X6oqcfKY/1fV0CApccsiwnJia+/vrrOTk5SUlJH3zwgaZpkiRNnDixU6dOe/bsmT179pgxYzRNQ+4iz9MxceLE7t2779mzZ/v27StWrIiNjdU0DbuWwWAoLi4eNmwY09cX/hYXF8+YMWPDhg1GozEuLo4x9tJLL8myDIOPLol/wXf7FLhsqLPcRWymoC/D5BDb6yWF2+22Wq2MMYx5fV/O1QVN5C7WEy7eVdB77KGHHiLiRKYr05SC/+qrr5rN5gkTJjCdB4RnaPzmm2/uu+++rl27WiyWHTt2jBw5ctu2bY0bN4YZ53A4EhMTo6Ojb7zxRsoWsdvt69atmzFjBvXtFLjM0C5R7iJ0H5Tf01QTte51Dq/XyxjzeDxo7o4xr++LEhC4TDAYDGVlZffccw8VRE+cOHHixIkhISHgqh8yZEhlZaWmk3GAmCMiIsLv9xPpFGNMluW8vDxZlg0Gw/Tp0/Pz83ft2rVt2zZN0zZv3jx27FhZlj///HPGmMViQXYPiTHiHRb7218HdWaTgXDz4izYujq+AIC6GdCe8kTd9X1dVxeETVaPgMuH0keJLxEPhTfL8OJnufDx7IjRirfz4O1QFAWfEgt+gI6u6SzGAvWCAJuszuJkBoPBYrHwTVTFIr8UwJPjVxFpiPV6XQIClwMkqJDHQWRUJpOJF1Q8lbCmlzPTC5KF9E0KmGmaBm8HrSmK+pPiCK8jotSXfwQEfhZ1yfFBZDAA1BaRxlO3gCIJv6LI9agvCJusfgGzSVVVv99P3nXqHM0u7ChGPgxe4UN0mY/u432SWxdvXPyb+CHluAlcfmiXiK1K0wmkobCwC9UigTpEgMYAv67YUi8nhCSrR/DudNLkeGe7z+fjg8f/q5zVRRrfJJPWjsa1hmGcoSZJEv+aPsVPxP5Wj7hUGR8ouqanC3kmIqKXFJSaJfZTgasHxcXFPXv2JF4PvAApvizLt91226lTp7Dz5OXlZWVlMcZgZh06dCgxMRFNMhljZWVlzzzzzE8//RQTE1NVVYWGL/ho165dsiynp6czxkiMeb1eZIWYTCaj0Sissb8U6kySQTyS9U196urq+AIXA0qoEGMCVw80TTObzYMHD66trdV0Xig42zVNq62tHThwIOQWY+zTTz/t0aMHY2zdunUlJSV8/0zo3LIsezweCKq0tDSLxQK98JtvvlFVFVn7ZHmbzWav18unWV3s0BKNpOsLQtIICAg0GEiS5HA4IM/wDrg54EKkvDOj0VhaWvrDDz+0adOmoqKiurr6hhtuCAsLI2pESZKcTieqWajJ2YEDB/BpbGwsUh+3b98eHBwMvg9ZlidOnDh9+nQYf3gTdpumt58WCdv1BSHJBAQEGgz8fn9wcLDRaNyyZQsk0IQJEyZOnAiejrS0tJqamuDgYFVVCwoKGjVqpGna8ePHk5OTQ0JCevbsmZiYCOr6HTt2hIaGIt3D4XDIsoyj0Ykgkx5++GEYbV6vt6io6JZbbunbt++5c+fIEHz44YeZXuXJZ+3X0/BcvRCSTEBAoMEA2fN+v3/y5MkwsFJTU9PS0rxer6qqkyZNCgsL83g858+fh6EmSdIbb7xRWFioaVpubm5SUhLE0oQJE7xeb3Z29o033piZmTl69OizZ8/2798fxpnBYOjWrVtxcTEIGxljPp9vz54948aNGzlyZGZmJuMqOxlj1MwFEk6kE19+CEkmICDQYIBgPLIwdu7cKUnSI488MmnSJIvFkpWV5fV6kZrxr3/9q1u3bmFhYSdOnGjevPmNN97I9FIwxhj1FbvrrrtcLpfb7d63b98111yTnJyclZXl9/udTudDDz10zTXXMMaMRqPP51u1atWdd975t7/9rWXLlt27d09LS+NTIgMoZ+t1hK5SiEEXEBBoMED+hdvtBj3ewYMHIUiys7OpX7PRaAwODn7ooYcYYx07dly4cCGCahRao9rqDz/8MCgo6N577z1//vx3333XtGnTgoICTdNOnDhhtVqbN28OcbVmzZr27dtHRkYqiuL1eu+4445Tp06lp6eTO9FoNLpcLsYYSEbqbXSuYghJJiAg0GBgNBo9Hg9kkqqqAwYMAHdiv379goKCPB4P0gtHjRrVtGlTv9+fk5OD7AxJku644w6bzYa2LNHR0ZqmDRgwoLa2tlevXi6Xy2g0duzYMSIiIicnJy0tbeTIkXAVTp069frrrx83bhx4HUNCQjweT2xs7KlTp5KSkvx+P+y8oKAgJnI96g+iJEJAQKDBAFEoyJioqKioqCjG+fRQxezz+VRVrampMZlM/fv39/v9+DQnJycnJ2fp0qUooy4uLg4NDWW6dDx27FhMTEz37t0feuihqKioDh06MMYSEhJmzJgBQxCWHGJjt956a2pq6t69e5955pmlS5fi2nBY4nsUuJy4HJKMb1TGsyvhNVVm8IwyAaX71JEroGsD49o3wKvAH5PpZKP0L89hQ7+l8n7+SgIitwGkUBfTlUIvg6+cWN0oJRffIXKBgMtgHJtiwE8EBK4MBOzyNL0vXtEBk5+opPA+FuwHH3ywZs0arFC+hMtisbRu3Xry5MmIpSmKQis3gNNc07QjR440adIEUuqrr75q1apVSEjI3LlzDQbD2rVrW7du3a9fP5vNRiQPkiSlp6drmjZhwgTsUehwRjcYcGu0a/Gn5vkbAzYBulkRbPsDuOTjBYWIJivJgwBJgAJ7esYBcxp2PXKWaH4wToyhnTkdAfOM6ZlOlBeLacfPEpyCLg9fRhoS6Ij4y6bkWjg08DVVVVG/gsgw0wuW6Yx4QU58zHh6nzGGMDUOpaqq4EASuPJgMBjcbjd6VPJsGkjQYNyqxKdYeoqiQIzRWkN3lbvvvhuV0W63G5IMKCsr+8c//oFMQmwayLPH8RVFcbvdWNqSJJWUlNx5552hoaEej6egoKBly5Y9e/acP3/+e++9l5+fn56evnLlSrgiUX/NGPN4PJSszwtRbEGos6aKaVwAu3DDweaAr+EiaaMgDkmyLy/b07kCcAkZhAnU2phdSNBJQo6oGnmQYhJgZgGULETvk9JHso3/KKBBAxhISZwEHJ832iBj4HyHbFNVFR6MgAIUh8MREhLC65iazlhPBG4YB2Kk5L/z2xtm/tI4C1w2aIJ38XfiYnZQLFKe2Jcn5A1Yj9BN8WkAoSvpiKRxXtxLM4Dql3ex/GxbYBwTf2kToG0B90K7Fk9GTBdPXlCmW2m1tbVhYWFM16f5W/7Zno6a6Brzq9AuEYMw++UdFk8rwNEXMHXwL1QeXB8vBjBpyANJ7zPd/OIdCAHTAiKT9/vRQOCbmKN8dQj+Op3O4OBgduEi5OUl02UkXcPFHhJIa9wL/yn/GKQLibp5htPfNc4Clw1Ckv1h8K6zi3VcvE+aHwmki39+sS4bsD8w3awheUPqI2muFy/Yiy+DP3JA+6SAWAk1fyFCVJwXexq7cCsLUN9/1vsqSNh/BdolYhD+Jah6r1VyJsAhYDAYEJhl+oRWFIV4z0iMwatAfmocE+4CCmgF+MExIeg7TA9f0REwv8moooAwJiJ5JoODgyn6hR8i0Zbp5n+AKKV7oZvFbcLFwTgnA0lcOhfT567X6yWGUwGBKwx84EDTmQ9JsfP5fIqi8EzztKg9Hg9jzOv1QjGFGMNaI/8khB/kE9amyWQymUz41Gw2SzqYvtxwdnJ4Mn2R4hSkvPL7DN4hXw5tNdi4FEXJz8/fuXMnbV84L3/L2LhIRFFIQtWborndbnwkxNhvxyWXZDRxEclUFOXrr7/evXs3Y+ybb7654447JEkym82IM9lsNsZYbW3tvHnzMOfAdU1cMmhVjkOdP39+6NChCO2CqwY/GT58eHV1tdlszs3NJaps/NZqtUqSFBISAn623Nzc2tramTNnms3me+6556233jIajSaTKSsrCxbbypUrDx48mJ2djSOMHj3a4XAoiuLxeKZPn37o0CFN06jh3pYtW86fP28ymTwez5w5c3BGo9E4dOjQsrIyTHev11tdXX3ffffl5+dDMYSUxRrAKGmiqZvAFQeIIoS6GWOSJKWnp6elpZHcYoyhc6bT6RwyZAg2BCiCkiQFBwcPHToUWzyWVWpqKrYRLNXExESsPsq5T01NpT2ENgccavDgwWVlZbm5uffcc09lZSW8+oqizJo1Ky8vj+klYkxXspkevUtJSUlISCC1FWdfv349jizLcmhoaN++faOiorBfmUwmSZJmzJhht9slvUX1/v37JZ25UZKk0NBQSZJAPoKAXFBQEEZJ4Lfjku+YmKOQYbBOfD6fw+HApw888ABUFb/fX1xcHBERoapqWFjYiy++iPdBSIMIMP595ZVXNL3JQrt27RwOh8vlAjeaqqoOh6N///44eGRkpN/v93q9OFRSUlJ8fLymaS6XC0eLjIwMCQlp27btl19+2apVK0VRUlJSPvzwQxC47d69G2aiLMspKSlVVVW333672WyWZXnPnj0dOnTIyMiw2+2UYzlgwIAVK1Y4nU6fzxccHHzy5ElVVc+ePdumTRuz2YzVcvLkyQEDBrz//vt9+/aV9MizJEm9e/c+deoUbkE4DwWuPFgslldffdVsNkO5NBqNkyZNevTRR+lfg8EwaNCgc+fOeb1evMDadzqdmqbV1NRERkbiHUmSHA5HSUnJF198AZEQERGRkJAQERGB1TRv3jwITqikmqYdOXJk06ZNkBPV1dUDBgywWq19+/bdunXrggULjh49yhgzGAw2m+3FF18sLi6mEJfb7R40aBByN0wmU3x8fGJiIrRhSZK6du168uTJmTNn4iyqqrpcrry8vG3btmFHwpa1efPmdevWkSgNDQ31+/1ut9tms505c8blcqmqunz5ckho2JQIxNTzM2tQuEySjOJMiYmJAwcOnD59+rBhw6qqqsA3g+nYqVOn6urqgKRV8vthf6egFFSt48ePh4SEwIeA2RYaGpqTk6PpuUPIzigpKencufPRo0ebNm0aExODlkU4i8vlcjgcEFfUUE1RlNDQ0NraWhh/UPoKCwvbt29vsVh27dq1f//+OXPmjB07FuoYvIgdOnSIjIz84YcfDh8+bLfbmzRpIum+dTgQtm/f3rFjx5EjR06bNi05ORmHLSoq6tmz57x581q3bk3JTpKIvghcWVAUZcqUKX6/v6KiYuzYsV9//bWqqh6Px+FwLF68uKioSFGUjz76KCIiAgIASRyMMavVSiEl8lV89tlnISEhq1atwperq6uTkpLOnj2Lf1944QWTyWS1Wt1uN4Wsamtr8VtsOMgebNmy5fbt26urqyVJslqtLVq02LlzZ6dOnWALgmX4ww8/rKqquvvuu/Pz86EWu1yu6Ojo0tLSI0eOtG3bNigoqLi4+NZbb4UR1q9fv8mTJ0NCGwyGgoICv9+/dOnS0tLSxYsXO53OsLCw22+/3WKxxMXFtWrVymAw3HPPPVVVVbh43CZ8mxR6EPj/4nJ4F2FUQa7Ex8f/5z//SUtL++CDD8LDwx955BFSZwoLCxs3bgxxFfAI8YApLRUKi9/vR8sG7cIGRXfeeSf9vLq6etiwYS+88MJnn30WExMTHh7+0ksvweR/7bXX4LaGrwDGInlBqbADH7lcrj179vTq1SszM/OVV15ZsWKF1Wrt37//9ddfP3fuXPJr/+Mf/6iurl66dOnKlSuRp9SoUSNFUVq0aBETE/Pggw9qmpacnPzyyy/fddddUEWff/75vLy88ePHY/ry9/uz0LicLspUpk8xRBpX4/Irx/mlj+hXlHxMicKannPMfiFLmD8svoabIm9MwKH4T+GApcPy96LpjHn0gj8XvknRC7r4Xx8BgcsJcl00btx4w4YN2dnZeHPlypV///vfUYaMh2U2mw8ePGixWIKCgiB1goKCLBZLfn4+Jr/dbs/MzLz++usrKyvvvfdeg8EQEhKSkJDQokULo9HYrVu30tJS7CGTJ09GvKBjx46LFi3C66CgoE8++cRoNCYkJMBou+OOOzCvKioqEhIS7HY75tL48eNtNpvRaGzcuPG+ffv69u2LoFdQUND69es7deokSdK0adPcbrfJZJowYQJ005ycnNTUVMi8V199FcsclW2Snr4/aNAgl8uFEJ3b7e7Vq1dA9hAFHerlYTVIaHWHXzoa+feAQ4cObd68OT4+Pjc395ZbbuEvJj4+3ul0zpgxg1IkoIXhuVL8MyYmxuv1VlVVIU6GNymtaMiQIWi7EB8fD8sPO3JeXl5mZiZVnyxfvjwuLm7atGkUyOUTkx566KHMzEybzXbo0KH9+/dHR0fPnDlzz549Xbp0uf/+++mCDQZDXFxcdHR0bGwsYywpKYkaIJExh78ul2vmzJn4lSRJNpsNI1NcXNy1a1es2JkzZ1ZXV/+WccYdoSiH3se54MjVNM3tdv/KQfgfapwqQF5crDQCnZF6GwYcxOv10vV4vV48dP7L5Cim+YArpBHjD4vLoJ/T2fE1OhT9ED4o7cJhx4l8Pl/ADPzzUPUixbo97BWPVatWBew/FAmTZdlms9E81DQNDjpFUfh5rijKa6+9xhhLT0+vrKyMj4+vqalxOp2JiYmVlZVOp/PJJ58sLi7WNC0tLS01NVXTNLfbXVxcvHbtWogTcE2VlZXhOxSgUhSlvLw8KSnJ4/HwpysuLn722Wfpegjx8fH79+/XNO3s2bN33303bSPoZ4ZlbjAYUEytKMrx48cXLlxot9uLi4thnL366qsHDhzweDw2mw0aOb5Ji+jSPowGDl4n1jTtcnB8UJGHpmmSJL3yyiuffvrp3r1727Rp8/nnnwfUV0mStHHjxvXr11PKfmVl5Ysvvrh8+XLMDMrpb9y48QcffKBxNgqfmKuqakJCgsYl10ZGRqJpOtSfpKQk2F6tW7d+8MEHn3vuuREjRnz11VdDhw49deoUY8zj8eDaLBZLq1atBg0a9O233x45cgTmWnp6eqdOnbp06YKMeThP9uzZ4/f758yZs2XLFj7ladu2bePGjXvppZdmzJgRHR39ySefxMXFJSUlMT2FsmvXrrt27erYsSNuRP3lIn+qFeUzgCnDmOc6gX/ml9Q6/n3tIvsM8XaqoiPbFN5apieMURkNvY+Lp9d87QEOaDab6U2LxYIiIQqj8gnQjGuKTZV82PLIjKYnHhQUpHGU5PzoiS71fxGoqurz+fLy8iIjIzUuz97lcgUFBeH1iRMn7r//fogixtihQ4dUVSUvS5cuXXbt2vXjjz++++67586dUxTl888/Dw8Px/FXrFjh8Xhuvvnm8ePHM8aMRuMNN9ygqioKpZEKD2GGWlLGGHwhjGP+hdSkaYnJlpqaunDhQlSYURhbkqSRI0cyxpo0abJv3z6qB923b9+ZM2cmTZqkqmpubu7p06cZY9hJEAljepZKaGgo+oIyPRcGF0ll3Zf/GTVcXPLBQuIs0xOTli5dettttz3xxBNOp7Nr167Y15BGgdDX3LlzHQ6H0Wg8dOjQ1q1bGWP4gtvtzsrK2r59O6YCAmyk0ElcaiI2u4SEBMZYdnY2HAJwW4eFhWEy9ezZ89ixY5qusGMCIZgny7LT6US2JO3gPp+vXbt2n3322YQJExDsjYqK6tmzp9VqNRgMYCl1uVzwzs+ePXvNmjU4uN/vnz59+g033IClEh4ePnr0aCgRmzdv3rJli6Zpbrd7ypQpqLbGoP2KTwwXAwHD9Npq3CNuARoAX3L3W4BxY4zh9vEmno6m99GgcIXf7/f5fFi3VNxKhQfkJsXOhe2DMqHJE0u5y7gFTA9emSUvImwv3Jqs0yjgI6qvgN4AvzGdnaT7bxwEgUsH6BmhoaFNmjShaDQeELh3kS6vKEpMTAzIOFasWGG322VZfvLJJ7HRT5061Ww2z5s3Lzg4WFGUZs2avfHGG/iyzWb7/vvv3W73iBEjKAGY/IHdunWbO3cuHH3BwcE5OTkWi8Xr9X7xxRerVq0qLCzs0aOHLMvNmze32WxBQUEmk+nee++trq5mjHk8nkcffVRVVbfbDTmH+bZ8+XL4LVatWoUdBnvRfffdh77SZrN50KBBEyZMmDZtmsPhoPIyiFJZlh0OBxRl6J1Q0JmeVUB1aQK/BZdckmG/gx/JYDCsXr26Y8eOsix37dr1yJEjHo/H5/NlZGTk5ORg43vhhRdCQkKKiopef/31yZMnM8bgXjCbzePHj//uu+/279/PGINXGtNC07QDBw7Ex8eT70vTNCT0m83mJUuWwPaCYwFXEhUVhSISWZbLysrIpda+fXtFUYKDg1HagulIlkTz5s3Xr1/v8XgURcnIyIDj3u/39+vXD5JA0zSEhZs0aZKenm4wGJKTkyMjI5FOqWmax+PJyMjAjJ8yZcrUqVOxurZt24aEJVzJr9eRaFwYDFoCpAJSpxhH1vUb1boAuw314BUVFYmJiUiswvsGnbkV8QZN086cOTNr1qzKykpILKZHvA4dOoSlmJmZOXPmTKPROGrUqPLycr/ff/r06cWLF1dXVy9atAiDtnv3bizygoKC6OjompoanM5oNB49enTv3r1I6Nq/fz8UVWgPcDExvfZ8165d0dHRdrsdJilf2yeIEv4KwFKCgkIJXJjt5CmCRmu32/FaVdXg4GCv1xsSEkIlmEhKJMUrJSXlk08+OXfuHGMsPDxcluVVq1a1b9+eMXbs2LH8/Hy4BIuKiig9xOFw3HbbbVjU7777bt++fTt27Pj5559rmlZeXp6YmAiJ9e677zZp0sTv9wcFBW3evBnSBboyFLsVK1bAsly6dCl5v30+38GDBzdu3AgNNTs7e/v27Vu2bMGa+te//tWkSZPt27fX1tYajcZz5841adLE4/EgEs/0Xmh0d2Lq/nZcjspoxhhmACRNaGgoxMmxY8dWr14tc00ZJEnKy8vzeDxbtmyZOXMmlehj0jPGHn/88Q8++ODYsWNIY33mmWcKCgrwnaSkJARjJUmaNWuWy+Wi05GhBj0dTqqgoCBZlk+ePBkUFBQSEsIY+/bbb2FFybIcFRU1adIkTFDoX02aNGnZsqXRaJw7d25VVZXP56uqqpo1axZ2bfj3tm3b9u9//7tnz54TJkxgjEmS1L59+4kTJxLLnMFgmDp1KlZXVlYWCU28cgAAIABJREFUbDJFUaZNm8Y4N9qvjKem53NiATB9j4AsgZONRv6P6XTYXwwGQ35+flhYGASJJEk9e/YsKSnBMEIPgB1pMBiota6mFwbt2LEjKyvL4XAEBwd/8cUXffr0OXfu3Lx583744QcsV4vFcvTo0YyMjFatWjHGysrKUlNTu3Xr9vbbb9NldO7c+fDhwwUFBer/Y++846Oo1v9/ZvsmmwKhXhEFpAtSROnBG6oK6OV6IYAgkEAo0i+dhHSq9GIoQgog197ACukEVBBIIyDI/dLS+9aZ8/vj85rzGzaI4qVk4bz/4LVsZmfOzs6cZ57nPM/nkSSTyQQ5V0rpvn37WJaHRqMJDQ0dM2bMnj17MJfhijIajRs2bIB/yZ9tHzowIYWFhX/7299wLyhrQFlemCiKcNEIIQiNUDlfDGEAXGnu7u4IVi9fvvzYsWONGzdu3rw5HrBwd8PgNWvWDLaTUspWARC8oZRWVFRcv369devWCO3gYRfPr/gUHtqeeuqpzMxMRA527949ZMiQ4uJim8125syZL774orq6uqCgYNiwYXgkRe5iQECAIAhubm69evXCTRoVFdWqVasdO3ZUVVVFRUWtX78+IyNj3rx5Y8eOvXLlyvLlyxs2bIjnUTzFUoUuK+fP8CByF3FVEXn1paqqymg0VlVVbdy4ccmSJQkJCVDwxKJ93759165dO3To0GbNmhkMBlEUr169imwimJ/x48fDABw6dGjp0qXvvfcewk2LFy+mct7Btm3bEIySJGnRokXsbkGoQafT4VOEkFOnTr3wwgsGg6G0tPTEiRO9e/dm4TXMkrgHQkNDKaUtW7YcPnx4REREvXr1BEH429/+tmXLlm+++SYsLEyn0924cWPu3LnIZNHpdGvWrNm2bdvo0aPDw8NZ+FsQhJiYGDycjh49+q233kJcIiYmhqUq3LmURJDrK3FnIlgHm7127VqcJaxvqWRtkT8Js3yYX+BrlpeXUzmN4scff2zTps2xY8d0Oh3CI/Xq1du9e3f9+vVxVgVBOHPmDHxoQojVakXMkMoV35inLBYLYilWqzU3N7dFixbFxcUTJ04cM2bM+PHjc3JyfvrpJyK7gDNmzDh79qzFYomJienfvz9iMipZpaa0tPSVV1755JNPNm7c+Nxzz6HJvcPhiIiI6N2797hx49zc3CjXr6sFUErPnj2r0+k8PDxUso4GS76FI4JYcXx8PC6nyMhIrCIvX74c/tC7776LvbFCY0EQqqur161bt2/fvlmzZuHaIIT8/PPPv/32G2v6DBcQT104rl6vv3z5cqtWrRo0aEAIQc8ztpZG5MB1YWHhrFmz0IosPz9/3LhxX331lU6nW7x4sdFonDhxYmhoqIeHx0cffUTlFKQffvhh79698MmSk5MJIXa7HbNT9+7dEQAPCwuLjo6+evXq4cOHZ82ahVQXhH+IQvWfG7O74DZJIX+V2+6NZQHhRWhoKCFk3bp1gwcPPnbsGKU0Li6OTTSCIKxYsQJbYj4ihKCwg96auhYeHj5t2rSqqqq0tDR8VpmCSAiJiIhwOBxpaWnBwcFUkQ6H/axfv/78+fOiKO7cuTMtLa1Dhw4DBgxYtGjRli1bCCHvv//+3r17CSGdOnU6d+5cRkZGaGgoy1xCAnGXLl3OnDmDd1ian8ViCQwMHDJkSFFRETtcYmIiIQTJitnZ2e+88w6lFE9/7LSsW7cOq9x/8jyzcCiltKKiYtGiRfBCqCJbkiVB/RmwDmGz2QIDA5UZwHitVqs7d+6cm5urTN9yOBzFxcVTpkwpKChQ/sSSJCUnJ+/fvx9xlTlz5pw9ezYsLCw7O3vq1KmJiYmLFi0qKSmZM2dOTExMdHT0jRs3Bg8enJCQgJHn5+e//PLLKSkpVM5bs1gsQUFBuAbwlSHEQAhJT09nqY8Wi2XKlCkYdmpqqjK78p4nGfLcxb/A2rVrs7OzqSKoSBUZejiZFy5cQBhQFMXw8PC0tLSUlBQUXzocjg0bNuA2ycjI2LJlC5KBcalQSrOysjp06CAIQmhoaGhoaHp6OrsXcnNz161bl5eX1759e5VKFRQUVF1dHRsbm5aWVlJS4ufnx+LwLLJHCJkyZUpISMh7771nt9txLBYFmTJlCsT4qSLdl81Xqamp9NYMWyjzUUpzc3Pbt2+Pi5mdh7i4ODwrK3Mm+dV1Z5xyFx9EFj6Vr1dlii29Nc2UJW0r53dmupgdUt4DDKd8d+Vmyr0pP4spkt6aya3M/FbaA+VfcXXWHA/7ak7fkX0jBjMGSsuqPO4fXsFEToIoLS2dN2+em5ubXq93c3Nbv36909Fve7qcUNr48vLyRYsWnTt3Tjl47HPdunW5ubnK00UpvXnzZmBgYFlZGTs5oiji2UI5NeD1wIED/f39U1NT58+fX1BQsHDhwrlz5+7ZsycwMBCN6lmS4ahRo8aOHbtnz54uXbp07tw5KysLh2Mnn408JSWFrSg899xzbKLEKim8Ujww3SvYGXZ6nuA8GNhd5nRtK+9HlrWv3Ex5u9WcH5TbKyefmrfznxke5wHwoC2ZVKMYiMr1VXhttVqVxgMobZjTTFFVVcU+qHyfGSdao9CKKkqanG4Ap82Ulo/K1zGiH063Ss1PKY+LfKo7GxJlxRV7B1/2DpMj4jBlZWULFy7U6/VY4SOE1KtXj32qpvm87X7oraYa0d3Zs2f/+uuvTp40pXTjxo05OTkpKSnMm8c6BzNaiO936dIlJycnKSlp9+7dBw4c2Llz5+zZs0+dOhUVFZWTkxMQEPDDDz8sWbIEPtnZs2eDg4NRSWO1WktKSpBjQuVSM2ZBYR1ZEjPsYlFREb5CVFQU00bBMLAZgjZ/xpzfLaxqG/zhBMe5V9S0K8izwDvKJ0tldSP7SE17pvwI24x9BC9g3tivjKmGP8E8XJws2X1fJ8PyKRPiJLL4gsFggMetTPXGnxxy+x+ieKJnmbtIwKWUKrt5IdcfkWUq9/Aksno9Zn+ieOrHlydyhxQqz00quRMgUTQnw8Kv8k9qWegae8NxJUnCCpPZbEaxFJEzIFBriaRHfATVMw65NSh7B+vYdyiBwipaQEDA2rVrmYKlVqstLS1lat8so/0OYGOIKeM3cnNzq6iosFgszZs3ZzUJrDJh586dDoejV69eOF0IRd68eTMoKOjGjRtUDrGePHmyZcuWKpXK3d3dZrNJkoT6B5QoQGEBuWEwhG3btt26dStGUqdOnZCQEBSWzp4922Kx4IcTRbFHjx7r168/c+YMrpnU1NSnnnoKVhyrp2fPnqWUFhYWvvnmm2VlZVar9cKFC5BZYXUa9wQsumClkKni8nW4BwZVyP2weYNlq6IYhsjzBu5WNI/GpzDJYIpAFolTfi8uMKQyORQqWbgXsA2mGuV6NptPlIPkPEjuuyVjy6dYzBTlAlhcJYLckYvK7Vcccr8GVkKI5X0YElxMakW3MLZ/5FOwBF9swEpVJLlxsyBXLAlyqrogCLh2KaXKdpcswZ31NmNd2EVF/yGYVWUlIw4qyT0aCCGoNYEmN3bFXAe27s0y79lo73A+d+/evWDBApVKhXnfbrd7eHjAliCx8A+faHA/I6GDyj6Qh4fHtm3b8A57GsW/Z8+ebd++vcPhuHDhwoIFC2Dm2RI6lWN6xcXFKpUKWaBMzbJOnTp6vb66ulqSa87w0+OX7devH54kbty4ER0dXVZWRindunWrVqtFnojFYtmxY4e/v/+WLVuuXbv266+/bty4Easp+PnKyso6duwoCIKPj8+ePXt8fHzUavUzzzzDjvhnHvH+JDDPkiQhb6XmVMi5r7AAAHvSFQSBPWIS+e5jEvusbJHID7KsSRMykqhsGpnZI/IlyuTwieJJWrkxlT05DOMBnwqOkvt+E6rlhoSskBYeDGqnBEEIDw//8ccf8aYoi48xK1JdXT19+nSU+mNecyj6HWRkZKxatQo2Q6PRrF279sKFC7isMcFNmzZNEITBgwd/8skngiB4eHjs378fe46KikpPTz927Bg+6+fnV1BQoNPpzGZzYGBgRkYG5iwMOyYmBpoCVVVVb7/9Nm4GjUYzYMCA8vJyNl0WFRX9/e9/z8jIQN4wi1USQux2OwqokUnMmj64ubnh9dChQ2/evIkzcIfJEVbc3d09KiqqpKRk2rRpmPFtNtv27dtFhcYHxv97+1GGBCW5iPjGjRvTp0+/evVqeHj4yZMny8rKFi9enJeXh8rTwsJCIt/ScEcgzQCvS5S7aVNKL1y48PTTT4uiWF5eDnlWQkiTJk22b99uNBo9PT2tVmtZWVnbtm0TEhKeffbZuLg41LxbrdaTJ0+iUAFF02azecqUKb169WrQoEFwcPCUKVPefvvt7du316lTB7UHkiT5+PicPXvWbrcXFBQEBgb+3//9H6U0Ly8PvilLnb0nsKcT/L7sBN7DQ3DuAJWfI+GHZWZmjhw5sqqqSpKlOzE/XL58+bPPPqusrHznnXfy8/Pj4uJSUlJSUlLCwsKY/sDq1auZtILBYNBoNHPmzAkKCkJVSbt27S5cuFBVVTV37lxBjmGg4o3ds7NmzXLI2qSch8uD8MmYI+JwOOLi4ljkKiMjA7mFffr0EQRBr9dnZGSo1ers7Oznn39eq9Xq9Xpvb++dO3f26tULT/F6vb5bt255eXlYuOrateuVK1dQb4TD3bx585///CeWVXQ6XePGjc+fP//UU0+pVKqoqKhvvvlGFMUPPvjggw8+QLxLr9eHhIQUFRX179/fYDBIkvTxxx+3a9du586dFouFpQujNgBOocFggD7IjRs32rRpI8ktaM+cOePn55eSktK9e3eUtaFkrUuXLufPn9dqtX369IFtZh5PdXW12Wy+cOFCly5dunXr1qBBgz8Tp6JySZnJZFqzZk1RUdHcuXOtVmtwcDArXmbKKXf+aYgsyoUT+N57740bN+6JJ57o37//0aNHjUZjp06dUlNTjUbjyJEjExISYCO///57Dw8PQRDq1KkTExODmgQ3N7effvrJbDYXFRUVFRW1bdtWFMXjx48/8cQTiPLBSMN31Ol0JpMpOzv74MGDixYt0mg00A1Sq9U9evRYuHDh8OHDc3JyUBT41VdftWrVaubMmU888UTLli2bNGnSv3//c+fOsbBSaWlpu3bt3NzcGjRosHv37qZNmwqC0KpVK8xZUHP4367i/w/CqpKsY8R+kXu1f86dQZQPFmvy5Mnbt2+PjY318PCIiorat28fMukppS1btiwqKvr5558tFst//vMfjUbTu3fva9eu+fn5IeZht9uXL19us9nCw8M//fTT8PDwkpKS9evXo6jZ4XBMmTIFv3Ljxo1v3rxZXl6OkMPVq1cnTZp08+bNiooKdKG67SAf/Jl5zHkQPhleYF1k9OjRkPvMz8/38fE5ceIEZt5jx44tW7asZ8+e+Iifnx/W8y0WC6Z+JHrYbLZRo0apVKqVK1e6ubkZDIZdu3ZBkyY5OVmr1datWzchIeG7774rKCggigJDrVZbUVEB04JyMVRHIlAAa+fp6RkXF5eYmPj222+PGzdu/fr1eODSaDRt2rTp2rXrtWvXjh8/brFYGjdubLfbDQYDAnqEkLi4uBdeeGHw4MEBAQErVqyAr3DmzJlOnTr9+9//btmyJVuHY1FTjOr48eMtW7YcMmRIcHCwIEu6/ZlnfNghSZJMJlNkZGRRUdHSpUuJ7PXCEXH8fr8+h9wpG+t5OAk6ne7FF1+klLZq1erixYtms7lbt24o53rmmWcEQcjMzGzbti2SjOmtCTLl5eUvvviiVqstKCjo16/f7t27x40bp9Pp2rRpM3r06JSUlJKSkgEDBrRo0aJOnTpYd6SUmkymmJiYV1555e23365bty4WC1u1anXkyJE2bdq4u7uHhIT8+uuvBoOhc+fOoii+8847W7ZsOXHixLZt2zp06JCdna3RaDw9PbOyspA65HA4oPSRlZXl7u6OvBvlkur/iEajwSOC8mGcr5M9MHDZoxvnvn37tm7dajAYDAZDcHDwxIkTw8LCEJKJjY2dNGlSv379IiIiZsyYMXr06E8//XT37t2Q49FoNDNnzjx69KhGowkPDx8+fPjSpUs9PT1RCkIUHUEJITk5OU8++aS7u3twcLC3t3ezZs3efffdBg0aeHh4FBUVqRSy4/yB5mFyD5cQbrs3lqnMMn+ys7M/+eST0tLSOXPm+Pv7E8WaPCEkLi7OaQ+SosbitolGlNKCgoLBgwcTxWpTQkJCZWVlWFjYxYsXAwMDP/7446ioqMTExIMHD8bGxiYkJKCEOT09ff78+fPmzcvOzk5ISBgyZAjrchQfHz9t2jRMizhcYmLiK6+8AhVtSmlpaWlQUJBKpZo0aRJTfxdFkSX4TZ06FQaY5fjigyzrEroksbGx9NaEwzvk8jpkAeXbniLlWXLK7ayJUxlAzbzN2w6GpWzdOXdL+ZWdclNZSQa9NTeVZTzXrG247YBZ+iW9NfHV6bh/ONS7gh0OlthphJz7jdM9kpiYiEosvBMfH5+RkcF+7v3797/xxhvTpk2zWCxxcXFTpkyxWCxFRUWTJ08uLi5OTEwMDw9fv359UlJSdHT01q1boVuPx9DNmzez8g920D179qB87c7XKr8kHgAPOncRB4NDhpWwzz777LXXXvP29h4+fHiTJk1ycnIyMzPfeecdSZJiY2NVKhWWTGDbnDSCEWPcv39/WVnZ4MGD2fvBwcGxsbGhoaGrV69G65Zhw4YtWLAgODi4ZcuWO3fufP3115csWeLn5zdmzJgvvviCDYwQUlZWVllZmZ2dHR0drVarGzZsCM9p7NixTzzxxLx581asWKFSqSIiIvr27fv555/Xr18fJ9HLy2vbtm0Oh2Pz5s2zZs1CJF2tVicmJuJSnj17NnpDq1SqqVOnMmVePMInJSUtX748NTUV5hzflMpZDL93MpFh4eQEKLdnuSd/6Iiw2KMymZ7tquYLwPIq76wxzzJrnPZP5KcNtgHbD3uauW2Zas0BK2XvneKoyuP+4VDvCnaWcP/wpf4HjEqlOnfuXLdu3RDd9fX1xeMgVp3Hjh374osvHjp0qLKy8u23365Tp85zzz03cODAuLi4goICLy+vioqKwsJCb29v3B1VVVXXrl2jlNpsNoPBUF5eHhAQgOXVmJgYrVabkJAgyPrjgiAEBATAq2PzEjpaEIXYKf39BhSc+8eDUKvCYwtenzhxYuHChT/99FNkZCRKiNq0adOuXbs5c+YIgjBhwgSbzcaECimldrs9OzsbvYWoXMkxevToqqqq5s2bow9ZdnY29OlhS/BEZjKZIiIiIiMjs7Ozg4KCvvrqq9DQ0O+///69994bOnQoLlaVSmWxWFq1auXv72+1Wk+dOvX5559TSuPi4r7//ntK6eLFi7dt2xYSEpKbm6vX63F7sAPBZhw8eFCn023bti0zMxPt1pYvX46rvHXr1qdPn+7cuXN2dvbWrVuRVUVl8SS9Xj9lypR27dph8ekOkUAOh8No3779yZMnq6qqAgICjh07NnHixEGDBn322Wfz58/H48WoUaP27NkzderUl156yW63P/fcc4IgTJo0ydfXt7i4uKCgoF27dlBuXLlyZVlZWevWrZOSkiC036JFi/z8fEmSAgICzGbzqFGjKisrly1bplzehkMQEhKSmpoK4XJya0uph32GHkfue+smZHzgIcVisXz77bdBQUGVlZWI/Hh4eJw/fx4C0oGBgYcOHWKfio+Pb9GiRbdu3eCfwSKyXZlMpvPnz3t7eyNbISAg4MaNG8XFxVjOYYl5VI55Qo2U5U+azWZkkOt0uoqKik6dOh0+fPjLL7+E5huOhYTAlJQU+FUajcZkMgUFBbVo0WL27NmCIJjN5unTpz/99NPIz9RqtePGjTt16pQkSQcOHFCr1aNGjSKEbNq0SZLFjQghgiBA5A13BYqi4LaSW3P3ORxOTQRBuHDhwogRI86cORMTE5OWlubj4+Pv73/u3LnTp0/v3bu3UaNGM2fOrKqqWrZs2eTJk59++um33npLrVZ7eHi8//77oigOGTIEFaihoaFLly5Vq9Xffffd+++/X1xcTOWA4bRp03BLVlRUpKenm0wmSRY+hulSqVSDBg3Crc2qd0S5XR+vzXjAPIiMD/jdmKyDg4N9fHyQho4M6VatWrVv337GjBlarXbChAl45HE4HGfPnm3UqBHaRe7atQsRP2S+VlRUGAyGfv36nT9/fs6cOVu2bNm6devJkyc7depkMpmUCf1XrlyR5IYRrVq1Ys0h0aYI3huSnQwGQ0xMDLxACLJhhaxHjx6EEBRppaamlpeXP/nkk/Hx8Q6HY926dUOGDMEGCCzs2rULkYexY8f6+/vju2/bto0FHkW5Qw1CFpIkIYHYKcLGH+s4nNvicDiSkpJWrlz5xRdfSJKUlZU1ffr0N954Iy4u7sqVK4SQJ598MjQ0NDIy0mQyrVu3rlWrVoIgTJ8+HRlJ165du3nzZseOHTEPrFixgukJjBo1CkU4aNxRXl6+YsUKTDW9e/dGLzEq6wTZ7fbIyEiYQzwQE7lGXpR7LXEeJPf9jEPYQrmwAXlyq9V6+fJlo9GINPSVK1eKorhr1y5CiCAIp0+f3rhx49WrV6nc9ITpoW3atMnDw2PVqlV+fn7e3t4mk6l3794zZ848ceJEjx49sFlpaWlYWNilS5e8vb0hY5GXl1dVVaXVai0Wy5gxY/z9/XFdqlSq4ODgOnXqtG7d2m63BwQEVFZW2mw2i8Uyc+bM9PR02EW73f7hhx9+9913PXv2HDFiBKVUq9U+/fTTI0aMQDMInU5XWVk5bdo0WOLY2Fg8/dnt9unTpyN1m8hKgIIgOBwOq9Wq0WggKk/kNEv2+n7/LhyOK6LRaFASg2Srdu3abdq0KSMjY8eOHaNHjz506JDFYgkJCRk2bNjo0aMLCgqsVmtAQMBbb73l6elZXl5+6dIlKmdFqVSqpUuXskSn+Ph4m81mNBrxVHrjxg1sY7PZUJGCJQwsyHl4eCxevJiFEzE1Ya6ApNHDPk+PHffdkkHogYk7wFvq1avXypUrv/76606dOhkMBovFggkdU3xRUdHq1auPHTu2evXquLg4XFvMWcE2wcHBPXr0QEp0s2bN+vXr17hx40aNGkFU4ubNm/Xq1Tt58mTnzp0NBkNZWdnx48f79OkjiiIWb3Hl6fV6i8WC2uqmTZsOHz581apVXl5eWEXbvn37kSNHIiIicDVDGDslJUWlUm3dujUmJuatt96Kjo5m/QM9PT1jYmIwzokTJ44cORJVVrt27VLLba/xVzhhv/32W5MmTZAET271xvgzHYdzWzCBeHt7I9kqOTnZ19f3hRdemDJlyvfff+/p6QmvqEOHDlu2bBkzZoxer09ISDh8+HBycnKjRo2WLl3as2fPRYsWYUpBu2csKEyYMAGu2PXr10VRLCwshDC3RqPp379/dXU1NOfgllVWVoaGhgqy0gd2wiSE7twpl3Nf+IspkLfj9/bGclIhiRQZGZmenl5VVbV8+XKkbGRlZYWEhEycOJEQcvz48cjIyOTkZDw6RUZGEkK0Wi0mdzg0kZGRkiStWLGCEBIUFHTq1Kn58+cj6Tw1NRVxvLi4uN27dycmJnbs2HHAgAFLlizZvHmzWq3eu3cvujZ37dr19OnTKSkp4eHhbITp6emEkA4dOuTk5CjzyO12u9lsnjp1KuvYgjsKHV7Cw8MppefOnVu/fn3Nbx0dHa3s2IKPwIClpKSIt4rfw437a+eZ88CQeFeXh0phYWG/fv20Wu3q1auV1Sbs9omIiOjYsWNmZiZcrsTExEGDBhUWFuK/R48enThx4rfffosWaPgd42Uw4Wg0mm+//XbGjBlsqlQ+X7Ik28DAQIvFIimEqpnB49xXnLLw7+WSzG0XeCilWCdjKdGs7Be+mtLZwvts1ZQlajOdQ7YfBOLwHVhlD4r/EQGH2oVT6gQ+Jclio05DRVku24woBErYwARZLVD5OIYoBMvpUH625h7Y+J0SuJ2+2t2eZ86DhFLKZNge9lgeO9idwqYFp9mAKG5VorivSY0U+Zq3ITaQZCFydiyneYzWqJapuSvOfYXN/Pjvg9DCJ7eKIKhkiELFTnkFsPIjdmWo1WqmHcx2QhRK+YKsVM2yE8ntqrLYQW9rKtjl7lS3pBzYbYuuWEalcs9OA3baYc0ERaevxuHcJxDkJ7J4JqBy0wb2XzZHOCnOsKKamqtBotzqoeZrp2cv5T6VW5IawjRsS7YZ63ShnEbYAgT7lErurcHuLGyjVARWyYLj7PuyB1O26EUU9o8duuawlbMqOzOsBzRGovwIcymc3mTnSnnGqNyVsOaJYiNn+2EvmOOi3MltXzwC8EmTw3m8oHIHJSQGE4XDwVZt0VkCok3YWJIlevHcRuW6ESLbP+bEsNdUVq5RNq/AR3777beRI0dCkxrWAplTRJHmzkbLfC+8D4U5lp/M/Ccil7gQ+akUyRfMS2PFOUQ2fqwwhllB1n+KPSXjKFTOE8GJEuSKfjZU5g4SxTMxRM+xMZw2URSzsrLeeustLFLgKCjIYZmQ+FI4KIwiW1xnlgndQljgip0fJ4eVfYWa1wB5tPQhuSXjcB4jWJMBFJ+Iorhz587y8nJCiM1mQ+8IQRBMJtOgQYOKi4uxmUajKSkp8fPzO336NJH9ADYPMvtnNpuXLFmSk5ODtKxTp05BNwfFJ6GhoXq9HjI9zZs3P3ToEPR0cER3d/d169Yhx13Z+ovFYwghGo2mqqpqxowZqOFBMqFardZoNEwVyGQyBQcHV1dXBwcHo0/F4sWLMzMzYSFsNltYWBhEWVNSUoYPH37z5s3CwkImGOTu7g6HDNKv+FKrVq0qKSlxigxBSJpZF4vFMn/+/MzMTJjS1NRULOTjoOHh4ZAoMhi1XECYAAAgAElEQVQM7du337dvX+PGjVmvO3d394iICJg95hY7HI60tLTVq1cfP358wIABGLNKpSouLh48eDDaOWEPKBsYPHhwVVUVflwiB12xK6W/SBQKNffpGnsocEvG4TxGwOqwJ32NRvP3v/89NDQUvdw8PDwuXbrkcDj+7//+r1mzZizyf/78eV9f3+Tk5BdffBHqz5hD27Ztm5OTgz2jkx8kAiB4UVJSwmZVjUYDOQyr1cpympTJERaLZe7cuUgbJop4Wl5enp+fX25uLv7r5ub27rvvIk3DarUiiQzK0bm5uQsXLkQFjiRJ6PVKCAkICDh69CjcSovFwgySr69vdHT0rFmzVCrVkSNHoJi6bNky7O3777/38fHBfioqKphbk5mZ2aVLF9gPnU6XlpYmyI15KaV6vV6v17NmwnhTp9MtW7YMzw2sUzwSVfAtzGbz0qVL4WDhB4KNbNiwoclk6ty58/bt299//312nps1a4bWRdCXsFqtxcXFTz31FPTwVHIHD8j47du3T+l0gkdwrf22aSF/jXu7N87vwc/zQ8d1cxdZrqzdbodFcTgcn3766fnz51NTUydPnoxOp4WFhUFBQSUlJRaLBS395s+fP23atNDQUCzkZGZmdujQ4dChQ9jD8ePHEW1j06VynZsQcuzYMUmS8vPz4U8QeXUZ0y78P4yQnVWkwk+ZMqWkpIQqtHqdpK4ZZ86c+fe//w39oOrq6vDwcKYGvnLlSuQPWyyW4ODgoqIih8MBKwhgEiIjIyEQDOx2e0JCAsYPq79ixYq8vLz58+fjs3v37k1LS0tOTmZfmaVY4x28SEtLo5Tm5+e/9NJL5NbWgGq1esCAAUjhppTu2bMHH2SRW2yM/wYHB1NKS0tL+/fvr9w/hjdo0CD8dsoTSCmdO3dudnY2O7dOp9F1eQgKwhwOp5bAFk4QkcO617Bhw65fvx4eHh4dHY1mcsicqlOnzoIFC0aMGCGKItTie/fujfDgpk2bfvzxx+HDh1NK1Wp1ly5dUGW1cOHCzMxMSml1dfWJEyfCwsKglePr60sIkSSpV69e169fp5SazWZMrJWVlb169YJZZePE62+++aZfv34mk4nIK1v403vvvQdDCFsYEREBJwYNd5j4AL6FxWIZMWLE119/jYUoBPHUavWaNWvef/99m822evVquJhLly7t27cvdjtkyBCz2fyvf/2rsLBw+vTpBQUFv/zyi7e3N4rG4F0hTbpXr16UUovFMm/evF9++YVSarPZjh8/vmTJEjhePXr0QPLIoEGDLBYLrCCc4Kqqqn79+pnNZnxrrVabnp5OKbVarTab7ddff129ejUcOFEUQ0NDLRaLl5fXt99+yx5HMI/b7fbDhw97eHgo0z1UKpXdbn/jjTc++ugj1mKbPmKumAy3ZBzOYwTK81le35o1awRBCA8P79u37+HDh+vWrUsIQZhx+/btlNKIiIigoCCDwQADlpaWhkl8zpw5PXr0QMO/wMBATKxY36Jy7z1073N3d2fTqMlkSkpK8vLygtWByfHx8Tl27Bia0xI5exCmKCsr65VXXpHkbmFsmcpoNO7fvx/HysvLg8tiMBig84tvylw3g8HQvHnzmTNnarXa0tJSrFcRQpYuXZqdnf3hhx/OmzePUhoZGXnw4MEffvhh5cqVDofj8OHDaCRNCIHHptVqWfYKxg9rwfJBWGYjjJmbmxurq4Ht/OabbwwGA5a4UCNrMBiOHTum0+nwBbVaLdrswb3z9PQURdFqtZaWls6YMaOgoMBgMBw8eFCQ5fkhuYDxaLXauLg4ZcIIdti8efPLly8zY/mowi0Zh/MYgcUbQS6LXLRo0fnz500mk8VimTp1qqDonaRWq+Pj4z08PHbv3n3mzJnOnTsTQtAP1mAwtGnT5ueff+7SpUtmZubOnTvZ6g6bQ1kiO1EEwYxGI/q2OxwO9CyUJKm6uvr77783mUwsZx1JIhcvXkTCITpBs8bfVBY/JIRgP0jTsFgsyk5G+KYsTR/ZmPn5+VqtFhZCEITg4GB/f/+SkpL+/fu3aNHin//8p6+vb9OmTadNm1ZdXQ0JcpbfWFBQULduXdgzLDTCWGLPyO+HmCpL7yRyS1u1Wu3p6fn9999jYUwZIP3mm2+8vb1hMs1mc//+/XH+p0+fbrVaq6ur1Wr14cOHu3fvXr9+fUKI1WpNT0/HU4Ldbmcx0qNHj+LrUzkZB9bR09OzadOmKN8mj1a+ohJuyTicxwiWjA5ngiWO63S6OXPmoE2gzWaDok3Tpk2JnDswduxYuBrx8fGsN+zo0aM1Gk11dfW0adOQTLhmzZpnn30WM3ufPn0g6aRWqydPnlxUVDRz5kwkXMApQYGmWq3u2rVrTk4OgnVwKWD8rFYrSgVYqJDcml8Oe8msGpH1FkS59TPL34OpOH36tI+PD5GN64oVK959990333xz69atI0aM+M9//pOcnOzv7z9//vwePXpAMKiwsNDT0xOmGoMR5OpVOI5I+ETuZZs2bWCHfH19ly9fDqs/efLkgoICNISCnB5OAr57p06dcnNzMc7//ve/P/zwA6X0zJkzPj4+Op1Op9Olp6d/+eWXQ4YMwTawrxjAf/7zn9TUVHxBtaz3iBMoybrkiPqWlZUJt9ZxP2J1q4/Ul+FwOHeGxbtYPRYWfn788cdr1641bdp03759arU6KiqqR48effv2JXLICylw7u7uY8eOHTt2LAJcu3fvppS6ublt3rxZkiQ4CizjAKmJKMOKiYnx8fHZsGEDvChKKXIrCCEHDhxITU1t27Ytm6DhL8IkVFdXC3IfCbhxmKBHjx6NqFr79u2Li4vtdruXlxccFJg37MFutwcFBUGD6pdfftm0adOVK1cwSLPZ7HA4/Pz8vvjiix9//HH//v12uz03N/ff//432mv07NlTFMWysjKTyWQymXAelOXV8F/fffdd9q0tFgtyapQrWDExMfXr19+0aRPeEUUxNTVVkiSdThcTE3P69Om2bduqVKqKiorS0tLGjRsTQnQ6ndVqNRqNdrt9wIABM2bMqF+/PjxL5p6KopiTk8Nq+OD84WkDZhJnHuqRJpNJUGhQCLJE0UO5CO8H3JJxOI8RLK4Fh4BSqtfr9+zZ8+WXX/br12/o0KFYAWrVqtWYMWOInK+v0+kmTpwoSVJ5efmHH36YkJAAozJlyhS2giVJkl6vDwkJiYiIQMLCjBkz0AWeEAK/DXFCOCUwk0aj0d/f38vLSxCEadOmIQ0EVsHLywv7YW4Q5BAJIYIgxMfH44tUV1eHhYVptdrKykqW8ldeXp6YmFinTh2j0Th69OixY8cWFBQsW7ZszZo1kiQdOHAAlkOn0zVu3LisrCwtLQ0NeJs1ayZJ0uDBg7ds2VJWVobI3sCBA0VRRPQSBpKVCjCz7XA4wsPDN2zYgPjhtGnTYmNjMdTS0tKAgADW2gkeGyEEuuRw1AIDA0tLS202GzJurl+//re//U2v1+t0ugULFvTs2fPatWtQiGU10ZWVlenp6X369Dl58iRU/OFnw7VFzFOtVqOozsvLi9QwXY+SJeNZ+K4HP88PHdfNwmfAxZEkKSkp6cCBA5TS5ORkrVbbpk2b3bt3E0JCQkKwpSRJOTk5HTt2JIrscETb2rVrd+nSJWToJSYmEkJgYKicVrdv3z4ip6HjcNChcDgcqampCQkJrAszUMoBU0pDQkKSk5OxPaXUZrMxwV+8w45ls9nOnz8Pn49SmpeXN2DAAHTxpZQeOHCAEJKSkoI8wGnTpiUlJeXk5EDyG8LBFotl7969R48eRfh03759+/fvT01NnTFjBrLkDx48GB8fn5WV9eyzz7LQHETAT5w4QQhJSEhg9W2SJKFvcGJiIlWkvGN4KSkp+/fvd/ruKSkpK1asOH78OCFEpVIdPXo0PDzc399/5MiRJ0+ezMrK2rZtG/P2UBoBvzYiIoIQMnDgwJs3b+LQ7IhWqzUxMTEiIoL9lMoXLp2I75SFzy2Z68HP80PHdS0ZIk6UUuU0WllZOXHixIEDB2LKxp+SkpIEQYiKiqKU5ubmrl27FhtjLsZ8umHDhrNnz0qSFBERERkZiQ3grlF5uiwvL+/fv39GRgY7YmRkJHya1NRUtk/lXI+YpM1mKywsjIqKYkkNTie8qqqKUsq8PdgSDAyrfZRSi8UyZcoUVGIxM/DLL78sXLgwNjYW0VHURKtUqi5duuTl5VG57spms7399tuZmZlokfHcc89lZWXl5OQsXLgQSZJxcXEpKSkRERGhoaFK54x9o/Ly8oEDByKWiKOHhYXBBCYlJbFvhFGtX78+KysLr0VRDA4ODg8PR6/EyZMnE0L27t178OBB2LmEhAR2OHzToqKiV155BX05WGyzqqpq4cKFqCdjzi574dJID1gLn3PP4ef5oUNdVgufUgr9JGR+U0qVzbSQYcH+y9LHqUKbisrzLwQSlfKDTAlQuTGVewriQDClyiRDUW4lQWs0ryCEHDt2LDIy8tChQx4eHswjpHLvCyILM7Lsc5WiVQUCcUyDQ5njwEZOKVWOjcVd2ahuewIJIeiqSOSMGCqLGiv18q1WK0uhlBR9dLEHs9lsNBqVZ4l9BeWAlSPHsCEO6ZSyIcotRNixHA5HVFRU8+bNx4wZw1Lz2ezhcpeuE/RWLXxuyVwPfp4fOq5ryYg85TkZJ/ZalLsRsXmcdUWpaWnYFMzsClFMqWyuYTMytKxqDok9X7O52KnFknRroyXp1u7qSiuIDyqHqrQEeA1DDnFhprerVnSHYYUKRDYe9NZGTso3a5ocSqndbmfW2um8UVm6HqaU5Wey+5pZNdhI4dauWAx8C6Kwynf+oWsOwxWvXgZ9wF1dOBxO7UE5fyGbg73Dar9gUdj0x3wX5WZE0QNMaTOYMWBaG/gvTKNSzV1SyLoznSeiSFzEIdLS0g4ePMhS7dVqNaQ6YC2cPAxlKzKmdsGGzb6CMnEDPhnLqsdu4fFg2CzHhNV3E8V6Ib4pkgnZIJF2wcaAEbKEQ6c9wAlW+kzsv2wbpRljczcyO9hfWeEBOxb7UspKMnbaH7Gn4XtmydjVz/TWWKJOrQLDg3q0cOtoXYKaj2bkdl0bOJzbIiha+mHSFxRKiWwbp49QSpEfyGqhBEFYuHBhYGAgdti5c+e8vLyioqJhw4bBhrHZgCkOv/zyy0VFRZhAU1NTsaJDCDlx4kRgYCBKgGELBUE4fvy4IAg6na5fv37+/v6CrGohCMJPP/0EG6bVaiVJwkqYIAgajQb3Newi9PLxfmhoqNVqjYyMLCoqstlsCxYsgCQxcvFXrlxZWFiI4xYXF69Zs8ZiseAQ6enpfn5+JSUlRDH1x8TEQCa/srJy8uTJKpUKAiUvv/xyVVUVuxlLSkqGDh2amJio1E5kEvUhISEQVsYXEQRhwYIFOJ8ajaZjx44XL14sKCgYOnQovhE7n6xu3c/PT3k4WGUcSxm8Vf6yyte8nuz2CIKgrCZhmTN/uHD3gMHqKETPXDF1R3lKifxYfVvzxuH87wiCgHzu4ODgioqK4ODgL774Yvny5Wazee3atTt37rTb7VarNSgoyGKxaLXaF154wWq1YoalCtH3ysrKHj16ELnz+4kTJyBLLwhC79694+Pj0aLFaDROnToVyfchISEsC5/KmSDh4eFY1sL1//7773/wwQeo6KqsrGQ1BpiFzpw5s2DBAqvVGhISIsgZOjqdbsKECV999RWVqxHwL14cOXLE19fXYDCo1eqbN29u3769R48eW7ZsoZTCcBJCfH19V65cWVVVZTQa69atm5uba7PZCgoKnnjiCTTNIYScO3fupZdeOnz4sJ+fHwwwLPGzzz57/vx5QRBCQ0PtdvuSJUuOHDnyF85nWVmZn58fMjYXL16MDBTBlaOF/yP3zJJJkoQ6RCK3wiO1clERjSdEuXse3nRqxlqbYbEOKqvbkUcuUMCpPVB5RTA9Pb1u3brBwcGvvvpqdHS00Wh87733EAFDyTCuydLS0h07dqjV6ry8vH//+9/wtI4dOwZbgn1euHDh+vXrS5cuZYanuroa6XYWi2X79u16vd5oNIaGhrq7uysjPVqtdvny5QaDwWazORyO7OzsX375ZeTIkfBLkFtBFL2SBbkRF2q0oVJIKUUl8sWLFzEbsEBiWVnZr7/+2rRp06CgoIKCguDg4EGDBkVERDgcDsg8wo9p3bp1r169rl69mpKSUlpa2rRpU+aWEUJEUdy/f/8LL7zg5+c3efLksLAw7Dw7O7tjx46LFi1q06aN3W5PSUnR6/URERGDBw8OCQm52/MJi65Wq9u0adOlS5dDhw4JchTx8eSeWTI80eBZCdMr675aq8BDE+sbq5a7Dj7scf1Z2F3KfF88Mj/scXEeTQQ53cBqtS5YsGDLli1Hjx5dvHjxnj17EMqjsrqg0WgURdHb27tdu3aHDh06fvx469atUZqWkpIyYMAAvV4PWY2NGze2a9fOYDBA5wmLUnBZXn311bKyMlEUzWZzREREWVmZMsbjcDiCg4NtNhvinB988MGrr76q1+vVanVsbCyTJFapVCtXrsREBD1GbANxXpi9QYMGffTRR0QOyuFTR48efeONN86cORMYGLh8+fL+/fuPGzeOEBIaGpqXlzdz5kyz2Yzn4Ndee62oqCg6Onr16tVwuZCQ2aBBg9mzZw8bNqykpGTdunU7duzw9fWFDV69evXJkych+oV5cvny5WvXrs3IyIiMjLzb8+nn50fkbtd9+vTJyMhAW5yHd6U8ZO5lqBQPLOh5ih+vFp5ZrK8yA8BWa10FKreux02LUPvDHhTnkYVlQ+j1eovF8ttvv+n1eo1GYzaby8vLp02bBm8pNjYWT64ajaZ79+7//e9/Y2Njhw4dWq9evbVr1xJCunXrVl1d7enp+cEHH2zfvh09ZVDqK8mKVpTSTz/9tE6dOri2g4ODPT098ZoJZERFRSGgUlRUdOnSpfbt22OcWq12x44d8MCys7O9vb2pXEAGPwxxRSonsLRt23bBggWEEBhLd3f3wsLCXbt2tWvXrqqqqqqqqm3btu+++64gr6mvXLny6tWr77zzTlRUlJubW0hISI8ePY4cOeLh4YFFKQ8PDwQho6Ki5s+fj2CpRqM5cuQIbPC8efM6d+6MNydNmkQIqaysLCgoqKqqwnLdXZ3Prl27Qr+DENK4cePGjRufPXu2FnoOD4x7mfEBGwYfX6qtustMXAd21263GwwGF8qYgOnFQjF0cYhLRUc5rgWuNPgiq1atKi8vf+KJJ1JTU2fNmiUIQqNGjfLz8ymlAQEBCEJKkqTT6Xr06NG+fXuTyfSPf/zj0qVLzZs3NxgMlFKbzVZeXv75559rNJrKysrp06dj4sZRVCrVa6+9hh0aDIaFCxfabDZJ1jPEx5ctW4Zd5efn16lTx2QyUTlp3sPDgz1Gw/1CsokgJ2FChFDp4RFCSkpKvL299Xq9j4/PRx999OGHH7722mt9+/adM2fOd999J4oilqCqq6sPHjy4dOnSJUuWnD59GkpaQUFBmElY1sbOnTs9PDx27NgBKRBK6cqVK/HV2rVrl5OT89xzz+Xm5u7evVulUq1Zs6akpKRNmzZJSUl/4XxKkuTt7U0IcTgczZs3v3HjxuM8D9zLjA/WWJ35OrXQJ2N5wCq5RZOyFKb2gyAGejQgJkMUGb0czv3AaDRqNJqoqKitW7c2adLk8OHDu3btQoIG7MT06dOfeeYZBMeuX7++f//+Jk2a/PLLL1arNS8vDytShBCI4nt7e9vtdpPJtGHDBqqQHUH36gYNGsB2rlu3jqXssgTIsLAwaDMWFxebzWasJ2G2QRSRymVGOp0OFVfMvKnVaqZHjN1KknTq1Kn69eubzWZBEFavXj1y5EiDwRAZGZmcnKxMwlSr1e+8847ZbFar1fjWarV67ty5GzZsgJWtrKwMDAyEphemPrRts1qtcXFxBw8eLC8vF0VxwoQJuHkFQQgPD9+xY0fjxo2/+eabuz2fGD/WCzGnudYqyT3nXmZ84AWeTdCFoRb6ZEQuWEGlCC6IWmhxfw+E9Q0Gg0pu/oQblcO5H7BEWUmSlixZgnwEQRAmTZokSVJlZSWeAsvKyiIiIiwWCyFkx44d/fr1mzhx4rfffhsdHb1s2TIPD4+srKxb6lhVKkrp2rVr4c1gnzqd7pVXXsnPzyeE9O3bF2JUTF+RWTtfX1+1Wt2wYUNE8AghmMQnTJgAq9a6dWtYC8jGs3UsLFDZbLaAgID4+HgkfaxduzYrK8toNFJKg4ODkYC9ePFiQRDi4uJYTkpqaiokOex2O9Iu0tPTi4qKfHx8Pv74Y1EU16xZ4+vr261bN3hRlNI9e/bABr/55pv+/v4eHh6CIOzZs0ev18P0IgsGY77b83n+/HmiqKlAX9OHc4nUDu5lxofyv7X86UCQC7OoXE7/sEd0Fwi3FgAp5YU4nHsL84oIIagAg2lB8xdAKS0sLEQULjEx8ezZswMHDqxbt+7LL7/crl27vn37DhkyZMeOHdiAqYdIkuTm5pabm8sSMfLz85966ilKaVFRUVBQ0KVLl0JDQ8vLywMCAjp37nzx4kVK6cWLF+fNm2exWHx8fEpLS2F4UJL83nvvMaO7ePFiIk/0GHxFRUVKSkq9evVMJtO4cePGjh178+bNOXPm7NixQ6PRHDx4EFY2IyNDEIQhQ4aghgzAnglyF2YYpKSkpJ49e44dO9ZisWg0mhYtWvj7+7MSb5VKNX78eJyu2NjYhIQESZIcDsf48eOxMG8wGEJCQrBnURTv9nxu3769vLycrZpfuHChbdu2D+MCqS08UsVxHA7nfoAFm+XLl7OVp7Fjx4qiWFFRcePGDeRfGI1GnU7n6+t78OBBHx8fSZK6dev25ptvEkJat269evVqg8GA9EKmuygoZK6QhKXX6/V6/fbt20ePHt2gQQMUAu/atevEiRPNmjV7//33UUYdFhamUqlatGhx+fJlBCfffPNNHIv12ySE2Gy2xo0bu7u7i6JYVVWl0WjOnDljsVj69u2bkJDw5JNPLliwoF27dkuWLDl27FhaWlpQUBASNL7++muTyTRhwgSEFt3c3Pr06YNHRovFUlZWtnDhwiVLlqSlpQmCsH79+l27do0dOxZqy6hEkiRp7969WHMZP348uqkZDIaEhAQm/xESEoLAlUqlutvzuXHjRi8vLyzwl5eXX7lypV27do9zeIZbMg6H87vAU4GvEBISghUgURQTEhLc3Ny6devWunVrQRB69erVt29fNzc3lgoPD0alUiUnJwuC4OPjk5+fD61CrVZbVVWlUqkqKiratm3r5uaGGf/JJ5/MzMy0WCxLlizp27evWq3+73//6+npiWwOjUYTGxs7YMCAZ555JioqysvL6/XXX4+Pj1faQkIIelhPmjRJr9d37NjRx8cHJXEtWrT49NNP0c968uTJeXl5dru9b9++7u7uOp1u1qxZH3744ebNm8PCwmAPjEbj7t27kVdptVpTUlLgOxoMhm7dur3++utTpkwJCQnJz88/ffr0hAkTRFHs37+/SqVavXo11q4mTpxIFb03Ia4/atQoImtWrVq1CoVulNK7PZ9Go/G3335zd3cnhHz33Xd9+vRhja0fT1xpieh+4FqLZJxaAnVlBeG/AHTfqUI8l/1JKSqv1M530i2EIiJK05KSkq5cuTJ27Nh33nln6NChSG2w2+2FhYWRkZFhYWF169Zlau74eHV1tZubGwvxMUVddFb717/+xfR8ldsQhSYhHD78ZCzdg8hiiXCMEPlUquwrf1/2XzYqpfQ+vqwgt7dmxbWCQmKYgS2ZnrJSIPhPnk+2z6ysrN27d0dHR+t0upoHeoSh908L3xXhlozzF3h8LBmblJk4r3LaxUytbMvCVm6QUKeUk2cq+/g4CpydTCPrWoLUDCf9QKqQisdBya0r9PggVqTurBOv/CLKbZS2h30vZurYBk4C+Urzwy4J5a6UQyIKO8ROwl84n0q5ZJwr+jgJVlGuhc/hcP4kTBAHajjIUMCfML/Dg4FThenearUiaZDlM2PSh9lgThLLbVbOR2x7Qgh8GmWtpyR3ihFkmWBBrhXDv3D72PtImify4hn+ZR0A8CekOFJZWQOp7TAY+F7YElohRNGzDZn0SN9ge4CRU54lQgh2yL640t4gfZrKfV7u6nxqtVqHwwE5ShQbPD5mrCaPu0fCfTLOX+Dx8ckQV1Q+/ku3a/zIeonBMDi1NFN6Y8pmnk5WQel/OBwO1qeC3K7HGNu5siEZ076hcv9MWqM7F3vBHDjlnjEeZUNLFopU3dqETNllRuk7UkX7G6e8aKVgcU1P9K7OJ5XFSmoe9zGB+2QcDufPguUxpqRKFBVmROE8EXlmYRXQRPY/iBwAxHoPk4uD86SSm5mxlSqE0ViSJHwOpe+lUrQBo5SuW7cuPj5ekJt+sWCgw+EICgrKyMhA2Razi126dMnNzUXIlI0tJydn5MiR5eXlark9GwZ86dKlzz//vKKiIiIiorCw8MCBA2lpacnJyeHh4ciCgT8Eb4+NiuVPMqeNNTAjsiYDwq04k8yl+/PnE2eJiXqwR4H7fkHUVrgl43A4d4I96bMwo5Or4bQZUZguldwLzWkbmAEi16uxD+JN5dKXUnFKEASz2RwUFMTe1Gq1ixcvfvPNNwUFM2fOrKys/Pzzz3v06NG9e/clS5aEh4enpaVJklRSUjJixAio12P/2OHGjRv37Nnj7e0dFhZ24MABFvZs2rSp2WxOT08XBCE+Pp4Q0qtXrytXrvj5+cFusYQRIkcvWVIGgLvmtODH7BP7+n/hfDI7xzZ4rHwyZ+jjDT8DnL8AHoERjOI8YNCja968ednZ2ewnEEXx5s2bK1asgNx+dnb2hx9+CCt14MCB8PDwpKQkh8MRHR199OhRtuCXn58/eLPCO8cAACAASURBVPBgzIRKybrIyEiHw2G32w8cOIB3mJH4+OOPhw0bxracNGkSSsUxEqxm8QvjAcA6+ADuk3E4HFdCrVZDMqpjx44quYey0Whs2LDhjRs34KsdOnToX//6l5ubW4MGDUaNGkUpvXLlCrQw/Pz8hg0bVlFRIYpi/fr1Dx8+jG5hwcHBmBMdDkfTpk1PnDih0Wj++c9/Ukr3798/ZswY1IeVlJQ0atSoqqqqrKwsMDBw5cqVLBEfWfX0MVuvqiVwS8bhcFwMd3f3LVu2QM8JxdoVFRWU0i1bthBCVCpVcHBwVlbWvHnzli5dSikVRTE1NVUUxV27dl27du35559XqVS//vprp06dEKLs3bt3aGgoYn16vf7NN9/s2bNnbGwsNH/r1av3zDPPvP7669u2bSsrK/Pw8HA4HNeuXatbt66XlxdLCWGJJA/79DyOcEvG4XBciYKCgoEDB6rVajTnRNoIXqMByrlz50pKStauXbt48WK0UrPZbBcuXPjll19EUTx69GizZs08PDyaN29++vTp6urqoKCgb775Zvr06YMGDfrss8+YczZu3LjNmzcvW7asb9++kiR17dpVr9cHBQW99NJLV69eLSgo6NSpE5I+7HY7hoHGMY9z7+aHBbdkHA7HldBoNP369ausrETVNqXUbrezwODo0aMNBkNmZubOnTt9fHy6det29uzZ0tLSpUuXfvDBB+Xl5bm5ucOGDcMH8/LyunfvHhMTM2jQoNdee23Tpk1Lly4NCQkZPHhwQUEBpXT+/PlNmzZdtGjRmDFjGjduPGHCBIPBULdu3YMHDyYnJzdu3BgGDEFF1pWURxcfPNyScTgclwEZg6g2i42NRf4elsqmTJmC4mVKae/evWHbTp486enpaTQa+/TpYzKZGjRo0KJFC4QET58+vWrVqi+//LKysvLChQvTp08fM2bMoUOHysvLrVZr48aNV69evWzZMp1Ot2nTptatW2u12mnTplVVVXXs2DE/P//KlSs9e/akiqJmlMFxh+yhwC0Zh8NxGRDNo5QiupiYmAhNjaysLB8fH0iH2O12SZKQOv/qq69u2rSpU6dOKpVq0KBBaK8Mn+n555+PiooKDAx0c3Nr0aLFvn37jh07tnHjxn/84x8fffSRw+GYP3/++PHjR40aVVBQYLPZxo0bN378eHd3d6vVeuHCBZSFMREQpOCjzIv7ZA+eWt1FjMPhcJRQhdQhpdTX15dVBE+dOpUVHUdFRV26dMlqtf7000/79u0bMWJEaGjojz/+mJOT8/bbb/ft23fx4sVqtbpevXo7d+5s0qRJcnJy9+7dO3To8MEHH7Rs2RJ+lSRJLVu2XLt27bhx47788ktCSPPmzUVR7NOnT2pq6qVLl2bPnr1x40bWtx2Hfnw0fGsX9yfX32XgZ4DzF+D1ZA+Rq1evRkVFoW6MyWQUFxejMmzQoEHFxcV402KxzJ8///Tp05MmTdq/f7/dbseKWmhoKLqG3rx5c8iQIYSQyMhIFJmxHYLQ0NDOnTufO3cO/01KSvLz8ysrK4O4/vHjxwMDA61WK5XX6vCv00449wOnerLHWuCEcN1Fzl+CPja6i7UWqBdCkBDikNB1pJTa7XYIwzONRKefiUUClbr+TnKORFaHYjoaTBEf0pE1lRhvq4jPuU9QrrvI4XBcFCaNj5R3CGgZDAamBI/MC7yAYXMq84JxghljpshJR5jIPV8QM2RHxNSJgzJ9RSqHdlijFm7GHjzcknE4HJeB2R4i69DjtV6vh8w8kSV6qUK8GG3ACCEWi4Uts0H2kLUiw/bQvyeypWR+Hv6KqDLTWoQ5RJAZ76MJGQ/zPHi4JeNwOC4DjArzn3Q6HbNt8LHge2k0GqvVim0gVw/leHSogdZ+VVUVkU0dCsKYv4VP1ZQ5hq2CeYNDhv5tgiBYrVbslsheGudB8rivEvF1Ms5fgK+TPUTorV2bSQ35+dv2eia3drtWvjabzQaDQZD7qNlsNqQgKhs9U0UvNDYMIi+SsQEod8u5rzitkz3u8zi3ZJy/ALdkDxdmMGq+YK2/lBaFKrpfsumPmS5sw0yjU0NOcmufz5omjUUgnXbIua+4cMYHK/JgVfSIUOM1ogroaAfYeizbHsvFVNFSXWnJlLtV/ve2KHdSUzMUf2LD42X/jxh40uc/68OCWYuaL5StKRnMJrFURryj3IzliTh9hNzaLw3vMzPGdlJzh5x7C5tvWUdT5V9dxpJBn4b1mWVLuyyDCJFunU7HjBlbmEV0mxDCnqNZmBvGhiUvsVa2VqtVpVIp7aIT2AkhRBlbt9ls+Aj2z7qk8yf3RwnkeTu987AGw+E8DrBMHJvNxrxw5QYuY8k0Gk1ERER6ejr+i6+BjKMTJ07odLrAwMDq6uro6Gij0QgLp9FojEYj69QgCEJsbKzy2c1iscTFxe3fv5/pWGONl1Kq1+uhfPN74ykuLn755ZdhJlnvV09PT3d3d6wADxs2rLi4mKVIPYBTxHkwoA8IiyMhrPSXCzw5HM4fgsAvkneonJWqnFddSa0qMDBwxYoVbdq0cTgcAQEBR44cgf+0fPly5jxVV1f/8MMPvr6++C+cLcQN0tLSLl26xJw5SqnBYMCfECKHDWOLt1j7/T1jVrdu3a+++gqvKaU//fTTkSNHWDMkeGlUDp1TRX0lx9Uxm83saYlw4XMO5/7DAmxUjn8gCMc2cKXptWHDhv7+/jt27Jg1a1bXrl0//PBDrVbLquthrt3c3JRl9iyFichunNPKLfKUUP8I5wkfR7DxDj4ZpdRiscyZMycmJgZVKVqtdvny5YQQrVYbEBCwevVqk8nEyv45jwaSJBmNRkII9IpwzVAeXeRw7ie3TcO5ZS3z4Yzr7oGt6tu378KFCy0WS1pamslkQhG+IAhubm6fffYZakoIIQUFBYMGDcIso9VqBw8eXFlZCZeL9X1Qlu5TSpUxQLh6qHn8vfFgY09Pz8zMTHhd6F1LKb18+XLDhg1hBdkyHufRgCVnw9dX3mAcDuc+IYoiZFxw61FZ+/T/35gPb064O44fP240GgcMGFBWVmY0Gn19fUtLS6ks2blkyZIGDRpglhEEQaVS9enTBw3Ri4uLn376adT2S5JkMBjQiwGWRqfTjR49GmtdmJhSUlKc5NR+D3wE1q6ysjIkJKSkpAQTHORzsA3Xxn6UwFMO6o2ooqLoYY+Lw3mUQRMfSinL+EOtBdvAZe7AXr16lZWV/f3vfyeEXLlyRRCEefPmpaSkUEovXLhgsVief/55bIlphU001dXVarXazc3NYrGwIkciO3mU0gMHDmA5zWw2U0p79+6dmpoKU3eHZ4TU1FRJkpgKjsFgYKmVarWaaYximuNu2SMD+mPhNVX0Uniog+JwHn3sdju8FJbHeEsRxcMb2N0hCAKT5vzxxx+bNWs2f/786dOnf/LJJ2azeeTIkW5ubkT+tpIkJSUlYdWKUjpkyBCYHFgUmDqWygmbJwgCbJLdbu/duzdWF4U7LuYjUIm9FRcXY5UO85pWq0XtJJ/jHj2YB6a8kDgczn2FFTspi/kYLuOTEUK0Wq3ZbLZarbm5uR06dNDr9TExMZWVlXa7/YUXXsA2er0e5qpnz55ms1kUxevXrz/99NMwV0jlZJKgSlvFnqy1Wi1ClHc2Y4QQq9WK6KLD4bh06dLFixdZPhv+ROTJjid9cDgczv3DlSwZpdRoNKalpen1+meffTY1NVWtVo8fP75fv37Dhg27efMmE6WuX79+SEgI6roaNWq0devWOnXqIMtDEASsHLL2siiCZqYLoVhB1ra5w3i8vLxWrlzZqlWr0tLSLVu2vPLKK927d3/55ZcJIStWrEAFmyRJNRVAOBwOh3MPcSVfYc2aNXl5eWazecmSJTNmzGjQoAG8qG7dujVv3jw0NHTz5s2iKPbq1QtmSVk6Blds7969oijq9XqE/uCiUVmEFEsgLNhIblWpcQLbSJIUFhb22WefJSQktG3b9rXXXsvKyhowYED37t3XrVvn5uaGxbMHdYY4HA7nccRlfLLMzMw6derExsa2bt3aYDC8++67K1asgMXSarU9evTIyMjIzs7W6XRpaWlWq9VsNsNFY5kdP/zwgyAIv/76a+fOnXU6HXym0aNHT548GdmG2FX79u3Pnz8P83YHtars7OyuXbuq1epBgwb9/PPPrVu3JoQIgtC+fftTp075+/vPnj3barVifY67ZRwOh3P/cKWiTvQ4J4rm5UTRMY/8TksF1kxIkJUSle/jtdlsRqe+uxoPuvkhrYNFJtmehdsJaXM4HA7nnuMyMywrBSOEsGoeKEuhbg6d8ZQy9sre5BCjYj6WUkTfarVCfIitiqFpHrnjOhnEQaC/J8jt1bFbDInKYvkszsnhcDic+4Er+WRU0WEP7yDJEDaMEILVL6WzxdoIMX/OyUOquU+lIMqdYbvCYpuTDhYbhrKVEYfD4XDuOa5kye4HAhfN43A4HBfHZaKLHA6Hw+HcFm7JOBwOh+PacEvG4XA4HNeGWzIOh8PhuDbcknE4HA7HteGWjMPhcDiuDbdkHA6Hw3FtuCXjcDgcjmvDLRmHw+FwXBtuyTgcDofj2nBLxuFwOBzXhlsyDofD4bg23JJxOBwOx7XhlozD4XA4rg23ZBwOh8Nxbbgl43A4HI5rwy0Zh8PhcFwbbsk4HA6H49pwS8bhcDgc14ZbMg6Hw+G4NtyScTgcDse14ZaMw+FwOK4Nt2QcDofDcW24JeNwOByOa8MtGYfD4XBcG27JOBwOh+PacEvG4XA4HNeGWzIOh8PhuDbcknE4HA7HteGWjMPhcDiuDbdkHA6Hw3FtHlNLJkkSpZS9Zv8SQkRRVG724MfG4XA4nLviMbVkKpVKkiS73a5SqVQqFaVUEATYMLVaTQix2+2iKKpUj+n54XA4HBdCYK7J44MoipIkabVaQoggCJRSSZJgz2DSBEFgW8KwcTgcDqfW8jj6HJRSrVZLKbXb7YIgwDPD+yqVCmZMFEVKKTdjHA6HU/t5HH0yQgilVBRFjUaj1WptNhs8M9gwnBDmlnE4HA6nlvPY+WRYDBMEAf6Ww+EQRRHGjG2jNGkcDofDqeU8dpYM4US8cDgcKpVKo9HodDr8FUFF9vqhjZLD4XA4f5rHzpKpVKoNGza4ublt2LBBo9Egz37Tpk06nW7z5s3YwGazUUo1Gs3DHiyHw+Fw/ph7tk6G9D/2X4fDUWstQVlZWaNGjQghJpOpqKjI09PTZrM5HI4bN27UrVuX1PqURbakh3NutVr1ev3DHhSH43qIoigIAiYulsDMFhrYnOY0uXFqgvMGx4Cdqwd53u7ZYdiI7XY7HBp4Nvdq//cQLy+vOXPm2O324uJiSmllZaUoiosXL4YZYymLyM5/2IN1BveexWJhVwk3YxzO3YJbW61WY7kBectELsvBxMXmNG7G/hCYf+R+2+12h8NBHux5u2c+GaXUZrNhVnWyzLUKPDuUl5fXr18fVzAhxN3d/fLly/Xq1SO13iEjhNhsNizsobhbr9fXZg+Yw6mdYJlcOU3VvPclScIczZOZ7wzMv9Oc/yDn0ntmbARBgBmzWCzs+qiFPhm0PDw9PWfPnq3X63GiZ8yYUa9ePaR4QP6jFo4cSJKk0+kcDgeuG5xzbsY4nLtFo9Eo42CEELVaLUkSS/WCGVNKJXB+D+VZYpPng3QJ7mU9mTLQTCl1OBzQ0ahVsMcEs9ns5eVlt9sNBkNJSYler5ckCX9iV/DDHuxtYM8+DocDNx5PTuFw7hasLis9CeUKGbnVyXD6E+e2sEpcpaSt6/lkMGNMNYMQotVqa2Eiu1qtxqj0ev3s2bMNBsOMGTP0ej0qzJhb9rCH+buwBWqEpNVqtUajqbUeJIdTO0EwQ5nugXvf4XDAP8OzLO6sWrheXgthT//MkXVVn8xutzMnDIatFq7fsCGJouhwOMaMGbNv3z53d3f8lYkI19qnMIyfPf4ozzmHw/mTiKIoiqJWq8VyA+ZcvFAqiXP+JDh1zJFlS/gPbAD3MuMDTpjSu8RXuif7v4dghBqNBgk27NolhGi1WrvdrnyntnHbZbzan6XC4dROmHBdZmbmoUOHjhw5cunSpYKCAkIIUxV/2GN0DerWrduiRYvBgwf7+/u3bduWPNio7L3M+IBABuZZgHdqGxghEhcppcieAKgcUL5T27itieVmjMO5K5T3kUajmTt37osvvlhdXb1mzZrs7GxKKeKNkiTV5tmgVpGbm7tq1Sqbzfbiiy/Onj2bEMIqzOAzgPvk29zL6KLSG+PcP/h55nDuCRaLpaCgYOTIkW3atNmwYYOHhweVszyUyxD8SfEPYeWtDofDYrHMnTv31KlTH3300ZNPPqncRpIkKCvd81wEbslcD36eOZz/EVbz2qdPn0GDBi1btkz5J0y4+C+3ZH8GqhAeIoSoVKqoqKjvvvvuhx9+cFqGpPcn5MgtmevBzzOHc0+YPXt2SUnJnj17lEvjrElhba7GqYU4eVqiKE6YMMFkMm3btg0LOjBj9yk1n1sy14OfZw7nfwTrOl27di0oKDAajUj6cNqAzbncLfuTUEWXR0EQzGZzkyZNUlNT27Rpo3TI7odbVnsLpzgcDuc+QSndv3//rFmzDAYDy0Ewm81IH0cONrNe3C37Q5D0gRPFavK0Wu348eP37dtHZP0UVqt3zwfALRmHw3nsEATh66+/HjBgABwvOGRGo1GlUmm1WqYhjuzr2iyVUEtA7johxGazaTQaRGs1Gs3w4cNTUlKorMiMJMb7EVLi0UXXg59nDud/p06dOpcvX/by8iKEiKKI5bGaaXVUViF4OKN0HWgNuS9otTds2BDOLkrR79PRuSVzPfh55nD+d/h99GB4MOeZe80cDofDcW24JeNwOByOa8MtGYfD4XBcG27JOBwOh+PacEvG4XA4HNeGWzIOh8PhuDbcknE4HA7Htal1lsxisQQFBUEqBrWKGo0G/4Wap0qlCgsLq66uDg8PLykpqa6uXrx4cW5uLj5eXV29YsWKwsJCIpc0Url/eVpaWkJCAvl/7V17dFTV1T933hNioSAIsnRp1SqPBlhgWUjEAhKwsfQJPnhJQhICaguU14IV8hopQWyUIpQ3mUl4dS3tqsumgCAhmaS0CGLIgxBsdbEWJDN5DMm8Z873x++7+ztMgiJMYvw4vz+ybmbuPffMuffsffY+v723WpoI0eZNTU1TpkzRaDS4l3gjnU43ZcoUp9PJOd+5c2dzczPnvK2tbfHixVTe+/nnn29paaE2nU5nYmLiyZMn0Rm/348DCqcIBoO4L86X4SwSEj0KNCU555SQotN5ytVKh/SJz+fDAaW/EutydawsSKdRiS/xmL4lMSI2QmJNbIo+xEEgEKBvRWEYcWtq9maVw242Aj0KPU6TGQyGbdu2cc79fj9q3LW3t+Otqq+vX7ZsmdvtzsjIgOIJBoMxMTEvv/zykSNHKNOXVqtF1e2ysjIoJI1Go9Vqx48fP2fOHI1GYzKZFEUxGAw2my02Nvbo0aOhUAg1Njdu3Pjpp5/iyfl8vqNHj/br109RlKeeespisfj9/l69eun1+traWmi1gQMH+nw+pHmuqqqaPHnyhx9+OHHiRHTPbDbr9fohQ4bU1dXhVUAel2AwKBOSSkj0TJBYRwqrYDBIWXHpHCSwoGwgyNZoNBpRmVOj0YRCIaRromSDSDyIa30+H7KKULpCIBAI4F5oHLmyDAYDUxfBaASX4EZoH4mgcC2Ej9/v1+v1oVAoEAhQdn9cJebfQpYpiCO0xgQFjMapIEAXFcmMCnqcJsPTZYzBJmOMGY1GvFs+n49q3wWDQagrxtiPfvQjr9dbX18fDofb29sZY16vNxgMxsfHQ0WFw+H8/PwdO3bk5eVt377d4/EEAoFwODx79myNRpOcnKzRaGJiYhRFWb58+ciRI6H/dDpdQkKC0+kMBAJDhw595plnampqysrKfD7fgw8+yBhra2szGo2w4Q4ePDhs2LBp06alpqbm5uZCvX322WdDhgzJzMz84Q9/iHcIrwXeb3rzJCQkegjglYFwxyTV6/XhcNjj8WC2QhZRNWRSHnq9HqpFp9NhaavVarE+hobAt1BdkBuQY9Al0E96vR7KDCoEsoUWwTqdzu/3k4aDMIQ/CSdwtdQ1Ywz90Wq1lCCKcx4IBCB8mGqxoav4XVCQpIDFxpmahbJ7n8Y3QI/TZHjSNptN9PVt2LBBLBSED10ul8FgwOA+//zzH3zwgUaj6dOnDxQenqtGo8nLy9NoNCNHjhw2bNjgwYOHDRtmMpnWr1/P1LKwO3fu5Jw3NDSkpqaWlZUFg0G8YeFw+MiRI/369cOrkJCQ4Pf7LRZLdnY28mebzWbO+YABA1JSUqZPnx4KhdavX79t27af/OQnBoNBUZRNmzadPXt2xowZ6CTpZqyhKOemhIRED4HohcOikzGm0Wgw2Rlj8KkwIR8u9BAy56IRMT8T9BlpODK2SM1Al5DZRJpDNJvQPmMMsog0nOhdpMZxITqPvtG3ZB1SU2IlNqYqctFoI9eioihdlzUxCuDRQ1Raw9Jg//79+/bt45wHg8Hz589v2rTJ6/V+/vnnS5YsgbPR7/dnZGQ0NTXhIeHCQCDQ2NhosViuX78eCoUyMzPpoUb8anyem5trsVjweGDhiW8P/iYlJa1bt44xZrFYcC8sr3BTqD2/35+eno5rzWbz2rVr0Z+6uroRI0agnbS0NK/XizeScw6j7fYQ3acmIXF3otN5RHKfBMv169dxAO8OjrHSFc/Hh5xzMrAIkGmY+OKBeBVOg1gQxYvYk0AgwDn3eDzih2IHSDThL90IFwJwbKJL4smccwgo8YfgNK5KVzrzG6F75FWPs8lgicMKZoxptdrY2FiNRmM0Gj0eD5m9Pp+PqBmccziddTqdw+EwmUy4ZM2aNU6nMzs7G8pP1Hlr165tampas2bNihUr/H6/2+0+fPgwnjG9Pfv27fv444937dqVmZlZVVVlMpl8Pl9ycrLJZNLpdHq9XlGU2NjYQ4cO6fX6zZs3X7hwIS4uzuPxWCwWLIgee+yxTz/9dPTo0VVVVdu2bYOyhOLU6/V+v5+2ZCUkJHoCxD0hyIHY2FjGGOccU56rlhm7sbBkIBDAh7BvoAOwzIVMg/nFVAnAVWcdbDuSYGgc5BE0iI0JiETOuclkYupS2+v1osNer5epFhV9i30yxhiMM1h1cBfhpjiZ9uyxz8fULT1xIxACrSfv7vc4TcY5J88bKS08SDiR4dnDsGIRQRYx5/zcuXP9+/fHhXArnz59OiYmRmQn6vV6u90OzwBenb/+9a/Tp0/v3bs3aBp4hMnJyXhy5P42mUwrVqxYv349Vigej2fu3LmDBw9m6js0b948LJEKCwutVitmwssvv4z+tLe3K0JBVYPB0KOtdQmJuxhEgohYbnKB9wHFhr2uiJLTWGdrtVqDwQCZJlKmqZIndsUgzbjq0+OcG41GOpNzjqUzZB1XN8NIqzHGTCYTV81BUDy4WvOatjbAHCEVC6uAiorRV0yVeGQk0H178sq7x2ky8gTOnz8fu6ZDhgzxer1YXxD7Q6/Xu93umJiYYDC4YMEC7KvV1dXl5uZ+8cUXpDC0Wu2TTz7pdrvxkLDOamtrmzRpEp1TXV398ccfwydJ3r9QKLRjxw6sTYigYbfbGxsbBw4cWFRUxBh788034+Pj4+PjmbqwKigogMt71qxZc+bMwbHVaoXGiomJYcKSjfVsLpCExN0JYu5hntpsNofDoSjK9evXX331VXIFTZs2zel00u5RU1PT1KlTS0tLYQAx1erCfK+trV27di28SoWFhUVFRdAKuNZms9ntdofDkZub6/F4Tp06dfjwYZ1OZ7PZDh8+TLJCURS73T516tTW1lZ0gzGWnZ2dnZ3N1MU0uCfhcLi6unrUqFF//vOfX3/9dSzN0dXExESn06nVapubmxctWuRyuTjnULeHDh06ffo0U8kjGAS06fV6P/nkkwMHDnT/47hF9DhNBgSDQeyTeb1eOAO54BFmjLW2tp45c6Zv375Go/GVV16ZPXv2tWvXXn311e3btzPG9u/fz9QXsaysLCYmBksSPM577rnn2LFjMPZramqsVusvf/nLNWvW6PV6sts0Gk1SUhIxhXQ6XVFR0T/+8Y/4+HjYWBqN5pFHHpkzZ464u5uUlARWZFFR0b59++Cenjt3LheK9WHZRSu+bzoyUM/iwpBovhISEhHgKi0CPht2Y3QUjJKI4E5xcmm12rFjx27atMntduv1+tjYWETgOByOBx98kPyQdXV1zzzzzLFjxyZMmKAoCojQWEZfunSJMda/f/+HH35448aN4XD417/+9ZUrV1paWtrb21euXFlbW0tMd67WVsaWv81mmzVrll6vR3CRxWIZN27cn/70p7S0tE2bNkFYZWdnr1u3joJubTZbUVGRVqtdvnz5Rx99NGfOnIEDBzY3N2Mp39DQQN3+4IMP4uPjv//972NAFEXx+XxhIS4tKyuL1HZMTMyTTz45b948+kSr1WZlZUUM17eJ29xf6wzRag1WUSAQoB1LPIba2tqNGzfi388++ywhIeH8+fPQbVar1WAwVFRU+Hy+QCAwf/78kpISsc2QCq5aZlA57777rtPptNvt2dnZuB3tau7du/ef//wnTi4rKwPF0W63M8bGjBmzdetWxlh2drbX60X71dXVI0aMEPlLOI6Li6uuro7KyABMnZ93QhuRkLhLsGnTppaWlo50DFFeEZuDyBHY1MDxe++9V1NTU1FRsWDBAhBAGhoaFi9e7HA4OOewVNasWZOcnJybm8s593q9tbW1o0aN2rt3byAQIIceUcAYYwaDYebMmWlpadXV1UVFRSUlJQ6Hw2KxuFyukpISm81WWFj41ltvpaSktLe3E8sjgktiJv2dwAAAFJRJREFUtVpzcnLoX+p8Y2Njenq6w+EIBAJZWVlXr17lnAeDQafTuXjx4oaGBofDkZSU5HK5Wltb09PTRamFvwsXLnS73WgN/T9+/LjVao1gowARvYpAdLXMTe8SzbaixF0kFx8GqLW1dcGCBRjow4cPQwPR+W1tbSkpKVlZWXjMuLC+vn758uVYMjB1M0yr1WLlwtQ4idzcXLgNT506BU9mhJovKSkhMo/H40lPT588eXJDQwNUSDgcrqio0Ov1mZmZoVDo8uXLeXl5WOWhM3jY+fn5iIyOFjqOs8hNkpCQEKHX62NiYlavXo18PVwVLLS5zlVhTUvDjiS98vLyKVOmgCwdDofdbndqaipjLCUlpa2tjVo4ceIE9q5SU1NBNMPctFgsp06dotM45zt37jxx4sTvf/97aLLS0tKmpiZ4F8vKypYuXbpy5crLly8XFxczxqCuvF5venr67t270U5GRkZhYSH6XF5enpSU5PV629ra0tLSaI/mnXfeee2115hA60hMTLx69eqBAwdKS0tdLtfq1aurqqo4536/Hx+KA7J37166lsw+tFNUVMRvTfLcpZqMQG+VSEIVCbJut/tmnFFaYYEsK7LnaeiDwaDIUo3gzopPiI47Lj2IjMuFd1T8F99G8G7vBDD/xYn31QsiCYm7HPn5+SDsmc3m1atXt7S0cJU3SBqL5rhIT+ec5+TkMMYyMzPBpOjYOLQLAljhpCEH0vDhwyH309LSmpqakpKSjh49umLFisrKSpfLtWrVqk8++WTZsmV1dXV79uwpLS3FTgqms+huCQaDhYWFxMFev379unXrbDYbwqvJkNLpdJmZmbikpKREo9FYLJZOdXNjY+OUKVMYYyNGjKirq9u7dy/xEomDVlpaGg6HbTYbObdKSkqsVisaLC0ttdlsGBAxKqlT3KWajIIqiJ8DVUSjxgWdEfEv55wsYmqNd1g4dDruFPMhms/UB36jpgRf/2YqBN/yG5VZFBExznBvSkhIdASESe/evSGpwd9buXIlkgF1GlYVIR+qqqrefvttj8ezaNEidmPI6f79+9FCZWUl3IZw/JBTZ+jQoZcuXRLvUlVVNWvWrNLS0hUrVly7dm316tUXL14sKCiw2+2c89ra2tGjR4t3QWsJCQlNTU38RllHcob6b7fbYVRt2bJl1qxZW7Zs2blzJ1lR1DGYU8XFxc3NzZCNCAPggtTlnHs8nkOHDpWXl2OhX1ZWZrPZcA78n/zWhE/3aLIex/jQaDQg0iDAgqmkHbgCFCE1GWV7IlM6FAqZzWbikjJ17xRUHEqoQfu0lM+Xcw7eKnZWg8Eg4tXA7ABFFQ5Jznk4HMZ8ELkesBdxDLaPmPeTR3tTFJuusPf79OmjSEhIdIZevXopiuJyuTD9A4GAwWDIz8+fPXu2oiiY0WDDU/IORZUPoBcimMdkMr322msbNmygGOG0tLQBAwZARhkMhtmzZ3POA4HAjh07Dh06BPGakpJCnPgDBw6UlJQMGTLkueeee/rpp6dPn468IW6322AwhNUMUjNmzOCCxvJ6vVevXn3ooYcUVfRVVFSArLh169b6+noQHSsrKzdv3jxu3Ljx48dfu3atf//+RqNx8uTJjDHssVmtVsQFBQKBX/3qV4sWLZo2bdq9997785//vKKiYsSIEUajEQNiNBqnTp3qdDpNJpPb7R43bpzZbNbpdOPHj6dBmzBhAgbHaDT2EGp+j9NkAOiCOMYbhvcSadAUIaEnxTowlQoPdg1CC/1+Pxng0IVhNS8LQsRwF0VVjbCfyNZWFCUUCkGzold2ux3ESMoegncOvEe0QKs/MUNotEYGcXXiWoxyEEhISEQAjv377rsP0wdzOT09fe/evdANmNfIUkiJDX0+H6VSRFDz8ePHr1+//sADD+zZs0en0+Xk5EyYMGHSpElMXRPD3QfO88yZMyGvCgoKmGqRNDQ0DBo0iHM+ZsyYYcOGYckeCoV69eqFu6B7FPX1hz/8YfLkyc3NzWaz2WAwICOwoih1dXWTJk1yuVxXr14NBoMGgwFBSjqdDuvpM2fODBo0SKfT3X///dOnT09MTFQU5ZVXXnnppZeMRuOYMWM+//zzd955h3MeCAT+9re/9e7dOzk5mfyQra2t8fHxEFlQz+3t7Tab7aWXXnrhhRcyMjIgfObNm4ff3kOCYnuiJuNqckymxmRQ4mDKTs051+v12dnZFRUVnPO6urqlS5dSfkyuhhZqNJo33njD4XDs37+/tLRUUZTm5ubc3Fyv1yuWPCgrK1u3bh20UWlpaUpKSljN+An9V15eDrU3ceJELEygLzUazenTp/HUke8RGg4Gmd/vV4Q4+agA4eFimxGkfAkJCUI4HN6yZQtS/5hMpsWLFzc3N//xj3/83ve+BylMq0wcQJEYjUbOOWJJFUXZvXv36dOn4+LiZs6cGRsbqyjKY4899uKLL3J1Aa3VaufOnQtXG8LFcPns2bOxrm1ubq6rq+vTp4/f79+wYcOSJUsyMzPBEfvBD37AVFYF7ei7XK5jx44ZjUadTgdhVV1dvXLlypaWlvPnz993332c88bGxgEDBlAn/X6/y+VavHhxY2PjI488otPp2tvb+/fvf+TIEc75nj17ioqK3G73uXPnnnjiCZ1OB3alTqcrLS3FrwipSYQZY9hM0Wq1SDML9f+zn/0sISHBaDTu3r1bEfxhPSIKKIrLn+i2FoEIjix4g/gJ4rYnkJqa6vF4MjIy8CFlzad/cfDcc885nU6/3//WW2+tWLGCqfwccXzS0tLcbnd5eXlOTg7tpXHV/M/OzsbWqLgx1tXo0nGWkPh/Bq1WazKZli9f7na7xS3zr5hHtCnu8XjOnDmD2FbQKOLi4hC0KtLfa2pqHn/8cZhxTK3JwhgbPXp0TU0N5/zChQv5+flutzstLa2wsJBzXl1dvXz5crj+9u3bd+rUKdqpKigoiIuLs9vtaWlpjY2NuMXJkyctFktVVdULL7zgcDhycnLA7ygrK7NarbW1tfn5+Y2NjevWrfP7/deuXUtOTnY4HLRJT95FznlDQ0NiYmJKSgpSRly6dGn48OFinGtCQoLD4YAPExtvwWAQjA80WFBQYDAY1q1bx2+BB9A98uo7o8m4Sv2A2rhw4cKLL77odDrhzq6vr1+yZInL5aKsicgz9u9//5uru747d+6sqal5/fXX8/LyGhoaUK4TZc9WrlwJKq2YJFQEimfiNcUjJ6vIbrd3yivpOkhNJiFxiwiHw2+++SbK5EbM0E7nkUhFJv5zW1vbokWL4NMjjkNZWRljLDMzMxAIXLx48e233+YqA4IaycvLq6mpAQmwqKhoz549NptNDAuDthg5cuTFixdzc3OhBaHqPB5PcnKyuMlSUlJSVFT0xhtv5OTkWCwWtHD8+PGDBw82NjZOmzaNMZadnc05b2pqWrRo0ZUrVxAqEIHU1NS2tjZSnJWVlfn5+dRzr9eblZUlakGPxxMOh0+fPl1QUMDVTQ2RXfnVK3ipyW6ASLgnG5zGurKyctWqVYFAQIw227Vr16xZs2BpFRcXWyyWhoaGQCBQVlY2atSoy5cvh0Iht9udlJRktVo9Hk9qaiq5B4GEhIRr165xzktKStavX09Bjn6/H5ZZTk7OyZMnuUpF7R5CvNRkEhK3CNpRhuSFvIZK+2pN1um/vDO+NBeSOYgffoWspzOJa02yJeJ8MTJVbNPv99M5YhARfQg6m9jnjhTuCEEqtslVGrkY+BS+MdL3Fl1QUpNFgrj4KOnS0ROIXVZQB9PT071e7/vvv3/p0qWSkhLGGFYxFoslJSXF6XQmJSWlp6cXFBRoNBqsNbj6bCJY/uFwGDYZU3mJ8IzjkxMnTvBbMLGjCKnJJCRuEcQvB8Tl71fMI9Eyg0oQQ0JJnYTUWvMAJQkiMcVv1CikULkgZCIUjCiCQmppDn5j6Gqn6rbTWKOIM6naS8cYWVHoRQhA/CJR4ZHeFU++GbpHXvVExken4Jwrav4nvV6flZVF4RT0ciDBDGLCtmzZAnKEz+d76KGHOOcLFy5cuHBhUlLS9u3b+/btu2vXrnfffbe9vf0vf/mLRqPBZikSpiGOUhGShGq1WuShcbvdMMyDwaDb7d64cSMlNeaSdiEh0cMAZhZJYUWtNnkzcCFFKlPZHCiJSRcaDAbwxWhjLKxWl0b0DnhnVMYFnCyPx4PsryG1mIsYqBNWM8pylUWCMCTEAlGvcF90jyJ/wKAWz2RCZRacCVFJxWioCCdTq2CT1iFCGUj/aBlmg8j6JvI2VRz9lhFFrRjd1iJAywFapFy5ciUxMZGqFTDGkGozLi7u4sWLnPMNGzbQi4gTMO7EEJk6dWpDQ4PdbkeUX0SAJIA3AFYdHiRS2jM10hAFYnh30T24tMkkJL45Ojr/O51HHWcxBZ7yG3MdkKEmVqrkgk2GvyGhajMgmkSizCGaibg05x2q8lIsM/0rctBEK4o6Tz9EPKFjmx3dm9RzsjLDan6lTst4dorukVffJZuMMYbIZSxGzGbz2LFjm5qaKNcnamYmJydjlbFs2bJAICASluBqwAvn9/uLi4v79++PxxMIBPLy8hRFMZlMuIuiKD/96U9dLlc4HH766ae5+lyR7Yarj3Ds2LEUQ82lWSYh0fPAOceM5oLd0ykoGwMlWIBLBlGtMJXIYoPXh/6Fe4ZsMiRk4JyTNRMMBin2izrGVKONjBvYbYgVw7+iHanT6dCTsFqFEXYhxBFuJKYaoVuTSUe2WliN/qbFPTQfXYUGEf7EOScr02g04jik1jmLwkO6M3xnNBmydWDIEPgFvWIymSj8maklp+lxtrS0TJ8+HbawoibFMBqNw4cP//LLL8NqIlEYczqdrr6+3u/3ezyeUCjkdDofeOCBUCjU1NSUkpJSV1eXk5PjdDqXLl0aFxdXU1PDGKupqVm1ahXRmaIYAS0hIREVkO4RldDN8L8LfI0Gmo9ccFwNcoXWQQYGhFSTB4+pPj3KT4RPyH2Har2iTw9tcrW+JSKgoQ6pq2iNshFBecC9RP7JYDBIsUYhIaUkVthQq5RWglyC5B0lwHPIhVrY9BOwDiDmtqihoxsye3v49ntwi4DfmVYijDFFUex2u9FoRHwYeQ6tVqvo+Y2Pj29paQmrKephws+fP5+WMPS+Go1Gn88HhUeJahRF2bx5c1JSEjLTmM3mzZs3nz179oknnrBarefOnUtKSsrIyAiHw8gqIiEh0aNAy1xxl+FmJ5N0pktoQ0g8h7QafUUqQaSD0ZKa3bj3JnaGboo2DQYDvoroNmUjEi+kjRUxV1HH1PW4Y4SVJuaHFMOcxYOIPkQMAusZOgzoKf34WiiKglUGxg7ZzyZMmAD7CUoLB7/5zW/MZjOsfr/fX1pa2rdvXzLIzGazoih79uwhjwFsao1G43Q6hw4ditNiY2P79et36dIlRVGysrJGjx5tNpu//PJLRPijkX379j377LOPP/54Xl4eVlvf9iBJSEhI3I34vxy4UWhLiWZrHUFOW1hmlFMYCdMYY16vl7Idkn7C5zDqkVENqWhofVFeXv7f//53xowZW7dunThx4tChQ/FDrl+/vmzZsqysrPvvv58xBpOfCf4H3JeaAuenY5GzqKOrx1lC4m6AnEfdg+4Z5++SJmMCRxZ7laDL4yu/30+2NowzysEI7YLtNMpvho03ItGSmQzNBFc4eQw6PVP80Ofzmc3mLv3tBDkDJSTuHHIedQ+kJusEMMhEd61olkWoH2xpQvGQ3YYDUkjYFBXVG/bYRNOKeInQnchTTH3oVLd1KeQMlJC4c8h51D2QmuwGkHOPqXmawVUVGfDEUArfWGsAxYdA9UFZB3QVOowUWEfHIGmmjhqUrD3yeSrRTnt/M8gZKCFx55DzqHsgNVkk4DMkMysCiIQgByPV8SINRKpOtKIi/oWqE+02kZAK3j+i/cUWsA/XseUugpyBEhJ3DjmPugdSk0VCNJtAu2ACazbiW7KfiP2BM8kgI5oGNBNCLpjgfqSWyTKLuJb6QKlluieeTM5ACYk7h5xH3QOpySQ6hxxnCYk7RCgUMhqNCCoFF7rnhEZ9d0HWBRNMC5JXtBHTFQRv+fAkJCTuOlDeCsp2AaqXxG0DsblMTTICdYUVA5gNSGrRRXFKUpNJSEjcdRD1lk6nEzPeSdweiCWOkSR7F/UBKP9WFyXOl5pMQkLiroNWq73nnnsaGxvFHL7fdqe+w6BUk2AbgBmnKEpzc/O9997r8/ncbjcIdAiXinoHpCaTkJC4GxEXF1dZWYmcdmLGXonbAFUCwXhiML1eb1VV1cMPP2w0GlEMS/m6+nC334GuaFRCQkKiJ4Nz/tRTT3344YesQ9kUidsA5cVljCH1UjAYNJlM77333rPPPgtfLnKsdxHHW3IXv3uQ4ywhcYcIh8P/+c9/fvzjH9fW1vbr148mlLTM7hCIYsJfp9P56KOP/utf/3r00UfxrdvtjomJ6YoCWFKTffcgx1lC4s4RDod/97vftbW17d69u4uo4XcVxEgGHKelpZlMpvz8fPqw6wY5ajKRirmJeQ5llEZXgDQZpp+s8Ckh8U1BiVjHjh37i1/8YvXq1V+R+kdOsa8FhotG1e/3b9iwobi4uKysrHs6EDU1g8gMRS2wjWKVUo11KShiQ5poEhLfCFhnM8bef//9Q4cOpaWltbe34ysxXBqUcanGvhZUvZNz3traumzZsuLi4oMHD3ZbB6KpyRBpSKl7EXvIJaIKpr40VENdTMwvISFxi0COukGDBp09e9ZkMg0ePPi3v/1tSUlJW1sb3B4ajYYsjG973vd0MMba2to++uijVatWDRo0SKvVnjp1CpUduwdR8y5yzpH95f+aluK1C8DVvC/0SXemfJSQ+P8B2hjDQSAQ+OKLL6xW69///vfa2trW1lbxZDm5vhac89jY2NGjR48fP37+/PlE8eg2RE2TIbQbJgITvMzRal8CoBTGYg1rOdMkJG4DcGzAkYidfn5jwnGm7qhJOfbViEi2TrWOu60D/wNJHKs/C3UJpwAAAABJRU5ErkJggg==;" vertex="1" parent="1">
          <mxGeometry width="579" height="557" as="geometry" />
        </mxCell>
      </root>
    </mxGraphModel>
  </diagram>
</mxfile>
